/* XPM */
static char *result[] = {
/* columns rows colors chars-per-pixel */
"128 128 19 1 ",
"  c #8BAD00",
". c #8CB400",
"X c #8EBC00",
"o c #91B600",
"O c #92BC00",
"+ c #98BF00",
"@ c #8FC300",
"# c #92C500",
"$ c #9AC400",
"% c #97C900",
"& c #9BCB00",
"* c #A0C700",
"= c #A2CE00",
"- c #A8CE00",
"; c #A5D100",
": c #ABD400",
"> c #B0D700",
", c #B3D900",
"< c #B9DD00",
/* pixels */
"XXX@@@=&-X.@@%&@%%%%%%#@&===%%%#@;%%%%&;@@@@@@@@@@@@@@@@@%%%%%%#%%>OX@@@@@@@@@@@@@@#%%%%%%%%@%%%;X@%&%%;*X@@@@#%%%%@@@@#@%%%%%%&",
"#@@@@&%&=..@@@%@@#%%%%%@=%%%%%%@%%%%%%&&@@@@@@@@@@@@@@@@@@#@%%&&&&=#.@@@@@@@@@@@@@@@@%%%%@@%%%%%&X#%%%%:OX@#XXX%%@@@@@@@@@%%%%#X",
"#@@@@%%&% X@@@@@@@@%%%%%%%%%%%%@%%%%%%%%@@@@@@@@@@@@@@@@@@@#@@#...oX.#@@@@@@@@@@@@@@#%%%%#@%%%%&%@%%%&;*X%;:>:+X#@@@@@@@@@@@@@@@",
"@@@@%%%%XXX@@@@@@@@#%%%@%%#%%%#@%%%&@@@@@@@@@@@@@@@@@@@#%%%%%%&=:-%#@@@@@@@@@@@@@@@@##%%%%@@%%%%@#%%%%;O%=&&;>OXX@@@@@@@@@@@@#@@",
"#@@@%%%%%%%%#@@@@@@@%%%@%%%%%%@@%%%@@@@@@@@@@@@@@@@@@@@%%%%%%%%%&,<=X#@@@@@@@@@@@@@@@@#%%@@@@%@%@%%%%;##%%%%-%;:O@@@@@@@@@@@@@@@",
"@@@@%%%%##%%&=#@@@@@@#@%%@%%%#@#%%@@@@@@@@@@%#@@@@@@@@@#%%%##@@;;%OXXX@%@@@@@@@#@@@@@@@%%%@@@@@%@%%%%##%%%%%&=&;XX@@@@@@@@@@@@@@",
"#@@@#%###%+X...#@@@@@@@@%@%%%@@@@@@@@@@@@@@@;@@@@##@@@@@@@@#@@%#OX@@@#::@@%%;&@@@@@@@@@@@@@@@@@@@%%%@@#%%%%%&%&&.#@@@@@@@@@@@@@@",
"@@@@@%%%%%%%#OXX@@@@@@@@@@%@@@@@@@@@@@@@#@@%&@@#&:%@@@@@@@@@@@@@@@@@#;;&X#%%=XX@@@@@@@@@@@@@@@@@@#%@@@%%%%%%%%&OX@@@@@@@@@@@@@@@",
"#@@@%%%%%%%%%#@#@@@@@@@@@@@@@@@@@@@@@@@###X%&@%=&%@@@@@@@@@@@@@@@@@@&=%O#%&*+..@@@@@@@@@@@@#=@@@@@@@@@%%%%%%%%=X@@@@@@@@@@@@@@@@",
"#@@@#%%%%%&%%&X@@@@@@@@@@@@@@@@@@#@@#@@#@.#%#O%%%&&%@@@@@@@@@@@@@@@@&%%#%%&+..@@@@@@@@@@@@X&:@@@@@@@@@@%%%%%%%@X@@@@@@@@@@@@@@@@",
"@@@@@#%%%%%%&-+@@@@@@@@@@@@@@@@@@@@@@@#%.O%%%%%%%%;#X@@@@@@@@@@@@@@%%%#%%&%.+&&%#@@@@@@@@@X;;@@@@@@@@@@%%%%%%XX@@@@@@@@@@@@@@@@@",
"OX@@@@@@#%%OO*$@@@@@@@@X@@XX.XXX@@@#%#%#X%%%%%%&%@%@@@@@@@@@@@@@@@@#%%#%%&O%&&=;;#@@@@@@@@@&%@@@@@@@@@@@%%%#@X@@@@@@@@@#@@@#X@@%",
".@@@@@@@@@%%#..@@@@@@@X.........X@#%%%%@#%%%%%%&#@.XXX@@#@@@@@@@@@@%%%%%%#%%%%&;>%@@@@@@@@X%%@@@@@@@#@@@@@@@@@@@@@@@@@@%X@%+X@%:",
"@@##@@@@@#&=;OX#@@@@@@@@XXX....XX@%%%%#%%%%%%&;:#@@=&@@@@@@@@@@@@@@%%%%%%%###&%O..@@@@@@@@X@%%@@@@@@@@@@@@@@@@@@@@@@@@;$X#-.@%;=",
"#%%*$.X#@@@O#.#@@@@@@@@@@@@@@@@@@@%%%@@#%##%;&=&@#%=%@@@@@@@@@@@@@@#%%%%%%@#O. ...X@@@%%%%%X@%%@@@@@@@@@@@@@@@@@@@@@@&=OO&+O#%;.",
"%&&*#X...X@@OX@@@@@@@@@@@@@@@@X..@@@@@@###%%&;&##%%%XX@@@@@#@@@@@@@@#%%%#@@@..XX@@@@@;;&&&%%%@%@@@@@@@@XXXXX..XX@@@#%%%#%=.%%%&X",
"%#OXXX.XX@@@@@@@@@@@@@@@@@@@@@@@@@@@%%%%%%%%&%@#&&*. X@@XXXX.XX.X.X@@@@%%%%##@@@@@@@;<:=%%%%%#@@@@@.............#@@#%%%%###%%%%%",
"%%&-:OX@@@@@@@@@@@@@@@@@#@@#@@@@@@@@%%%%%%@@@@#%&=...@X............X@@%%&%%%%%#@@@@@#OOOO##@@@@@@@.............X@@@@#%###%%%%%%%",
"###%$X@XX..X...X....X@%%%%%%##@@@@@@%%%%%&;:%@@#O.OX@@@..........XX@#%@%%%%%%&:@@@@@O#&*&&%%##@@@@X...........XX@@@@@@@@#%%%%%%%",
"@@OX#@X.............X@#%%%%%%%%#@@@@@@%%&&;%##%#%=&@@@@@@XXXXXX@@@@@#%%@#&&&%%>#@@@@=>,;%%%%%%%@@@@XX.......XXX@@@@@@@X@@@#@@@@@",
"@@.X#XX...........XX@@@@%%%%%%%%#@@@@@@@%%@@#%%&$+XX@@@@@@@@@@@@@@@@%%%%##&;;&;+@@@@OO%=&#@%###@@@@@@XXXXXX@#@@@@@@#&=X#@#X@@@@@",
"@#%;=.@#@XXXXXXXX@@@@@@@@%=%%%%%&%@@@@@@@@@@@@XXXXX@@@@@@@@@@@@@@@@@#%%%%%.+->,$@@@@XXXOO#@@#@@@@@@@@@@@@@@@#&X@@@@&&&.%;;.@@@@@",
"%%&;X@@@@@@@@@@@@@@@@@##@#&;;=&%&&@@@@@@@@@@@@@@#@#@@@@@@@@@#X@@@@@@#=%%%&XX.+:#@@@@@@@@#@@.X@@@@@@@@@@@@@@@%=$X@@#%##%&&&X@@@@#",
"%&&O@@@@@@@@@##@@@#%%%%%%%#%%&%=;;#@@@@@@@@@@@@@@@X@@@@@@@#%+X@@@@@@#%;%&&#@XX..@@@@@@@@@@@..=#@@@@@@@&&X@@@%&:.##%%%%%%:+@@@@%%",
"##@@@@@@@@@@@#%%#@%%%#%%%%%##%%XO+X@@@@@@@@@@@@@XO.@@#O.@#%&OX#@@@@@@@$:$;#@@@XX@@@@@@@@@@X.#<;@@@@@@@;:$O@#%%=.@%%%%%&;-X@@#@##",
"OOX@#%%##@@@@%%%%@#%%%%%%%%%@X%#..X@@@@@@@@@@@#X$-OX#*:O#%%&.-*X@@@@@@#$>>O@@@@@@@@@X#@@@@ .>;;#@@@@@@&%:#X#%%&O#%%%%%&*OX@%%%%#",
":%X%%%%%%#@@#%%%%#X&%%%%%=%%%..##@X@@@@@@@@@@@X-&=.+%%&O%%##&;$X@@@@@@@@O-X#@@@@#XX.XO#@@@.X,%%@@@@@@@%%&-X#%&%#%%%%%%OX@@@##%%%",
"#@@%%%%%%%#@@%%%%%XO&%%%##;&%%X.%@@@@@@@@@@@@@#%%&#%%%#%%##%%:.@@@@@@@@@XXX@@@@@@XX%=&%%#O $=%%%@@@@@@@@%&##%%%@%%%%%&%#X@@@@@X#",
"@@%%%%&&%%%@@%%%%%X.%&&&%##-&&#@.X@@@@@@@@@@@@%%@#%%%@#%%@%%&*#&&%@@@@@@#@@@@@@@@@@@O&:;%%X#%%%@@@@@@@@@%%#@%%%@@@##%%;>O@@@@@@@",
"@@%%%%;=%%%##%%%%&XXo&&&%#@#;;%@@X@@@@@@@@@@@@%%#%%%X@#%##%%%%%&&:#@@@@@@@@@@@@@@@XO@OO:>&%%%%%%@@@@@@@@#%%@#%%@@@@@#;&OX@@@@@@@",
"@@&%%%&=%%%#X&%%&&O@X.%=%%..O=$#@@@@@@@@@@@@@@%%#%%@@@###%%%%&&&.XX@@@@@@@@@@@@#XO%;;%XX&>&%%%%%@@@@@@@@#%%#@#%@@@@@@X@@@@@@@@@@",
"@#=%%&%&%%%#X;%&%&#@#O.#-&O...O%@@@@@@@@@@@@@@%%#%@@@@@@#%%%%#XX@@@@X@@OX@@@@@@.$>-%%%%%%&>%%%%@@@@@@@@@XO#@XXXXX@X@#@@@@@@@@@@@",
"#X&&%=#&&%&OX&&%&=O@@@@.o&$&@XX<;@@@@@%%@@@@@@@%@@@@@@@@%#O#@@@@@@.........@@#o-<&%%%%%%%%&=%%%@@X....................XX@@@@@@@@",
"#X#=%=@%&%%.@%&%&=.@@@@@X.O<>;@;;;@@@@;>@@@@@@@@@@@@@@@&&$.@@@@@@@@X.X..XX@@@XX&:::&%%%%%%%&%%#X.........................X@@@@@@",
"#@X==&O&%&OX@#;&;#.@@@@@@@X:%&&#%=;@@@;=;@@@@@@@@@@@@@#&%+.@@@@@@@@@@@X@X@X#@@@@#XX%%%%%%%%%@#X..........................X@@@@@@",
"@@.%;O#;=%oO@O;:$.X@@@@@@@@%;%&%%%%%@%%%;@@@%,%@@@#X@@&&%#.@@@@X@XXX........X@#X#;;;&%%%%%%%@@@@X.....................XX###@@@@@",
"#@XX#.#*O.X@@X%$.X@@@@@@@@@@&;%%%%%%@@%%&%@&<,%@@##..@&&#X ..@#%%%% .........XX:<&%%%%%%%%%%@@@@@@@@X@@XX@X@XXXO@#%#@@#%%%%%%%@@",
"@@@..XX..X@@@#..X@@@@@@@@@@@@&;%%%%%@#%%%@%:%&%@@%&#..&%%#..@%%%%;O...........X&=:=#@@#%%%%#@@@@@@@@@@@XXX...O=&%%%##@#%%%%%%%;@",
"%#@@X@@X@@@@@@OX@@@@@@@@@@@@@@%%%%%%#%%%@@%%%%%@@#;&#.O%%@@X%%%%== ...........@@@@#&%@@@@@@@@@@@@@@@@X.....o$=&%%%##%#%%&%%&&=:;",
"%%#@##@@@@##@@#@@@X@@XXXX@@@&:=%%%%#@@%%%@%%@@@@@@:&%%.#%#@@%%%&>o...........X@@@@@#%@@@@@@@@@@@@@@@......o*&&&&%##%%%#%%%%=-&*:",
"%%#@%%#@#%%%&&%X..........@@&;&%%##@@#%%@@%%@@@@@@%>&&##%%@@%%%&*..O.........@@@@@@@@@@@@@@@@@@@@@@X.......+$%$$#&%%%%@%%#%%=>$O",
"%%@#%%#@@#%%%&:#...........@#@%&&%%#@#%#@%%%@@@@#%o=:&%%%%##%%%&%$===&+......@@@@@@@@@@@@@@@#@@@@@@............ *;%%%#@#%#X%%&>#",
"%%@%%%##%%%&&$O............@@#@@@@@#@##X@@%%@@@@@:>%*;&%%%%@%%#@%%%%&*o.....@@@@@@@@@@@%#@@@#&%@@@@............O:&%%%@X#%%#.#%=&",
";##%%%##%%%%&&+o...........X..@@@@X..XO.@@%@@@@@@%,;=&%%%%%%%%@%%%%&*o.....@@@@@@@@@@@#%%##@@%&=&&@X.......... -&&%%#X.X#%&..#%=",
"%@%&%%XX%&%%&%=%.......... o$$@@@X.$*#X#X@@@@@@@@@=&%%%%%%%@#@%%%%&*o....X@@@@#@@@@@@%%%%%%%%%&&>>%X......... X&#%#@X...%%=@X.O&",
"@@#;%;O.#&%%%%%-$.........O;;=X#XX*&&X%-%@@@@@@@@@@%%%%%%%%@@%%%%%#....X@XX..X..X..@@%%%%%%%%;*%#XX#@.....  .....X.....X#&&@@X@@",
"#@@&:-...$;&%&:=:o .......=&%-#@.&&&&X=&&@@@@@@@@@@@@#%%%%#@@@###XXXX@#@X.........X#%%%%%%%%%&-&&%#X@@.       ......X@X.&&@@@@@@",
"@#@#=X....+::..+=$O. ....O-%%&%@O%%&&#&%&%@@@@@@@@@@@@@@@@@@@@@@@#@@@@@@@XXX.X.XXX#%%%&%%%%%%%&&,,OO#X.        ..XXX@@OX&%@@@@@@",
"#%%@@X.....X+.. .O&&o ..X#=&%%&##%%%&&&%&&@@@@@@@@@@@@@@@@@@@@@@@@@@@@#%@@@@@@@@@@%%%%;;##%%%&&::OX@X.        XX@XO#%%%%#@@@@@@@",
"#%%#@@XX.....*&X o%&=$.O##&%%%&X%%%%;&%%%%@@@@@@@@@@@@@@@@@@#@@@@@#%@@%%#@@@@@@@@@%%%%%::%X#&-&#.@@@XX.    ...XXO#&&%%%%###@@@#%",
"@%%@@@@@X. ..%==%X%%&&&X@O%%%%%X@%%%=&%&%#@@@@@@@@@@@@@@X+==%@@@@@%%%@%%%@@@@@@@@#%%%%%%;:=OX@@X@@@@@@@@X@@X@X@-=&&&%%%%#%#@@#%%",
"#%%#@@@@@@OX.+&&-&#%%%&%XX%%%&%@@%%%&&%%%@@@@@@@@@@@@@@@X%-&%%%#%@#%%#X&%#@@@@@@@@%%%&.X%&&;*%X@@@@@@@#XX@@@@@@@##+&&%%@%%%#%%%%",
"&=#@@@@@@X@%#.@%&&&%%%%&%X%%%%%@@@%%%%%%#@@@@@##=&%#%@@@@XO%%%%%%@%%%%X&&%@%@@@@@@%%=&.X@@##O+XX@@@@@@X$$O@@@@@@@@.:&%@%%#$%%%O+",
"$O@@@@@@#..O%%X@%%&%%%%%%@@%%%#@@@@%%%%#@@@@@@XO$##%%%#@O%&&%%%%%.&%%%@O;&%%@@@@@@&->+ X@@@@X@@@@@@@@@@-:*#@@@@@@@O-+#%%%X-&%#X*",
"O#@@@@@@@#+OX#%%#%%%%%%%%%@%%%@@@@@@@@@@@@@@@@######@@@X&;%%%%%%@.;%%%@X#::%@@@@@@%,=..@@@@@@@@@#XX@@@@-&--#@@@@@@##.$&%#X#O@@.+",
"@@@@@@@@@#--*&&&%###%%%##@@@@#@@@@@@@@@@@@@@@+*&%%%#@@XX;%%%#%%%@X$;%#@@O#%@@@#@@@#&O @@@@@@@@@@@X+.XX@&%%&=#@@@@@@XO%#@@X@@@@@X",
"@@@@@@@@@@&&%%&==&%@@@##@@@@@@X@@@X@XX@@@@@X#:&###@@@@X$:*%O#%%@@@.-#@@@@@@@@@@@@@@@@X@@#XX@@@@@@X>>$O.$%%%%&@@@@@@@@#@XXXX#@@@@",
"@@@@@@@@#@#%%%%%%%&#@@@@@@XXX..X.......XX@@X+#O#@@@@@@X%%#X$;&@@@@##@@@@@@@@@@@@@@@###@@%*#XX#@@@X:;:;$#%%%%%#@@@@@@@Xo+$%#%@@@@",
"%%#@@@@@@@@@#%%%%%%%%@@@@X.............X@@@@@XX@@@@@@@@@@@@#@@@@@@@@@@@@@@@@@@@@@@#%%%%%%&><:@@@@@:&%%&&#@%%%@@@@@@@@%-&#%###&;&",
"%%%%@@@@@@@@@@#%%%%%%%@@@@X..........X@@@@@@$&###%#%%%%%%@@@@@@@@@@@@XXXXX.X@@@@@@@##%%%&$*#X@@@@@&-%%%&%%###@@@@@@@XO.X##@@;;&%",
"%%%%#@@@@@@@@@@@@@@@@@@@@@@@@@XXXXX@@@@@@@@.$-&%%%%%%%%%##%#%%@@@@@........X@@@@@@@@@#@##$$$$#@@@@@#%%%%%%%#@@@@@@@X..$=%%@@###%",
"%%%#@@@@@@@@@@@@@@@@@@@@@@@@@@@@@@@@@@@@@@@@@X+%%%#%%%#$%%%%%%@@@@@X.......@@@@@@@%@%%%&%%&<=@@@@@@XX#####%##@@@@@@..%&&%@&;&&%%",
"@@@@%#@@@@@@@@@@@@@@@@@@@@@@@X.X@@@@@@@@@@@X%:-&%X$&%#.-%X&&#@@@@@@@XXXXXX@@@@@@@@#%%@%&=&-%@@#X.. ..#@#%%%%%#@@@@@@&&%#@&;%&%##",
"%@%%%%@@@@@#@@@@@@@@@@@@@@@@@@X>&%@@@@@@@@@@#@@@XO:%#O$&O.>%@@@@@@@@@@@@@@@@@@@@@@@#%#X@@@@@@@@X..O%%##%%%%%%%@@@@@#-%#@&:;&@%%%",
"@%%%%%@@@@@@X@@XXXX@@@@@@@@@X..+%%@@@@@@@@@@@@@@.:&@XX%@X@@@@@@@@@@@@X@@@@@@@@@@@@@@%@@@@@@@#@@@,:&%%%%#%%%%%%#@@@@X..X@&%%%%%%%",
"@%@#%@@@@............@@@@@@@@=-#@%%%@@@@@@@@@@@@X%@@@@@@@@@@@@@@@@@X@#%%%#@@@@@@@@@@%&#@@@@@@@@@%;;;;&O%&%#%%%@@@@@@O#%%%%%%%%%X",
"%@@#@@@@X...........@@@@@@@@@#%%%%%%%%%@@@@@@@@@@@@@@@@@@@@@@@@@@@XO%%%%%%#@@@@@@@@@&:%@@@@@@@@@#@@#..$&%##%%%@@@@@X#:;&%%%O%%#.",
"%@@@@@@@@@XXX..XXXX@@@@@@@@@@O%%%%%%%%%%@@@@@@@@@@@@@@@@@@... .X@XX;%%%%%%%@@@@@@@@@&=@@@@@@@@@@@@@X.$&%%##%&#@@@@@@@@@%&&O@&%X@",
"@@@@@@@@@@@@@@@@##@@@@@@@#@@XX@@%%&%%%%@@@@@@@@@@@@@@@@X. .  . .@.=%&%%%%%%#@@%@@@@@@@@@@@@@@@@@@@X.+;%%@O=:&@@@@@@@@#;:&##%%#@@",
"@@@@@@@@@@@@#@@%%%@%@@@@@@@@@X...#%###%#@@@@@@@@@@@@@@@@.. .... .#&%%&@%%%%@@%%%#@@@@@@@#@@@@@@@@@@#:&##O&>&@@@@@@@@@@@@#@@&%@@@",
"@@@@@@@@@%%%#@%%%%#%@%#@@@@@@%%%$%%#%%%%@@@@@@@@@@@@@@@@@XX..... :&=&&%%%%##%%%%#@@@#@@#%#@@@@@@@@@@XXX@X%@@@@#X@#%@@@@@#@@%@@@@",
"#@@@@@@@%%%%@#%%%#%%@%%%#@@@@@##%###%%%%@@@@@@@@@@@@@@@@@@@@@X@@.*&$:&%&%@%;%%%%##%%%@@@%%%#@@@@@@X... ...X@#X#&&*####%#@@@@@@@@",
"#@@@%@#%%%%%@#%%%#%%%%%%%#@@@@@@#..$%%%@@@@@@@@@@@#@@#@@@@@@@@@@#@X->:;&%O:&%%%%O&%%%%@@%%%%#@@@X. .. . .. X@@&>=&%%%%%%#@@@@@@@",
"@@@@=%%%%%%%@%%&%%%&@%%%%%#@#@@@@..;%&%@@@@@@@@@#@O##%%#@@@@@@@##%XO#%#@O==&%%%XO=%%%%%@%%%%%@@@...  . .    XXOX+$%%%#@#@@@@@@@@",
"#@@@;%%%%###@%%&&=;%@%%%%%%%%=%@@.X;=&@@@@@@@@@XO%&%%%%#@#@@@@%%#%#@#@@XO:%&&&@XO=%%%%%#%%%%%%@@.  . . .. .X@X==%%%####@@@@@@@@@",
"@@@%:%#%#@@@#&;;&:=@@&;&&;&=;:&#@@@;&@@@@@@@@X+-;&&&&%%#@%#@@%%%#%%#@@#X->::;%#X+&%%#%%&&;&%%;@@X. .. . . X@@@#&&&&%%%%##@@@@@@@",
"@@@%&#%;%O@@&;;%;&@@@@;:=>=@@@@@@@@@#@@@@@@@#%#%&$$&%%##%%&#%&&#%&&#@@@.*:;%@@@@O&&%#%%-=->&%;@@@XXX.XXXX@@@@@@@%&%@O%%##@@@@@@@",
"#@@@@@&:#@@@%%@@@@@@@@@%#%#@@#@@@@@@@%X@#+X@%:oX#.$*&%#%&O;&=:+%%;#@@@@@#@@@@@@X.;%%@%%;%-%>:#@@@@@@@@@@@@@@@@@#%@@@%&#@@@@@@@@@",
"@@@%&&%@@X@@@@@@@@@@@@@@@@#@@@@@@@@#-$X%*X#%=$.##.*-#&%&#O<:&X+;;#@@@@@@@@@@@@@@.*%X%%&&o-X+:@@@@@@@@@@#@@@@@@#%%#@@&%#@@@@@@@%:",
".#%&;#@@@@@@@@@@@@@@@@@@@@@@@@@@@@#&&.#=+O#%=.#%&--o$;&&.O%@#.+##@@@@@@@@@@@@@@@X+#X+=;&.%@O#@@@@@@@X@&%@@@@@%@@%#@@&%@@@@@@@&::",
"#%%;O..@@@@@@@@@@@@@@@@@@@@@@@@@@%%%%%%%X%%&%#%&$+#.-:%@@@@@@XX@X@XXXXXXX@@@@@@@XX@@.::#.#@@@@#X@@@OO:&%%%#@%%##%%@@%%@@@@@@%;&%",
"%%=O .##@@@@@@@@@@@@@@@@@@@@@@@@@#%%%###%%%%%%%%%%+o#@@XXXX..............X@@@@@@@@@@X##@@@@@@%%###@@#O#%%%%#%%%X*&@@@#@@@@@@%%%@",
"%-Oo%=-&#@@@@@@@@@@@@@@@@@@@@@@@@@@@@@#%%%%%%%%##&*OX#X..................X%%%%%%##@@@@@@@@@XX$$%%##@X&&%%%%O%%%X+;%%@@@@@@@@%%#%",
"%##%%%&:>&@@@@@@@@@@@@@@@#@@@@@@@@@@@@@##@@@#@@@@O@#@@..................X@#%%%%%%%%@@@@@@@@######@@X-&%%%%%O&%%@X%:%@@@@@@@%%%%%",
"%%%#%%%$#X@@@@@@@@@@@@@@@@@#@@@@@%&&X##%@@@@@@@@X##X@@XX..............X@@@@@%%%&%%%%#@@@@@X&&%%%@@@O;%##%%@X*&%@#@&#@@@@@@@#%%%%",
"%#@#OX....X@@@@@@@@@@@@@@@#=X@@@@%%%O&-=X@@@@@@#%-*O@@@@XXXX.XX.XXXXX@@@@@@@#&=&%%%&&#@@@X*;%#@@@@X--%##%#@@#&#@@@@@@@@@@@@#%%%%",
"###XX.XXO##@@@@@@@@@%#X@@@%&;.@@%%%#%&;$X@@@@%%&=$X@@@@@@@@@@@@@@@@@@@@#%%###%&&&&*=-%@@@X%+@@@@@@X&%@#=#@@@@#@@@@@@@@@@@@@@#%%#",
"%%%%%X#@@@@@@@@@@@@@;:$X@%%%;.@%%%%%%&=X@@@@#%###@@@@@@@@@@@@@@@@%%%@#%%#%%%%%%#%&+O$#@@@X#o@@@@@@@@@@+%@@@@@@@@@XX.X...X@@@@@#%",
"%%&%%%*#@@@@@@@@@@@@&&:#X%%%&X#%%%%%&=O@#%%#%#O#X@@@@@@@#%#%@@@@@%%%#@%%%%%%&%%#X%%O..X@@@$####%%%%##@@@@@@@@@@@X........X@@###%",
"%&%%%&:#@@@@@@@@@@@#%#&=X#%%&@%%%%%##OX@@###%&*#@@@@@@@%%%%%%@@@%%%%%##%%%%%&&%%#.O%#X@@@O*$%%%%%%%%###%#@@@@@@@@.......X@@@#%%@",
"@#-;=%;%@@@@@@@@@@@@@@%%##%%%@#%%&&&=$X@@@@@@@##@@@@@@%%%%%%%%@@%%%%%#.#&&%%#%;&&%.X#@@@@##+#%#%%%@&%%%%%@@@@@@@@@@@XX@@@@@@#%%%",
"%&.X=<,$@@@@@@@@@@@@@@#%%##%%@@@@@#&:*X@@@@@@@@@@@@@@#%%%&;%%%#@%%%%%#XX&*%%%@#-&&#X.X@@@X*:-%.=%@.;##%%@@@@@@@@@@@@@@@@@@@@%%%%",
"%;@X..%$@@@@@@@@@@@@@@@%%#@%%@@@@@%@@@@@@@@@@@@@@@@@@#&%%&=%%%%X%%%%%%@X.$=&%X.#*:O@@@@@@@@@@@O:%X*%.-%#@@@@@@@@@@@@#X#@@@@@@=&%",
"%;#@@@..@@@@@@@@@@@@@@@%#@@@@@@@@@@@@@@@@@@@@@@@@@@@@%&%%&&&%%%X%&%%&&X@@.o&=%o..O#@@@@@@@@@@.:%@.%@X%@X#X.X@@#O@@%%$oX@@@@@@X-;",
":>X@@@@@XXXX.XX..XX@@@@#@@@@@@@@@@@@@@@@@@@@@@@@@@@@X#=%&&#;%%%.@;%%&&X@@@X.+&&%@.->%#@@@@&#@X#@@@@@@@@@O*$X@$=oX%%&O+&@@@@@@@@$",
"$>X@@@.............@@@@@@@@@@@@@#@@@@#%%%##@@@@@@@@@@X&&=%#&&&.@@;%%;O@@@@@#X.-::&%&:&@@@%>;@@@@@@@@@@O$-&OO%&&O%%%#%-*.@@@@@@@#",
"#.@@@X............X@@@@@@@@@X#%%%%@@%%%%%%%%#@@@@@@@@X#-&X%==#.#X&;;%.@@@@@@@##;%%%%%&&@@;%;%@@@&&@@@##&#%#%%%#%%%##%;OO#@@@@@@@",
"##@@@X............@@@@@@@@O$;&%%%#%@%%%%%%%&;@@@@@@@@@.%#X=*O.@@@O;$.X@@@@@@@@@%;%%%%%%#@%%%;@@;<;@@@@#%##%%#@#%%@%%%&&&&=#@@@@@",
"#@@@@@XX.......XXX@@@@@@@X$=%%%%##%#%%%%%%=&:&@@@@@#%@@..XXX.#@@@X..O@@@@@@@@@@@%;=%%%%#@%%%%@=;#;@@@@%%#%%%@@@%@%%%%%&&&+X@@@@@",
"O@@@@@@@@@@XX@XXXXXXXXX@X%&%%%%#@%%%@%%%&;&&>,@@@@@#%%@X@@X@@@@@@@X@@@@@@@@@@@@@@#&%%%%%@%%%@@&%@&@@@@#%%%@@@@@@@%%%%&%XX@@@@@@@",
"#@@@@@@@@@@@@@..........#-;::;%#%%%%@%#%%&:;.$%@@@@#%%@@%@@@@%&%#@@@@@@@@@@@@@@%>;%%%##@@%%%@#%%@@@@@@@%#@@@@@@#@%###X@@@@@@@@@@",
"@@@@@@@@@@@@@@@XX.......X@#@@X#;%%%%@%%##%&:;O@@@@@%%#@%%%@@%@%%&;&@@@@@@@@@@@@@%&&=&%%@@%%@@%%%@@@@@@@@@@@@@@@#=&.X@#@@@@@@@@@@",
"#@@@@@@@@@#%@@@@@@@@@@@@@@@@#.:&%%%#@@%#X#%&:%@@@@@%%#@%%%@%@%%%&:;@@@XXXXXXXXX#@#@@@@@@@##@@%%#@@@@@@@@@@@##@#&%#.@@@@@@@#@@@@@",
"@@@@@@@@@@#&%@@@@@@@@@@@@@@@X$:&%%%@X@%%O.#%=%@@%%#%&@%%%%@%%%%%&#@@@@..........@@@@@@@@@@@@@#%@@@@@@@@@@@#.XX%&%#.O@@@###%X@@@@",
"#@@@%%%##@@#&=&&@@@@@@@@@@@X.:%%%%%@.@%%%..#&%@@#;%=&@%%%@@%%%&%;&@@@@@XX.X.X.. .@@@@@..oX..#@@@@@#@@@@@@%&#.X#&%@XX@%%%%&*.#@@@",
"@@@%%%%%%%#%%&<,#X@@@@@@@@@.#=%%%#@@.X#&&@..#%@@@::;%@%%%%#%%%%%%;=@@@@@@@@X@X.O%X@@@.o$#OOOX@@@@@@@@@@@@@=%#.X%%#@X@%%%&:.O@@@@",
"@@@%%%%%%%%&=-=#X@@@@@@X@#@X@##@@@@@.X#&=#@XX#@@@>:%@@=%%%@@&%%%%%;&@@@@@@@@@.+:;X@@.X&:$.&&.@@@@@@@@@@@@@=;%%XO%#@@%%%%:%X@@@@@",
"@###%%%%&%&&%XOO@@@XXX....@@@@@@@@@@X.%&%@@@@@@@@%@@@@&=;&@@&=%%%&%:#@@@@@@@X.=&-%@@o&&*##;;X@@@#@@@@@@@@@%:=%%#%%#@%%%&=X%%%#@@",
"@%%%%%%%%%%&=;-&#XX.. .  .X@@@@@@@@@X.;&@@@@@@@@@@@@@@#;:%@@@=;%%=::$.X#@@@@X%=%&&@X#%%*#%&*%X@@@@@@@@@@@=$%:=&%%%%@%%%#%&&=&;*X",
"#%%&;#%%%%%%%&,,oXX. . .. .@@@@@@@@#OO%@@@@@@@@##@@@@@@#%#@@@@&<#X@%%*..X@@@@&&%&=@X%%&&%&%%&@@@@@@@@@@@@%,;=&&%%%%#%%#%%%&%=$X#",
"%%%%;;#%%%%&&>:OX@@XX......@@@@@X#%%%%#@@@@@@@%#%@@@@@@@@@@@@@@%O...O&-#.X@@X=&%%&#X%&&&%&%%=@@@@@@@@@@@@@&;%&%%%%%####%%%&=#@@@",
"%%%%%>=@##&::#.O@@@@@@@@@X@@@XXO&&%%%%###@@@#%%#%#@@@@@@@@@@@@@@+-#..#&=&XX@O=%%%&#X%%%=&&%%&@@@@@@@@@@@@@#%%%%%%%%@@#%%%%%O#@@@",
"%%%%%&>;#X#@@X#@@@@@@@@@@@@@.&=&&&%%%%@%%@@#%%#%%%#@@@@@@@@@#XX@O;;%XX%%&=XXX&&%%%%@%%%%;%%%%@@@@@@@@@@@@@@@@@#%%%@@@@@@@@@@@@@@",
"%%%%X%&;:&OX@@@@@@@@@@@@@@@..X&*$#&%&##%@@#%%%@%%@@@@@@@@@@@@X.O@&&-%@%%%&&XX%%%%%%@@%%%=%%%%@@@@@@@@@@@@@@@@@@.....X@@@@@@@@@@@",
"%%%=.X#%&==$X@@@@@@@@@@@@@...... :&%##%%%@%%%%#%%X@@@@@@@@@@@@#.X&%&;%#%%%&#.#%%%%#@@%%%%%%%#@@@@@@@@@@@@@@@@@X.. ...X@@@@@@@@@@",
"&%:$.X@#@OOOXX@@@@@@@@@@@X...... :&$#%%O%%&#.&%-#@@@@@@@@@@@@@#%X.#%&&%%%%%&@#%%%%#@@%%%%%%%@@@@@@@@@@@@@@@@@@@X . .X@@@@@@@@@@@",
"=&<O X@@#X@X@@X@@XXX@@@@@X......O:o&#%#.=*+o.-=+X@@@@@@@@@@@X..#%OX%%%&%%%%%%@#%%%@@@@@%%%%@@@@@@@@@@@@@@@@@@@@@XXX@@@@@@@@@@@@@",
"&<=..@@@@@XX.X..X.....XX@X......o. *%#X Oo...o.X@@@@@@@@@@@@#+o.#%##%%%%%%%%%@#%%%#@@@@@@%@@@@@@@@@@@@@@@@@@@@@@@@@@@XXX@@@@@@@@",
"#:o X@@@@X..............X@X........&%...o.....X@@@@@@@@@@@@@@&;*$&%%##%%%%%###@@%@@@@@@@@@@@@@@@@@@@@@@@@@@@X@@@@@X.....X@@@@@@@",
"##Xo@@@@@@XX............X@X........O........oX#XXX@@@@@@@@#@@%;&&===&#######@@@@@@@@@@@@@@@@@@@@@@@@@XX..X...X@@@@...  ..X@@@@@@",
"#@@X@@@@@@@#@XXXXXX.X.XXX@@@X..............XX@X...X@@@@@@@&%@@&&%%%&&&%@@@@@@@@@@@@@@@@@@@@&.@@@@@@@@........X@@@@@...XX@@@@%@@@",
"#@@@@@@@@@@@@@@@@X#@@@@@@@@@@X...........X@@@@@@XX@@@@@@@@%&@@#%%%%%%%%@@@@@@@@@@@@@@@@@X@&<OX@@@@@@@XX.....X#@@@@@##@@@@@#:>.X@",
"X@@@@@@@@@@@@@@@@@@@@XXXXX@@@@@@XXXXXXX@@@@@@@@@@@@@@@@@@@&&@@@@%%%%%%%%%@@@@@@@@@@@@@@&OX>;*.@&.@@@@@@@@@@@@@@@@X+.X@#OX@=&:.X#",
"@@@@@@@@@@@@@@@@@@@@@X...X@@@@@@@@@@@@@@@@@@@@@@@@@@@@@@@#%;@@@@@%%%%%%%%@@@@@@@@@@@##X=++;%&.#;.@@@@@@@@@@@@@@@%::.#&,=.&%&$O:X",
"@@@@@@@@@@@@@@@@@#@@@@@@@@@@@@@@@@@#&&@@@@@@@@@@@@@@@@@@@#%&@@@@@@@@##@@@@@@@@@@@@@@:,+*$$&&@#%&OX@@@@@@@@@@@@@%:%$O:;;$#%%%#--.",
"#@@@@@@@@@@@@@@@#&=&%@@@@@@%@@:&@@@&<#@#@@@@@@@@@@@@@@@@@%%&@@@@@@@@@@#@@@@#@@@@@@@#;;:&-=%%##%%$X@@@@@XXX@@@@#;&#&:&%&&%%@%%%*.",
"&&#@@@@@#@@@@@@@@;>;<&@@@@;;%::%@@&:;@#&%@@@@@@@@@@@@@@#%%%X@@@@@@@@@@@@@@@@@@@@@@#&&&:;;;%%#%%%$.@@@@=:>+X@@@&&%@&&%##%%##%&&#*",
"=>*@@@#&;@@@#&::;&;&&;%@@=:%:;%@@%:%%#&;#@@@@@@@@@@@@@@%%##%%%;;:=@@@@@@@@@@@@@@@@@&&%&:;&%%#%%&*O@@&<<>>XX@@@&%##%%#@@%%@%%%%=&"
};
