/* XPM */
static char *result[] = {
/* columns rows colors chars-per-pixel */
"128 128 78 1 ",
"  c #000000",
". c #0F0605",
"X c #470809",
"o c #620001",
"O c #5C7700",
"+ c #5D7C00",
"@ c #617E00",
"# c #23245D",
"$ c #1E1D60",
"% c #841918",
"& c #BF231B",
"* c #86303A",
"= c #853C3B",
"- c #883E3E",
"; c #FF130D",
": c #FF1711",
"> c #FF1A15",
", c #FF1F19",
"< c #C12017",
"1 c #C0271E",
"2 c #FF221D",
"3 c #FF2923",
"4 c #FF3733",
"5 c #FF433F",
"6 c #FF5B56",
"7 c #5E8200",
"8 c #648600",
"9 c #688600",
"0 c #668800",
"q c #6B8900",
"w c #8BAD00",
"e c #8CB400",
"r c #8EBC00",
"t c #91B600",
"y c #92BC00",
"u c #98BF00",
"i c #8FC300",
"p c #92C500",
"a c #9AC400",
"s c #97C900",
"d c #9BCB00",
"f c #A0C700",
"g c #A2CE00",
"h c #A8CE00",
"j c #A5D100",
"k c #ABD400",
"l c #B0D700",
"z c #B3D900",
"x c #B9DD00",
"c c #DBD500",
"v c #DFD800",
"b c #DE8E65",
"n c #DB9668",
"m c #E7956B",
"M c #EA976C",
"N c #EC996E",
"B c #FF827F",
"V c #EAA473",
"C c #F5AF7B",
"Z c #F7B17D",
"A c #F8B27E",
"S c #312E8C",
"D c #005EAE",
"F c #0063B4",
"G c #FFB5B3",
"H c #FDD1B8",
"J c #D1D1D1",
"K c #FDCFCD",
"L c #F1D1CF",
"P c #F4DFDE",
"I c #FBDEDE",
"U c #F4E7E7",
"Y c #F5EFEE",
"T c #F9ECEC",
"R c #F6F4F4",
"E c #F8F0F0",
"W c #F7F8F8",
"Q c #FDFDFD",
/* pixels */
"rrriiigdjrriisdppssssssidgggsssiigssssdgiiiiiiiiiiiiiiiiissssssssdlriiiiiiiiiiiiiiipssssssssssssdrisdssjfriiiipsssspiiipissssssd",
"piiiidsdfeeiiisiipsssspigssssssissssssddiiiiiiiiiiiiiiiiippppssdsdgpeiiiiiiiiiiiiiiipssssipsssssdrpsssskriiirrrsppiiiiiiipsssspr",
"piiiissdaweiiiiiiipssspsdspssssissssssssiiiiiiiiiiiiiiiiiiiippyeerttrriiiiiiiiiiiiiipssssiisssssppssdsjfrsjlzkurpiiiiiiiiiiiiiii",
"iiiissssrriiiiiiiiipssspssssssiisssspiiiiiiiiiiiiiiiiiiissssssdjkjsiiiiiiiiiiiiiiiiiipssssiissssppssssjysgddgltiriiiiiiiiiiiiiii",
"piiisssssssssiiiiiiipsspssssssiissspiiiiiiiiiiiiiiiiiiisssssssssdzxjrpiiiiiiiiiiiiipiiisssiiisssissssjppssssjagkyriiiiiiiiiiiiii",
"iiiisssssppddgpiiiiiipipsissssiissiiiiiiiiiissiiiiiiiiiipssppiigjatrriidpiiiiiiiiiiiiiisspiiiiiiissssppsssssfgdgriiiiiiiiiiiiiii",
"piiipspppspeeeepiiiiiiipsisssiissiiiiiiiiiiidiiiiisiiiiiiiiiipdptiiiipkkiipsjdiiiiiiiiiiiiiiiiiiissspipsssssdssdeiiiiiiiiiiiiiii",
"piiiissssdssprrriiiiiiiiiisiiiiiiiiiiiiiiiisdiisdkdiiiiiiiiiipiiiiiiijjarpsdgrriiiiiiiiiiiiiiiiiipsiiipsssssssgpriiiiiiiiiiiiiii",
"iiiisssssssssppiiiiiiiiiiiiiiiiiiiiiiiiipprsdisgdsiiiiiiiiiiiiiiiiiiddsypsddyeepiiiiiiiiiippdiiiiiiiiisssssssddriiiiiiiiiiiiiiii",
"piiipsssssdsddriiiiiiiiiiiiiiiiiiipipiisiepspyssdsddiiiiiiiiiiiiiiiidssissgueeiiiiiiiiiiiirdkiiiiiiiiipsssssssyriiiiiiiiiiiiiiii",
"iiiiipssssssfgpiiiiiiiiiiiiiiiiiiiiisiiseyssssssdsdpriiiiiiiiiiiiiipdssssdsetddspiiiiiiiiiigjiiiiiiiiiissssspiriiiiiiiiiiiiiiiii",
"yriiiiiipssyyfapiiiiiiiiirrrreeiiiipsisirssssssdspsiiiiiiiiiiiiiiiissspddstsddgkjpiiiiiiiiidsiiiiiiiiiiissspiriiiiiiiiippiipiiip",
"eiiiiiiiiisdpeeiiiiiiireeeeeeeeeripssssspssssssdpierooooooooooooooooooooooooooooldiiiiiiiirssiiiiiiiiiiiiiiiriiiiiiiiipsrisuripk",
"iippiiiiipdgjrriiiiiiiiirrreeeerrissssipsssssdjkpiygooooooooooooooooooooooooooooeeiiiiiiiirissiiiiiiiiiiiiiiiiiiiiiiiijarpgeisgg",
"pssfaerpiiiyuepiiiiiiiiiiiiiiiiiiisssiipsppsjdddiisgooooooooooooooooooooooooooooeeriiipssssrpspiiiiiiiiiiiiiiiiiiiiipsdtygarpdke",
"sddfpreeeriirriiiiiiiiiiiiiiiireeiiiiiipppssdkdipsdsooooooooooooooooooooooooooooiiiiijjddddspssiiiiiiiirrrrrrerriiipssdpsgepsddt",
"ssttrreriiiiiiiiiiiiiiiiiiiiiiiiiiiissssssssdsipoooo;;;;;;;;;;;;;;;;;;;;;;;;;;;;oooooooossssspiiiiiereeeeeeeeeeeiiissssspppsssss",
"sddgktriiiiiiiiiiiiiiipipipiiiiiiiiisssssspiiissoooo;;;;;;;;;;;;;;;;;;;;;;;;;;;;ooooooooupiiiiiiiieeeeeeeeeeeeeriiiisppppsssssss",
"pppsapirreeeereeeeeerisssssssiiiiiiisssssdjksiiioooo;;;;;;;;;;;;;;;;;;;;;;;;;;;;ooooooooddssppiiiireeeeeeeeeeeeiiiiiiiiipsssssss",
"iiyriireeeeeeeeeeeeeriisssssssspiiiiiisssdjsipssoooo;;;;;;;;;;;;;;;;;;;;;;;;;;;;oooooooosssssssiiiireeeeeeeeerpiiiiiipriiiipiiii",
"iirryrrreeeeeeeeeerriiiisssssssssiiiiiiissiioooo;;;;;;;;;;;;;;;;;;;;;;;;;;;;;;;;;;;;;;;;oooopspiiiiiirrrrriipiiiiiipgdrpipriiiii",
"ipsggepiirrrrrrrriiiiiiiisdsssssdpiiiiiiiiiioooo;;;;;;;;;;;;;;;;;;;;;;;;;;;;;;;;;;;;;;;;ooooiiiiiiiiiiiiiiiiigrriiisddesjgriiiii",
"ssdjriiiiiiiiiiiiiiippppppsjjgddddiiiiiiiiiioooo;;;;;;;;;;;;;;;;;;;;;;;;;;;;;;;;;;;;;;;;ooooriiiiiiiiiiiiiiisdariissppsddfriiiip",
"sddyiiiiiiiiippiiipppssssssssdsdjjiiiiiiiiiioooo;;;;;;;;;;;;;;;;;;;;;;;;;;;;;;;;;;;;;;;;ooooegpiiiiiiiddriiisdkeipssssssjariiiss",
"ppiiiiiiiiiiipsspissssssssssisptruyiiiiiiiiioooo2,>2;;;;;;;;;;;;;;;;;;;;;;;;;;;;;;;;;;;;oooouxjiiiiiiigkarppssjrissssssjgtiipipp",
"prripsssiiiiissssipsssssssssiysseeriiiiiiiiioooo2,2>;;;;;;;;;;;;;;;;;;;;;;;;;;;;;;;;;;;;ooookkjpiiiipidskurpssdtpssssddgyiisspsp",
"karpssssssiipsssspydsssssddsseepsiriiiiiiiiioooo>>22;;;;;;;;;;;;;;;;;;;;;;;;;;;;;;;;;;;;ooooxsspiiiiiispdgepsdspssssspyrpiippsss",
"piissssssspiissssseysssssijdssrepiiiiiiiiiisoooo222>;;;;;;;;;;;;;;;;;;;;;;;;;;;;;;;;;;;;oooodsspiiiiiiipsdsisssissdssdapriiiirpp",
"pipsssddsssiisssssrrsddssppjddpieriiiiiiooooWWYYWWTT;;;;;;;;;;;;;;;;;;;;;;;;;;;;;;;;;;;;&&&&ooooiiiiiiiisspisssiiippssjlyiiiiiii",
"pissssjdssspidsssdrrtdgssprpjjsiiriiiiiiooooWWYYQWTT;;;;;;;;;;;;;;;;;;;;;;;;;;;;;;;;;;;;&&&&ooooiiiiiiiipssppssiiiiipjdrriiiiiii",
"iiddssdjssspidssddyiieagdseeygapiiiiiiiioo>;GGGG44WWII;;;;;;;;;;;;;;;;;;;;;;;;;;;;;;;;;;&&&&ooooiiiiiiiipssiipsiiiiiiriiiiiiiiii",
"pydssdddsssprgsdsdyiiyepjdyeeeysiiiiiiiioo;>GGGG44WWII;;;;;;;;;;;;;;;;;;;;;;;;;;;;;;;;;;&&&&ooooiiiiiiiirppirrrrriripiiiiiiiiiii",
"irddsjpddsstpddssgtiiiireaddprrxjiiiooooUU;>6622;;RYII;;;;;;;;;;;;;;;;;;;;;;;;;;;;;;;;;;&&&&    ireeeeeeeeeeeeeeeeeeeerriiiiiiii",
"prpjsgisdssrisdsdgtpiiiiyeuzkjijjjiiooooUU>>6632;;YRIU;;;;;;;;;;;;;;;;;;;;;;;;;;;;;;;;;;&&&&    eeeeeeeeeeeeeeeeeeeeeeeeeriiiiii",
"pirggsydsdurppkdjpeiiiiiirrksddpsgjiooooYY>>;;22;;EYTE;;;;;;;;;;;;;;;;;;;;;;;;;;;;;;;;;;&&&&    eeeeeeeeeeeeeeeeeeeeeeeeeriiiiii",
"iirpjypjgaerirgkderiiiiiiiisjsdsssdpooooYE>>;;23;;RREE;;;;;;;;;;;;;;;;;;;;;;;;;;;;;;;;;;&&&&    reeeeeeeeeeeeeeeeeeeeeerpppiiiii",
"pirrpepgueriiysaeeiiiiiiiiiidjss    ;;55EE3366BB;;RRYR&&;;;;;;;;;;;;;;;;;;;;;;;;;;;;&&&&&&&&    iiiiiiiririiirryipspiipsssssssii",
"iiirereeeriiireeriiiiiiiiiiiidjs    ;;55EY3366BB;;RRRE&&;;;;;;;;;;;;;;;;;;;;;;;;;;;;&&&&&&&&    iiiiiiirreeeetgdsssppissssssssji",
"spirririiiiiiiriiiiiiiiiiiiiiiss    ;;;;TU:;KKWW>>WWLL&&;;;;;;;;;;;;;;;;;;;;;;;;;;;;&&&&&&&&    iiiiieeeeeeeagssssppspsssssddgkj",
"sspippiiiippiiipiiiirirriiiidkgs    ;;;;TT;;KKRW>>WWLL&&;;;;;;;;;;;;;;;;;;;;;;;;;;;;&&&&&&&&    iiiieeeeeetfgdddsppssspsssdgjadl",
"sspisspiisssddsreeeeeeeeeeridjds    ;;;;ER22IIRW>>WW11&&&&&&&&&&&&&&&&&&&&&&&&&&&&&&&&&&&&&&    iiireeeeeeeuaafapdssssisspssglst",
"ssipsspiipsssdkueeeeeeeeeeripisd    ;;;;RR22IIWW>>WW11&&&&&&&&&&&&&&&&&&&&&&&&&&&&&&&&&&&&&&    iiieeeeeeeeeeeeefjssspipspyssdlp",
"dsisssppssssdfyeeeeeeeeeeeeiipii    ;;;;;;GGTTPP;;&&&&&&&&&&&&&&&&&&&&&&&&&&&&&&&&&&&&&&&&&&    iiireeeeeeeeeeeykdsssirpssyepsgd",
"jipsssppssssdfpeeeeeeeeeeeererii    ;;;;;;GGETPP;:&&&&&&&&&&&&&&&&&&&&&&&&&&&&&&&&&&&&&&&&&&    ddieeeeeeeeeeewgddssprerpsdrepdg",
"sisdsdrrsdssssgseeeeeeeeeewtaari    &&&&<<<<1<&&&&&&&&&&&&&&&&&&&&&&&&&&&&&&&&&&&&&&&&&&&&&&    llsreeeeeeeeewrspsppreeessgirerd",
"iipjsjyepdsssdsgateeeeeeeeygkgrp    &&&&<<<<<1&&&&&&&&&&&&&&&&&&&&&&&&&&&&&&&&&&&&&&&&&&&&&&    ppripeeeeewweeeeeeeeeeerpddiirii",
"piidjjeeeakssdkgkwweeeeeeegdsgpi    &&&&<<<<&&&&&&&&&&&&&&&&&&&&&&&&&&&&&&&&&&&&&&&&&&&&&&&&    spppipewwwwwwweeeeeerirtsdpiiiii",
"ipipjteeeeukkeeugsueeeeeethssdsi    &&&&<<<<&&&&&&&&&&&&&&&&&&&&&&&&&&&&&&&&&&&&&&&&&&&&&&&&    zxytirewwwwwwweeerriiiyrdsiiiiii",
"pssiiieeeeerptwweuddtweerpgdssdppsss    &&&&&&&&&&&&&&&&&&&&&&&&&&&&&&&&&&&&&&&&&&&&&&&&    XXXXkyrirewwwwwwwwrriirppssssiiiiiip",
"pssiiirreeeeefdueesdgaeyppdsssdrssds    &&&&&&&&&&&&&&&&&&&&&&&&&&&&&&&&&&&&&&&&&&&&&&&&    XXXXrriiirewwwwweerrtpddsssspipiiips",
"isspiiiireweesggpyssdddeiyssssdrpsss    &&&&&&&&&&&&&&&&&&&&&&&&&&&&&&&&&&&&&&&&&&&&&&&&    XXXXiiiiiiiiiirirpigddddsssspssiipss",
"psdriiiiiiyreussgdpdssddrrsssssiipss    &&&&&&&&&&&&&&&&&&&&&&&&&&&&&&&&&&&&&&&&&&&&&&&&    XXXXiiiiiiptriiiiiiissyfdsspssppssss",
"sgpiiiiiirispeisdddsdssdsrsssssiiiss----        oooo                                    %%%%XXXXiiiiiiraatiiiiiiipthdsppspasssru",
"fpriiiiipeeyssrissdspssssiissspiiiip----        oooo                                    %%%%XXXXiiiiiipgkgpiiiiiiiygysssstgdsptg",
"yiiiiiiipyayesspssssssssssisssiiiiii----        oooo                                    %%%%XXXXprrriipgdgguiiiiiippeadsprypipey",
"iiiiiiiippggfdgdspppsssppiiiipiiiiii----        oooo                                    %%%%XXXXiruerirddddgsiiiiiirysppiiiiiirp",
"iiiiiiiiiiddssdgddsiiippiiiiiiriiiir----AAAA$$$$JJJJHHHHHHHHXXXX%%%%XXXX%%%%%%%%%%%%%%%%XXXXiiiiirzlatessssddiiiiiiiipiyrrriiiii",
"iiiiiiiiiipssssssdssiiiiiirrreereeee----AAAA$$$$JJJJHHHHHHHHXXXX%%%%XXXX%%%%%%%%%%%%%%%%XXXXriiiirkjkjappssssiiiiiiiiyeuapsppiii",
"sspiiiiiiiiipssssssssiiiireeeeeeeeee----AAAASSSSQQQQHHHHHHHHXXXX%%%%XXXX%%%%%%%%%%%%%%%%XXXXkiiiiikdssdgsisssiiiiiiiisgdpssspdjd",
"ssssiiiiiiiiiipsssssssiiiireeeeeeeee----AAAASSSSWQQQHHHHHHHHXXXX%%%%XXXX%%%%%%%%%%%%%%%%XXXXriiiiidjssssssippiiiiiiirterpprigjds",
"ssssiiiiiiiiiiiiiiiiiiiiiiiiiirrriri----AAAASSSSWWWWAAAAHHHHXXXX--------XXXX%%%%%%%%XXXXpaaaapiiiiissssssssiiiiiiiireeajssiippss",
"ssspiiiiiiiiiiiiiiiiiiiiiiiiiiiiiiii----AAAASSSSWWWRAAAAHHHHXXXX--------XXXX%%%%%%%%XXXXssdxgiiiiiirrppssipssiiiiiieeaddsisjddss",
"piipssiiiiiiiipiiiiiiiiiiiiiirerrpii----AAAASSSSWWRRAAAAHHHHXXXX--------XXXX%%%%%%%%XXXXgdgsiipreeeeeyiissssspiiiiiiddssiggddsip",
"pissssiiiiiiiiiiiiiiiiiiiiiiiirldspi----AAAASSSSWWRRAAAAHHHHXXXX--------XXXX%%%%%%%%XXXXpiipiiireetssppsssssssiiiiipgspidjjdisss",
"pspsssiiiiiiirirrirriiiiiiiiyeepssii----AAAASSSSWWWWAAAAAAAA----HHHHHHHH==--*%%%%%%%XXXXiiiiiiiizkdssssspsssssiiiiireeyidsssssss",
"isipsiiiieeeeeeeeeeeeiiiiiiiighyisss----AAAASSSSWWWWAAAAAAAA----HHHHHHHH==--%%%%%%%%XXXXiiiiiiiiskkggdrsdsspssiiiiiiypspsssssssr",
"siipiiiiieeeeeeeeeeeriiiiiiiipsdssdd----AAAASSSSWWWWAAAAAAAA----HHHHHHHH===o%%%%%%%%XXXXiiiiiiiiiiipeesdsspsssiiiiiipkjdssspsspe",
"siiiiiiiiirreererriiiiiiiiiipyssssdd----AAAASSSSWWWQAAAAAAAA----HHHHHHHH===*%%%%%%%%XXXXiiiiiiiiiiieepgssrssdpiiiiiiiiisddyidsei",
"iiiiiiiiiiiiiiiippiiiiiiiiiirripssss                    AAAANNNNAAAACCVV----VNNN----iiiiiiiiiiiiiireagdsptjkdiiiiiiiipjkdppsdpii",
"iiiiiiiiiiiisiisssisiiiiiiiiieeerppp                    AAAANNNNAAAACCVV----NNNN----iiiipiiiiiiiiiipkdpiydldiiipiiiiiiiipiidsiii",
"iiiiiiiiissspisssspsispiiiiiisdsdssp..    .    .      AAAAAANNNNAAAACCnn----NNNN----piipssiiiiiiiiiirrrrrppiiiprispiiiiiiiisiiii",
"piiiiiiissssipssspssissspiiiiiipppsp..        .   .  .AAAAAANNNNAAAACCnn----NNNN----siiissspiiiiiireeeeeeeriirpddfpppspppiiiiiii",
"iiiisipsssssipssspsdssssspiiiiiiieeass              ACAAZAAAAAAA--------MMmm    pddssspissssiiiireweeweeweeeiiglgdsssssspiiiiiii",
"piiigsssssdpissdssddisssssiiisiiieejps              ZZAAZZAAAAAA--------MMmm    tgsspspisssssiiieeewweewwwwerrrruassspipiiiiiiii",
"iiiijsssspppissddgjsissssssssjsiirrjgdpp----AAACAAAAZZAAZZCVAAAA------o-bbbb    ygssssssssdsspiieeewewweeeeeirggsssppppiiiiiiiii",
"piiskspspriipdjjdkdiidjddjdgjjdiiiijdiii----AAAAAAAAZZAAZZZGAAAA------==bbbb    udsspssddjdssjiieeweewewweeiiiiddddssssppiiiiiii",
"piisdpsjspiiskjpjgiiiijkgkgiiiiiiiiipiiiiiii----------------NNNNVNNN----    piirygsspssjggldsjiiirreerrriiiiiiiisdsiyssppiiiiiii",
"iiiiiidkpiiissiiiiiiiiipsssiiiiiiiiiisrisyri----------------NNNNVVNN----    iiipegssissgshazksiiiiiiiiiiiiiiiiiisiiisdpiiiiiiiii",
"iiisddsiiriiiiiiiiiiiiiiiiiiiiiiiiipgarsfris----------------NNNNNNNN----    iiiiefprssdgtgtakiiiiiiiiiipiiiiiiipspiidspiiiiiiisk",
"rpsdjiiiiiiiiiiiiiiiiiiiiiiipiiiiipddepgpisd----------------NNNNNNNN----    iiiirusrugjdediriiiiiiiiipdsiiiispisspiidsiiiiiiidkk",
"pssgyeeiiiiiiiiiiiiiiiiiiiiiiiiiisssssssyssdspsdau%%;;;;$$FFFFFFFFFF%%%%    iiiirriiekkpepiiiipriiirukdsssipssppssiissiiiiiisjss",
"ssgywtpiiiiiiiiiiiiiiiiiiiiiiiiiipssspppssssssssss%%;;;;$$FFFFFFFFFF%%%%    iiiiiiiirppiiiiiisspppiiiypsssspsssrfdiiiiiiiiipsssp",
"dfytsggdsiiiiiiiiiiiiiiiiiiiiiiiiiiipipsssssssspss%%;;;;$$FFFFFFFFFF%%%%    ssssppiiiiiiiiiyraasssiprasssssysssrujssiiiiiiiissps",
"dpassddjldiiiiiiiiiiiiiiiiiiiiiiiiiiriipiiiipiiiir%%;;;;$$FFFFFFFFFF%%%%    sssssssiiiiiiiiippppiiirkdssssstdssprsksiiiiiiisssps",
"psspsddapriiiiiiiiiiiiiiiiiiiiiiipgdrissiiiiiiiiyu##;;;;$$FF$$$$;;;;;;;;    sssdsssspiiiiirddsspiiiygdspssirfdsipidpiiiiiiipsssd",
"spipyreeeeriiiiiiiiiiiiiiipjyiiiidspydggeiiiiiipsj##;;;;$$FF$$$$;;;;;;;;    pdgddssddpiiirfjsppiiirggsppspiipdpiiiiiiiiiiiipssss",
"ppiirerrypiiiiiiiiiisprpiisdgepisssssdjariiiissdda$$;;;;$$FF$$$$;;;;;;;;    spsdddfgjsiiirsuiiiiiiydsppjsiiiipiiiiiiiiipiiiipssp",
"sssspppriiiiiiiiiiiijkarisssjeissssssdgriiiissppii$$;;;;$$FF$$$$;;;;;;;;    ssspssuyapiiiiyrpiiyiiiirpppiiiiiiiiirrereeeriiiiips",
"ssssssfpiiiiiiiiiiiiddjprsssdepsssssdgyrissspppuri$$FFccvvFF$$$$;;;;;;;;%%%%dsspypsteeiiipsppspssssppiiiiiiiiiiireeeeeeeeriipsis",
"pddssdkpiiiiiiiiiiipppdgrpssdisssssspriiipissdfpri$$FFccvvFF$$$$;;;;;;;;%%%%dddspeyspriiitffssssssdsppssiiiiiiiiieeeeeeeriiiissi",
"ppgkgsjsiiiiiiiiiiiiipssspsssipsssddgfriiiiiiiiipi$$FFccvvFF$$$$;;;;;;;;%%%%psjdssrryiiiipptpspsssiasssssiiiiiiiiiirriiiiiiissss",
"sdergxxaiiiiiiiiiiiiiisssipdsiiiiipdkariiiiiiiiiir$$FFccvvFF$$$$;;;;;;;;%%%%sppgdgiyeriiirgkgstgspegppspiiiiiiiiiiiiiiiiiiiipsss",
"sjireeapiiiiiiiiiiiiiipssiissiiiiisiiiiiiiiiiiii$$$$FFFFFFFF$$$$;;;;;;;;FFFF    fkypiiiiiiiiirygstdsehspiiiiiiipiiiipryiiiiiigds",
"sjpiiieeiiiiiiiiiiiiiiispiiiiiiiiiiiiiiiiiiiiiii$$$$FFFFFFFF$$$$;;;;;;;;FFFF    eyppiiiiiiiiirksiesirsiipyeriiiyiissaeiiiiiiirgj",
"klriiiiirrrrreererriiiipiiiiiiiiiiiiiiiiiiiiiiii$$DDFFFFFFFF$$$$;;;;;;;;FFFF    iegkspiiiidpirpiiiiiiiirufsypagyrssduudriiiiiipa",
"alriiieeeeeeeeeeeeeiiiiiiiiiiiiipiiiipsssspiiiii$$DDFFFFFFFF$$$$;;;;;;;;FFFF    kdddkdiiisljiipiiiiiiiyagdytssdtssspsjfriiiiiipy",
"peiiireeeeeeeeeeeeeiiiiiiiiiysssssiisssssssspiii$$FFFFFF    QQQQQQQQ    FFFF    sssssddiijsjsiiiddiiiipdsspssppssppssjurpiiiiiii",
"ppiiireeeeeeeeeeeriiiiiiiirajssssspisssssssdgiii$$FFFFFF    QQQQQQQQ    FFFF    jssssssiisssgiijxjiiiissppsssiississsddddgsiiiii",
"piiiiirreeeeeeerriiiiiiiiragssssppspssssssjdkdii$$FDFFFF    QQQQQQQQ    FFFF    sjdddsspissssigjsjiiiisppsspiiisisssssddsutiiiii",
"yiiiiiiiiiririrrrrrrrrrirsddssspisssisssdjddlzpi$$DDFFFF    QQQQQQQQ    FFFF    ipdsssssissspidsidiiiipssspiiiiiissssdsrriiiiiii",
"piiiiiiiiiiiiieeeeeeeeeepgjkjjspssssissssskjtdsi$$DFFFFF    JJJJJJJJ    FFFF    ljsssppiisssipssiiiiiipspiiiiiiiispppriiiiiiiiii",
"piiiiiiiiiiiiiirreeeeeeeyipiirpkssssipspssdkgrii$$FDFFFF    JJJJJJJJ    FFFF    sdggddsiissiisssiiiiiiiiiiiiiiisjaeriiiiiiiiiiii",
"iiiiiiiiiipsiiiiiiiriiiipiiipekdssspiispepsdkpii$$FFFFFF    JJJJJJJJ    FFFF    iiiiiiiiipiiisspiiiiiiiiiiipyipdsseiiiiiiiiiiiii",
"piiiiiiiiipdsiipiiiiiiiiiiiirakssssirissyepsgdii$$FFFFFF    JJJJJJJJ    FFFF    iiiiiiiiiiiiipsiiiiiiiiiiiperisdsperiiippssriiii",
"iiiisssppiipdgddiriiiiiiiiirejdssspreipsseeydsii$$DDFFFFFFFF        FFFF    +OOOeiiiiiretreepiiiiiiiiiiiisdperpdsirripsssddepiii",
"iiissssssssssgxlsriiiiiiiiieyjssspiierssdirepsii$$DDFFFFFFFF        FFFF    7+O@priiietaseytriiiiiiiiiiiiigspersspirssssdjtrprii",
"iiissssssssdgggpriiiiiriiiirisiiiiiirtsdgiprriii$$$$FFFFFFFF        FFFF    7O8qjyiirtdhsrgdriiiiiiiiiiiiigjssryspiissssksyiiiii",
"ipppssssssddsrtiiiiireeeeepiiiiiiiiiresdsiiiiiii$$$$FFFFFFFF        FFFF    7Oqqjsirtsdgpyjgriiiiiiiiiiiiipkjsspssiissssgrssssii",
"issdssssssddgjjdirreeeweweriiiiiiiiirejdiiiiiiii7777    ****************    +0q8ddirudsdpdddsriiiiipiiiisdaakgsspsspsssspddgdjdy",
"pssdjpsssssssdxztrreweeweweiiiiipiiipysiiiiiiiip7777    ****************    7q88sgirssddpddsgiiipiiiiiiiiszjgddsssspsspssdsddfrp",
"ssssjgpsssssdlhtriirreeeeeeiiiiirpsssspiiiiiippp8777    ****************    7q88sdpysssgsdssdiiiiiiiiiiiiidjsdssssspsipsssdguiii",
"ssssslgippdkkptyiiiiiiiiiriiirepddsssspppiiipsss0777    ****************    7q88ddprssddddssdiiiiiiiiiiiiipssssssssiipsssssriiii",
"sssssdljprpirrpiiiiiiiiiiiiiragdddsdssispiipssps88777777                qqO8+088sssisssdjssssiiiiiiiiiiiiiiiiipsssiiiiiiiiiiiiii",
"ssssrsdgkdtyiiiiiiiiiiiiiireerdfdpdssppspipsspis87777777                800O+808sspipsssgssssiiiiiiiiiiiiiiiiiieeeeeriiiiiiiiiii",
"ssdgerssdgjsriiiiiiiiiiiiieeeeeewjddsissspsssspd87777777                8008+888sssipsssdssspiiiiiiiiiiiiiiiiireeweeeeiiiiiiiiii",
"sskawriippytrriiiiiiiiiiiieeeeeewkdapssyassseddg87777777                88887788ssiiiissssssiiiiiiiiiiiiiiiiiiieeeweriiiiiiiiiii",
"jdxteriiririiiiiiiririiiireeeeeetkyasspegfatehguriiiiiiiiiiireessptsssdssssdpissssiiiipsssspiiiiiiiiiiiiiiiiiiiireriiiiiiiiiiiii",
"dxgeeiiiiirrereeeeeeeerrireeeeeeetwgspeetteeeteriiiiiiiiiiiiiutepsppssssspsssipsssiiiiiipiiiiiiiiiiiiiiiiiiiiiiiiiiiiririiiiiiii",
"pkteriiiireeeeeeeeeeeeeerieeeeeeeewdpreeeeeeeeriiiiiiiiiiiiiidjgadssppsssssppiiippiiiiiiiiiiiiiiiiiiiiiiiiiiipiiiireeweeriiiiiii",
"pprtiiiiipreeeeeeeeeeeeeriieeeeeeeeyeeeeeeeetrprrriiiiiiiipiisjsdgggdsipppppiiiiiiiiiiiiiiiiiiiiiiiiirreereeeriiiieeeeewerpiiiii",
"piiiiiiiiiipirrrrereerrriiiieeeeeeeeeeeeeeerrireeeriiiiiiisiiigsssddddiiiiiiiiiiiiiiiiiiipideiiipiiiieeeeeeeeriiiirrereriiiispii",
"piiiiiiiiiiiiiiiiipiiiiiiiiiirreeeeeeeeeeriiiiiirriiiiiiiisgiipsssssdsspiiiiiiiiiiiiiiiiridxtriiiiiiirreeeeerpiiiiiriiiiiipjleri",
"iiiiiiiiiiiiiiiiiiiiirrrrriiiiiirrrrrrriiiiiiiiiiiiiiiiiiisgiiipsssssssspiiiiiiiiiiiiiidtilggeideiiiiiiiiiiiiiiiiiueripurpgdkerp",
"riiiiiiiiiiiiiiiiiiiireeeriiiiiiiiiiiiiiiiiiiiiiiiiiiiiiiisgiiiiisssssssspiiiiiiiiiiiprgupjsdepjeiiiiiiiiiiiiiiisklepdzgedsdaykr",
"iiiiiiiiiiiiiiiiipiiiiiiiiiiiiipiiipdsiiiiiiiiiiiiiiiiiiissgiiiiiiiipppppiiiiiiiiiiikxugfadsipsdtiiiiiiiiiiiiiisksaykjjapssspggt",
"piiiiiiiiiiiiiiipdgdsiiiiiisiijdiiidxpipiiiiiiiiiiiiiiiiisssiiiiiiiiiiiiiiiiiiiiiiipggkdggssppssariiiiirytiiiipjspfkdsdsssisssge",
"gdppiiiiiiiiiiiiijljxdiiiijjplksiidkjppdsiiiiiiiiiiiiiipsssriiiiiiiiiiiiiiiiiiiiiipdddkjhgsspsssatiiipdllpriiidssiddsppssppssduf",
"gkfriiidjiippdkkjdjddksiidlilgspisksspdjpiiiiiiiiiiiiiisspipssjkkdiipiiiiiiiiiiiiiiddddkggsspdsdfriidxlllrriiissspsspiissidssdgs"
};
