/* XPM */
static char *result[] = {
/* columns rows colors chars-per-pixel */
"128 128 82 1 ",
"  c #000000",
". c #080605",
"X c #120C0A",
"o c #0D0D3A",
"O c #420001",
"+ c #540001",
"@ c #5E0204",
"# c #74070B",
"$ c #75090C",
"% c #7A0B0E",
"& c #7C0D11",
"* c #7F1213",
"= c #5A322B",
"- c #62362E",
"; c #5C7700",
": c #5D7B00",
"> c #617E00",
", c #0F1040",
"< c #811416",
"1 c #831619",
"2 c #861A1A",
"3 c #BC0400",
"4 c #8F241F",
"5 c #BE231B",
"6 c #8B2223",
"7 c #982E27",
"8 c #942E2D",
"9 c #86303A",
"0 c #873D3D",
"q c #883E3E",
"w c #FF2015",
"e c #5E8200",
"r c #638500",
"t c #698600",
"y c #668800",
"u c #6B8A00",
"i c #738E00",
"p c #749000",
"a c #799200",
"s c #7BA000",
"d c #7EAD00",
"f c #83AE00",
"g c #8BAD00",
"h c #85B700",
"j c #8CB400",
"k c #8EBC00",
"l c #91B600",
"z c #92BC00",
"x c #98BF00",
"c c #8FC300",
"v c #92C500",
"b c #9AC400",
"n c #97C900",
"m c #9BCB00",
"M c #A0C700",
"N c #A2CE00",
"B c #A8CE00",
"V c #A5D100",
"C c #ABD400",
"Z c #B0D700",
"A c #B3D900",
"S c #B9DD00",
"D c #D7D400",
"F c #DAD500",
"G c #DFD800",
"H c #E0D800",
"J c #DA8D65",
"K c #E09168",
"L c #EA976D",
"P c #EC996E",
"I c #F8B27E",
"U c #2D2A84",
"Y c #2B2A88",
"T c #312E8D",
"R c #0063B4",
"E c #B89280",
"W c #E7B8A2",
"Q c #FDCEB5",
"! c #FDD0B7",
"~ c #FDD1B8",
"^ c #C5C5C5",
"/ c #FEFEFE",
/* pixels */
"kkccccNmNkjvcnnvvnnnnnncmVNVnnnccVnnnnmVcccccccccccccccccnnnnnvnnmAzccccccccccccccccmnnnnnnnnnnnVhcnmnnVNjvcccvnnvnvcccvcvnnnnmm",
"vccccnmnNjjvccnccvmnnnncNnnnnnncnnnnnnmmccccccccccccccccccvvvnmmnnNbjcccccccccccccccnnnnncnnnnnnmcvnnnnCzkcvkkknnvcccccccvnnnvvc",
"vcccvnnmngjccccccccnnnnnmncnnmvcnnnnnnvncccccccccccccccccccvvvvjjjkjjccccccccccccccccnnnmccnnnnmbcnnnnVNknCAACzkvcccccccccccckcc",
"vkccvnnnkkcccccccccvnnvcnnnnnmccnnnnvccccccccccccvcccccvnnmnnnnVCVnvcccccccccccccccccvnnncccnvnncvnnnnNknmmnNAzkkccccccccccccvcc",
"ccccnnnnnnnnvcccccccnnncnnnnnnccnnnvcccccccccccccccccccnnnnnnnnvmASNkvccccccccccccccccvnnnccvvnvcnnnnNnbnnnnNbNCzkcccccccccccccc",
"vcccnnnnvvnmmVvccccccvcvncnnnvcvnnvccccccvccnvccccccccccvvnvvccNCnzkkkvncccccccccccccccvnvcccccvcnnnnncnnnnnNVnNkccccccccccccccc",
"ccccvnvvvvxkjjjvccccccccvcnnvccvvcccccccccccVccccnvccccccccccvnbkkcccvCCccvmVmcccccccccccvcccccccnnnvccnnnnnnnnNjvcccccccccccccc",
"vcccvnnnnnnnvzjcccccccccccnncccccccccccccccnmcccVVnccccccccccvccccccvVVbkvnnNkkvcccccccccccccccccvncccvnnnnnnnmvkccccccccccccccc",
"vcccnnnnnnnnnbccccccccccccccccccccccccccvcznncnVmvccccccccccccccccccnNnzvnnNzjlvcccccccccccvNcccccccccnnnnnnnmNkcccccccccccccccc",
"ccccvnnnnnmnnmkccccccccccccccccccccccccvckvnvznnnnmmcccccccccccccccvnnncnnmxjjccccccccccccknCcccccccccvnnnnnnmkkcccccccccccccccc",
"vccccvnnnnnnmNxcccccccccccccccccccccncvnjznnnnnnmnVcccccccccccccccvnnncnnmnjznnnvccccccccccVVccccccccccnnnnnvkkccccccccccccccccc",
"kkcccccvvnnzlNbcccccccckcchkjjkccccvncnvknnnnnnnnc3333333333333333333333333333NCVvcccccccccmncccccccccccnvnvckcccccccccvcccvcccv",
"jvccccccccvnbjjccccccckjjjjjjjjjkcvnnvnvvnnnnnnmvc3333333333333333333333333333mCAnccccccccknnccccccccccccccccccccccccccnjcnxkcnC",
"cccckvcccvmVVkccccccccccckjjjkkjccnnnnvvnnnnvmCCvc3333333333333333333333333333bzjjcccccccckcnncccccccccccccccccccccccvVbknNjcnVN",
"vnnMbjkccckzbjccccccccccccccccccccnnnvcvvvcnNmVmcc3333333333333333333333333333gjjjkcccnnnnnkvnvccccccccccccccccccccccnNzzmbkbnVj",
"nnNNvkjjjccckkcccccccccccccccckjjcccccccnnOOOO3333wwwwwwwwwwwwwwwwwwwwwwwwwwww3333OOOOVmmmnnnvvcccccccckkkkjkjkccccvnnnvnVjvnnmz",
"nnzzkkjkccccccccccccccccccccccccccccvnnnnmOOOO3333wwwwwwwwwwwwwwwwwwwwwwwwwwww3333OOOOZNnnnnnvcccccjjjjjjjjjjjjjvccvnnnnvvvnnnnn",
"nnnNCzkccccccccccccccccccvcvccccccccnnnnnvOOOO3333wwwwwwwwwwwwwwwwwwwwwwwwwwww3333OOOOzzznvcccccccjjjjjjjjjjjjjkcccvnvvvvnnnnnnn",
"bvvnbzckjjjjjkjjkjjjkcvnnnnnvvccccccvnnnnmOOOO3333wwwwwwwwwwwwwwwwwwwwwwwwwwww3333OOOOnNmnnnvvvccckjjjjjjjjjjjjkccccccccvnnnnnnn",
"cczkcckjjjjjjjjjjjjjkvvnnnnnnnnvcccccvOOOO3333wwwwwwwwwwwwwwwwwwwwwwwwwwwwwwwwwwww3333OOOOnnnnncccccjjjjjjjjjkvccccccccvccvccccc",
"ccjkvkkkjjjjjjjjjjkkccccnnnnnnnnnvccccOOOO3333wwwwwwwwwwwwwwwwwwwwwwwwwwwwwwwwwwww3333OOOOvvvnvccccccckkkckcvccccccvNmjvcvkccccc",
"cvnNNjvkcckkjkckkcvccccccmmmnnnnmvccccOOOO3333wwwwwwwwwwwwwwwwwwwwwwwwwwwwwwwwwwww3333OOOOcvccccccccccccccccvmkcccvnmnlnVVjccccc",
"nnmVkccccccccccccccvvcvvcvmNVVmmmmccccOOOO3333wwwwwwwwwwwwwwwwwwwwwwwwwwwwwwwwwwww3333OOOOcjkccccccccccvccccnNbzccvnnvnnmNkccccv",
"nmnzcccccccccvvvccvvvnnnnvvnnmmmVVcccc3333wwwwwwwwwwwwwwwwwwwwwwwwwwwwwwwwwwwwwwwwwwww3333kjjNvccccccvnnkcccnnCjcvnnnnnnVxkcccnn",
"vvcccccccccccvnnvcnnnnnnnnnvvnnkzxkccc3333wwwwwwwwwwwwwwwwwwwwwwwwwwwwwwwwwwwwwwwwwwww3333jjvSVcccccccVCbkvvnnNlvnnnnnnVNzccccvv",
"zvkcvnnnvccccnnnncvnnnnnmnnncknnjjkccc3333wwwwwwwwwwwwwwwwwwwwwwwwwwwwwwwwwwwwwwwwwwww3333jjZVVvccccccmnCbkvnnnzvnmnnmmmzkcnnnvx",
"CnkvnnnnnncccnnnnnknnnnnvNnnnkjbvckccc3333wwwwwwwwwwwwwwwwwwwwwwwwwwwwwwwwwwwwwwwwwwww3333gzSnnvccccccnvnBkcnnnvnnnnnnzkvccvvvnn",
"vcvnnnnnnnvccnnnnnkxnnnnnvVmnvjjnvOOOO3333wwwwwwwwwwwwwwww//////////////wwwwwwwwwwwwww3333OOOOnvccccccccnnnvnnnvnnnnnnbvcccccccv",
"vcvnnnmnnnnccnnnnnkjnmnnnvvVmmvcjkOOOO3333wwwwwwwwwwwwwwww//////////////wwwwwwwwwwwwww3333OOOOnvccccccccnnvcnnncccvvvnVZxccccccc",
"vcnnnnNNnnnvcmnnnnzkjNNnnvcvVVnccjOOOO3333wwwwwwwwwwwwww//////////////////wwwwwwwwwwww3333OOOOnvccccccccvnncvnnvccccnVmzkccccccc",
"vcnnnnmNnnnvcmnnnmzckjnNnnjjzNbvccOOOO3333wwwwwwwwwwwwww//////////////////wwwwwwwwwwww3333OOOOnvcccccccccnvvcvvcccccckcccccccccc",
"vkVnnmmmnnnvkNnnnNzcczjbNmzjjjznccOOOO33333333wwwwwwww//////ww//////ww//////wwwwww33333333OOOOnvcccccccckbvckkkkkckccccccccccccc",
"vkmnnVvmnnnzkmnnnVzccccjjmbmckkSVcOOOO33333333wwwwwwww//////ww//////ww//////wwwwww33333333OOOOvcckjjjjjjjjjjjjjjjjjjjjkkcccccccc",
"ckvVnNcnmnnkvnmnnmjvcccczjzSCVcVVVOOOO33333333wwwwwwww//////wwww//wwww//////wwwwww33333333OOOOvjjjjjjjjjjjjjjjjjjjjjjjjjjkcccccc",
"cczNNnzmnmxkcbCnVbjccccccckCmmmcnNOOOO33333333wwwwwwww//////wwww//wwww//////wwwwww33333333OOOOcjjjjjjjjjjjjjjjjjjjjjjjjjjkcccccc",
"vcjnVzvNNblzczNCNjkccccccccnVnmnnnOOOO3333333333333333//////wwwwwwwwww//////33333333333333OOOOckkjjjjjjjjjjjjjjjjjjjjjkkvvvccccc",
"vcckvjvNzjkccknbjjccccccccccmVmnnnOOOO3333333333333333//////wwwwwwwwww//////33333333333333OOOOccccccccckkccckkkbcvnvccvnnnnnnvcc",
"cccjjkjjjcccccjjkcccccccccccvnVnnnOOOO3333333333333333//////ww//ww//ww//////33333333333333OOOOccccccccckkjjjjzNnnnnvvvvnnnnnnnVc",
"nvcckckccccccczkcccccccccccccvnnnnOOOO3333333333333333//////ww//ww//ww//////33333333333333OOOOcccccccjjjjjjlbNnnnnvvnvnnnnnmbNCV",
"nnvcvvccccvvvcccccckcckkkcccnCNnnnOOOOOOOO33333333333333////ww//////ww////333333333333OOOOOOOOccccccjjjjjjlMNnmmnvvnnnvnnnnNNnNA",
"nnvcnnvcvnnmnnnkjjjjjjjjjjkcmVmnvcOOOOOOOO33333333333333////ww//////ww////333333333333OOOOOOOOccccckjjjjjjjbbbmbnmnnnncnnnnnNAbj",
"nncvnnvvcvvnnNCbjjjjjjjjjjkcvvqqq0OOOOOOOO3333333333333333//ww//////ww//33333333333333OOOOOOOOqqqqcjjjjjjjjjjjjgNVnnnvcvnnznnmAv",
"nncnnncvnnnnnbzjjjjjjjjjjjjckvqqqqOOOOOOOO3333333333333333//ww//////ww//33333333333333OOOOOOOOqqqqckjjjjjjjjjjjlCnnnnvkcnnzjvnNn",
"VvvnnnvvnnnnnNxjjjjjjjjjjjjkjkqqqq++++#$**OOOO333333333333333333333333333333333333OOOO&*$$++++qqqqvjjjjjjjjjjglCnnnnvjjkvnnkjbnN",
"ncnnnnzknnnnnnVnjjjjjjjjjjglbnqqqq++++#$&&OOOO333333333333333333333333333333333333OOOO&&$$++++qqqqbkjjjjjjjjjgknnnnckjgkvnVcjjkn",
"ccvCnCzjbmnnnnnVbjjjjjjjjjzNVVqqqqIIII&$##OOOO333333333333333333333333333333333333OOOO$&&%WIIIqqqqcccjjjjfggjjjjjjjjjjjkvmmccccv",
"vccmVNjjjnCnnbCNZgjjjjjjjjNmnVqqqqIIII&&##OOOO333333333333333333333333333333333333OOOO&&%&IIIIqqqqvccvjgggggggjjjjjjkckzmNcccccc",
"cvcvNzjjjjxCCjlxNbzgjjjjjzBnnNqqqqIIII&&%$@@&&OOOOOOOOwwwwwwwwwwwwwwwwwwwwOOOOOOOO&&++&&%&IIIIqqqqzkckjgggggggjjjkkkcvkkmccccccc",
"vnncccjjjjjkbjggjzNblgjjkvNnnnqqqqIIII*&%%@@&&OOOOOOOOwwwwwwwwwwwwwwwwwwwwOOOOOOOO&&+@&&%%IIIIqqqqkcjjggggggggkzczkvnnnnnccccccc",
"vnnccckkjjjjjNNzjjnnNbjzcxnnnnqqqqIIII$***@@##OOOOOOOOwwwwwwwwwwwwwwwwwwwwOOOOOOOO@+++&&22IIIIqqqqccvkjjggggjjkkzvmmnnnnvcvcccvn",
"cnnccccckjgjjnNNnvnnnmnzcvmnnnqqqqIIII*&**@@##OOOOOOOOwwwwwwwwwwwwwwwwwwwwOOOOOOOO+++@&&22IIIIqqqqccccccccckkccNNnmnnnnnvnnccvnn",
"vnnzcccccczjjznmNbvnnnmnkknnnnqqqqIIII&&&&<<&&EEEEOOOOOOOOOOOOOOOOOOOOOOOOOOOOEEEE66&&6677IIIIqqqqcccckzkcccccccnnzNnnnvnnbknnnn",
"nNvcccccvkcnvjcmnNnnnnnmvcvnnnqqqqIIII&&&&11&&EEEEOOOOOOOOOOOOOOOOOOOOOOOOOOOOEEEE66*&4477IIIIqqqqcccckbbzccccccccjBnnvvnbbnnnkb",
"bbkcccccckjznvccnnnnnnnnmvvnnnnccv    11%<6688~~~!OOOOOOOOOOOOOOOOOOOOOOOOOOOO~~~~1122&&<<    ccccccccvNCNkcccccckzCxnnnvlNmnvkN",
"zcccccccczblkvmvnvnnnnnnnvcvnnvccc    <<<%6688~~~~OOOOOOOOOOOOOOOOOOOOOOOOOOOO~~~~1122<*<<    ccckkcccvVmNBbvcccccvvjbnnvkzvccjz",
"cccccccccbNNNmmmnnvnnnnnvvcccvcccc    4446~~~~~~~~^^^^ooooOOOOOOOOOOOO,,,o^^^^~~~~~~~~2222    ccckxjkckmnnmNvcccccckznnccccccccz",
"ccccccccccmmmmmmmNnccvcccccccccccc    4444~~~~~~~~^^^^ooooOOOOOOOOOOOO,,,,^^^^~~~~~~~~1211    ccckACMjjnnnnmnvcccccccvczkkkccccc",
"ccccccccccvnnnnnnnnvcccccckkjjjjjjjjjjqqqq~~~~~~~~////YYYYEEEEEEEEEEEEYYYY////~~~~~~~~qqq0bkkcccckZNVCmbvnnnnvcccccccklxbnnvvccc",
"nnvcccccccccvnnnnnnnncccckjjjjjjjjjjjjqqqq~~~~~~~~////TTYYEEEEEEEEEEEEYYYY////~~~~~~~~qqqqASCcccccCmnnnmncnnnccccccccnNmvvnvvmVm",
"nnnnccccccccccvnnnnnnvcccckjjjjjjjjjjkqqqq~~~~~~~~////TTTY~~~~~~~~~~~~TTTT////~~~~~~~~qqqqbbkcccccmVnnnnnnvvvccccccckzjzvvccVVmn",
"nnnnvcccccccccvcvccccccccccccckkkkkcccqqqq~~~~~~~~////TTTT~~~~~~~~~~~~TTYY////!!~~~~~~qqqqnbbvcccccnnnnnnnnvccccccckjjbVmvccvnvn",
"nnnvccccccccvccccccccccccccccccccccccc    ~~~~~~~~////TTTTQ!~~~~~~~~~~TTYY////~~~~~~~~    NSVcccccckzvcbvvvvvccccccjjmmnvcmVmnnn",
"vccvvvccccccccccccccccccccccckjkcvcccc    ~~~~~~~~////YTTT~!~!~~~Q~~~~TTYY////~~~~~~~~    NnccvkjjgjjvccnnnnnvccccccnNnvcVVnmnvv",
"vcnnnnvccccccccccccccccccccccczZmnvccc    ~~~~~~~~////,TTT==!!!QQQQ~--TTTT////~~~~~~~~    cccccjjjznnvvnnnnnnncccccvNnvcmVVmvvnn",
"cnnnnncccccccccckckkcccccccczjjbnncccc    ~~~~~~~Q////TUTT==Q!!QQQQQ--TTTT////Q!~~~~~~    ccccccACmnmnnnnnnnnncccccckjkcnnnnnnnn",
"cncvvccccjjjjjjjjjjjjccccccccNNxcnnvvvccccqqqq~~QQ      ..==!Q!!QQQQ--XX      !Q~~qqqqvkccccccccnCVVVnznmnvnnnvccccckvnvnnnnnnnk",
"nccncccckjjjjjjjjjjjcccccccccbnnnnnnnnncccqqqq~~QQ     ...==Q!Q!Q~~~--XX      Q!~~qqqqbccccccccccccvjjbmnvvnnvccccckvCVNnnnznnvj",
"vccccccccccjjjjjkkcccccccccccknnnnnnnnnvccqqqq~~~!.         ========          !Q~~qqqqcccccccccccccjgbmnnkbnmvcccccccccvnNzcnnkv",
"ccccccccccccccccvvcccccccccckkcvnnnnnnncccqqqq~~~~          ========          QQ~~qqqqcccccccccccckjbVnnczNCmccccccccvVZmvvnnvkc",
"vccccccccccvvccnnnvvvcccccccckjjjbnvvnnvccYYYYqqqqPP..                      KKqqqqwwww        cccccvCmvvzmAnvcccccccccccvcvmnvcc",
"vcccccccvvnnvcnnnnvncvnccccccvmmnnnvnnnnccYYYYqqqqLP..                      KJqqqqwwww        ccccccckkcknvccccccvvccccccccncccc",
"cccccccvnnnncvnnnvnncnnvccccccccvvbvnnnvccYYYYqqqqPPLLQQ  . . ..........WWJJLL0qqqwwww        ccccjjjjgjjjkckkbmmNvvnvvvvccccccc",
"vcccncvnnnnnknnnnvnmvnnnnccccccccjjbnnnvccYYYYqqqqPPLLQQ. .. ...........WWJJLLqq00wwww        cckjjggjgjjfjjcvNCVnnnnnnnvccccccc",
"ccccVvnnnnnncnnmnmnmcnnnnncccncccjjVnn    wwwwYYYY    00qqLLLLPPPPPPPPqqqq    YYYYwwww////^^^^    gjjfjggjgjkkkkxbnvvvvvcccccccc",
"vcccCnnnnvvvcnnmmNNncnnnnnmnnVncckkVNm    wwwwYYYY    qqqqPPPPPPPPPPPPqqqq    YYYYwwww////^^^^    jjjjjgjgjjkjNNnnnnvnvccccccccc",
"vccvCmvnvcccvnVVmCNccnCmmVmVVVmccccVmc    wwwwYYYY    qqqqPPPPPPPPPPPPqqqq    YYYYwwww////^^^^    jfgjgjjjkccvvmmmnnnnnvcccccccc",
"vccnmcnVnvccnCVcVVccccVCVZNcccccccccvc    wwwwYYYY    qqqqPPPPPPPPPPPPqqqq    YYYYwwww/^//^^^^    kjkjkkkvccccccnnnvznnvvccccccc",
"vcccccmCzcccnncccccccccvvnvccccccccccn    wwwwYYYYRRRRYYYY555555555555YYYYRRRRYYYYwwww////^^^^    cccccccccccccvnvccnmvccccccccc",
"cccvVmccccccccccccccccccccccccccccvvNb    wwwwYYYYRRRRYYUY555555555555YYYYRRRRYYYYwwww////^^^^    cccvckccccvccvnvccmnvcccccccnC",
"kvnnVvccccccccccccccccccccccccccccvnmz    wwwwYYYYRRRRYYUT555555555555YYYYRRRRYYYYwwww////^^^^    ccknNnccccnncvnvccmncccccccnZC",
"vnnVzjjccccccccccccccccccccccccccvnnnb    wwwwYYYYRRRRYYYY555555555555YYYYRRRRYYYYwwww////^^^^    ckxCnnnnvvnnvvnnccvnvcccccnVnn",
"nnNzgzvvcccccccccccccccccccccccccvnnnn5555wwww    RRRRYYYYwwwwwwwwwwwwYYYYRRRR    5555        nvvvccckbnnnnvvnnkNncvcvcccccvnnnv",
"nmzlbNNmvccccccccccccccccccccccccccccc5555wwww    RRRRYYYYwwwwwwwwwwwwYYYYRRRR    5555        bnnncvkbnnnnnznnncxVnncccccccvnnvn",
"nbnnnnmVAncccccccccccccccccccccccccvvv5555wwww    RRRRYYYYwwwwwwwwwwwwYYYYRRRR    5555        vnccckCmnnnnnzmnnvkbCncccccccvnnnn",
"nnnvnnnbbzcccccccccccccccccvcccccvVmkc5555wwww    RRRRYYYYwwwwwwwwwwwwYYYYRRRR    5555        nvccvzVnnvnnckbnncccnncccccccvnnnn",
"nvcvbjjjjjkcccccccccccccccvVzcccvn    ////////    RRRRDDFFRRRRRRRRRRRRHHGGRRRR    vnncccckmNnvvccckNNnvnncccbmvvcccccccccccvnnnn",
"vvccjjkkkcccccccccccvvccccnmVjvvnn    ////////    RRRRDDFFRRRRRRRRRRRRHHGGRRRR    mNVncccknxcccccckmnkbNnccccvccccccccccccccvnnv",
"nnnnvvvccccccvccccccVCbkcvnnVjcvnn    ////////    RRRRDDFFRRRRRRRRRRRRHHGGRRRR    bzbvccckvlcccccccvccvvccccccccckkjjkjjkcccccvn",
"nnnnnnNcccccccccccccmmVbknnnmkvnnn    ////////    RRRRDDFFRRRRRRRRRRRRHHGGRRRR    nzjjcccznbvvvnnvnnvccccccccccckjjjjjjjjkccvvvn",
"nnnnnnCvcccccccccccvnvmVzvnnncnnnn    ^^^^^^^^RRRRRRRRRRRRRRRRRRRRRRRRRRRRRRRRRRRR    ccczMbnnnnnnnnvvvncccccccccjjjjjjjkccccnvv",
"vnNCNnVnccccccccccccccnnbcnnnvvvnn    ^^^^^^^^RRRRRRRRRRRRRRRRRRRRRRRRRRRRRRRRRRRR    ccccvznnvnnnvnnnnnncccccccccckkkccccccvnnn",
"nnjzNASbccccccccccccccvnvcvnnvcccv    ^^^^^^^^RRRRRRRRRRRRRRRRRRRRRRRRRRRRRRRRRRRR    ccckNCNnjNnvjNvxnnccccccccccccccccccccnnnn",
"nNzkjjnbcccccccccccccccnnccnnccccc    ^^^^^^^^RRRRRRRRRRRRRRRRRRRRRRRRRRRRRRRRRRRR    ccccccckxVvzbnjNnvccccccvvccccbkcccccccNnn",
"nCvcccjjcccccccccccccccnvvcccccccccccc        YYYYRRRRRRRRRRRRRRRRRRRRRRRRRRRRRRRR    ccccccckCnvjncknkvvkjkccczccnnxjccccccccBV",
"CAkcccccckcjjkjjjkcccccvcccccccccccccc        YYYYRRRRRRRRRRRRRRRRRRRRRRRRRRRRRRRR    ccccmvkzvcccccccccxMbkznNlcnnmxxmkccccccvb",
"bAkcccjjjjjjjjjjjjjccccccccccvcccvcccn        YYYYRRRRRRRRRRRRRRRRRRRRRRRRRRRRRRRR    hhcnANcccccccccczbVmzzbnnznnnvnNNkccccccvz",
"vjccckjjjjjjjjjjjjkcccccccccznnnnnccvn        YYYYRRRRRRRRRRRRRRRRRRRRRRRRRRRRRRRR    khcNnVncccnmccccbnvnvnnvvnnnvnnVxzcccccccc",
"vcccckjjjjjjjjjjjjcccccccczbVnnnnvvcnnnnyryyueeeee        RRRRRRRRRRRRRRRRRRRRRRRR    fdcnnnmccVSVccccvnvvnnncvnncvnnmnNmNnccccc",
"cccccckkjjjjjjjjccccccccckNNnnnnvvnvnnnnyyuyuueeee        RRRRRRRRRRRRRRRRRRRRRRRR    hdcnnnncVVnVccccnvvnnvcccncnnnnnmmnxkccccc",
"vkccccccckckkcckkkjkkjccknnnnnnvvnnnrrryyutyiaeeee        RRRRRRRRRRRRRRRRRRRRRRRR    rrvvccvvmnvmccccnnnnvccccccnnnnnnkkvcccccc",
"vcccccccccccccjjjjjjjjjjbVVCVVnnnnnverrrryiu>rreee        RRRRRRRRRRRRRRRRRRRRRRRR    recnkzcvnncccccccnvcccccccvvzvvccccccccccc",
"vcccccccccccccckjjjjjjjjkcvcckvVnnnneererryii:eeeeeryrerrr        RRRRRRRRRRRRYUYUuuyrrecvnccnnncccccccccccccccvNmjccccccccccccc",
"vcccccccccvnccccccccccccccccvjCmnnnveerr:rryireeeeeyreerrr        RRRRRRRRRRRRUUYUeeeeeekcvccnnvccccccccccccvcbmnnjzcccccccccccc",
"cccccccccvvmnccccccccccccckvkbCnnnnveerr:::ytreeereyyerrrr        RRRRRRRRRRRRUYUYeeeeeekkcccvnccccccccccvvjkcnmnvjkcccvvvnkcccc",
"vcccnnvvvccvmNmnvkccccccccccjVnnnnvc;eeyy:;eyreeruruyerrye        RRRRRRRRRRRRUYUUeeee::gkjjvccccccccccccvmvjkvnnckkvvnnnmNjcccc",
"cccnnnnnnnnnnmSSnkcccccccccjzVnnnvcc::ryte:;ereeeppieeyrrrerryyryuUUYYUUUUUU,U    eee:;rfszkkccccccccccccvVnvjknnvckvnnnmCjzcccc",
"cccnnnnnnnnmNNNbkccccvkcccckcvvccccc::rytee:ereeeaieeeuyryeeyrrrrrUUTT,TTTTTTTX   ee::tufsmnkcccccccccccccVVnnzznvccnnnnCbkccccc",
"cvvvnnnnnnmmnkkzcccckjjjjjcccccccccc::ryreeeeeeeereeeeyuuueeuurryuUUYTTTTTT,TT..  e::yyu>rNNkkccccccccccccvCVnnnnncvnnnnmznnnvvc",
"cnnnnnnnnnnnVCNmvkkjgjjgjgkcccccvccc::uueeeeeeeeeeeeeeeipreeeuuyruUUUYUUUUUUUU    e:>yrteymmvcccccccccvccNmbCNnnnnvvnnnnnnNNmVNk",
"vnnnVnnnmnnnnnSAlkkjjjfjgjjccccccccc:ereeeeeeeereeeeeeeereeeeeuar:    99999999    r:yyyteukkNcccccccvccccnAVNnmnnnnvnnvvnnnnmMkc",
"nnnnVmnnnnnnmCCzkcckjkjjjjjccccckvnnyreeeeeeeerereeeeeeeeeeeeeer>:    99999999    e:rrrurykkNcccccccccccccmVnnnnnnnvvvnnnnnVxccc",
"nnnnnANzvvmCCblkcccccccckckcckkvmmnnnnvveeeeerrrreeeeeeeeeeeeeee>u   .99999999    eerrrummnvmccccccccccccccnnnnnnnnvcvnnnnnkcccc",
"nnnnnnCCbkzckkccccccccccccccjmNmnnnnnnvneeeeryeryeeeeeeeeeeee::eru    99999999    reryyyVnnnncccccccccccccccccvnnncccccvcccccccc",
"nnnnznmNCmzzcccccccccccccccjjzbNnbmnnnvnreerrrerreeeeeeeeeeee::::uuure        ryryeerrrrNnnnnvcccccccccccccccccjjjjjkccccccccccc",
"nnnNjkvnnNNnzcccccccccccccjjjjjjgCnnnvnnrerrrrrrreeeeeeeeeeeeer;:rryur        ryeyeeeyyrnnnnvccccccccccccccccckjjgjjjkcccccccccc",
"nnCbgkcvcczzkkccccccccccccjjjjjjgCmbvnnzbnnn;tyu>eeeeeeeeeeeeerr::ryyu        rryyeeccnnnnnncccccccccccccccccccjgjgjkccccccccccc",
"VmSzjkccckcckccvckckccccckjjjjjjzClbvnvjNNxl;iureeeeeeeeeeee:;:rr::rrr        rryyeeccvvnnncccvcccccccccccccccccjkkccccccccccccc",
"NSNjjccccvkjkjjjjjjjjjjkckjjjjjjlzgNnnkjlljjjljcccccccccccccvzljnnbvnnnnnnnnncvnnnccccccccccccccccccccccccccccccccccckkkcccccccc",
"vCljkcccckjjjjjjjjjjjjjjkcjjjjjjjjgmvjjjjjjjgjcccccccccccccccmNNnnnnvvnnnnnvncccnccccccccccccccccccccccccccccvcccccjjjjjkccccccc",
"vvkjcccccckkjjjjjjjjjjjjkvcjjjjjjjjzjjjjjjjjlzkkkkccccccccccvnVmmNNNmncvvvvvccccccccccccccccccccccccckkjjjkjjkccccjjjgjfjkcccccc",
"zcccccccccccckckkjkjkjkkkcckkjjjjjjjjjjjjjjkkckjjjkvccccccmvcvmnnnnmmmccccccccccccccccccccvmjcccccccckjjjjjjjkcccckjjkjkccccnccc",
"vcccccccccccccccccccccccccccckjjjjjjjjjjjkcccccckkccccccccnmccvnnnnnmmnvcccccccccccccccckkNSjkcvccccckjjjjjjkccccccvvccvccvVAjkc",
"vccccccccccccccccccccckkkccccccckkjkjkccccccccccccccccccccmmcccvnnnnmnnnvccccccccccccccmzkANNjcmjcccccccccccccccccxjkcvzkbNmCgkv",
"kcccccccccccccccccccckjjjkcccccccccccccccccccccccccccccccvnNcccccvnnnnnmnvccccccccccvvjVxbNnnjnNjcccccccccccccccnCCjvmABjmnmnzCk",
"cccccccccccccccccvccccccccccccccccccmncccccccccccccccccccvnVccccccccvnccccccccccccccBSzNbbmnvvnnzkcccccccccccccnCnnzCVVnznnnbNNj",
"vcccccccccccccccvmNmnccccccvccCmcccNSvcvcccccccccccccccccnmncccccccccccccccccccccccvNNZmNNnnvvnnbkcccccckkkcccvCnbNBmnmnnnvnnnNj",
"NnvcccccccccccccvVAVSmccccVVvCCnccnCVvnmnccccccccccccccvnnnhcccvcvccccccccccccccccvmmnCCVNnnvnnnblcccvNCAxkcccmnnvnnnvvnnvnnnmbM",
"NCNkcccmVcccvNCCNmVnmCvccVZvZVnccnCnnvmVvccccccccccccccvnvvnnnVVCmcccccccccccccccccmNnnCVNnnnnnnNjvvnAAAAkkcccnnvvnnvccnncnnnnNn"
};
