/* XPM */
static char *result[] = {
/* columns rows colors chars-per-pixel */
"128 128 77 1 ",
"  c #000000",
". c #0F0605",
"X c #470809",
"o c #620001",
"O c #5C7700",
"+ c #5D7B00",
"@ c #627E00",
"# c #1E1D60",
"$ c #841918",
"% c #BF231B",
"& c #86303A",
"* c #853C3B",
"= c #883E3E",
"- c #FF130D",
"; c #FF1711",
": c #FF1A15",
"> c #FF1F19",
", c #C12017",
"< c #C0271E",
"1 c #FF221D",
"2 c #FF2923",
"3 c #FF3733",
"4 c #FF433F",
"5 c #FF5B56",
"6 c #5E8200",
"7 c #638500",
"8 c #6A8600",
"9 c #668800",
"0 c #6B8A00",
"q c #718E00",
"w c #799200",
"e c #8BAD00",
"r c #8CB400",
"t c #8EBC00",
"y c #91B600",
"u c #92BC00",
"i c #98BF00",
"p c #8FC300",
"a c #92C500",
"s c #9AC400",
"d c #97C900",
"f c #9BCB00",
"g c #A0C700",
"h c #A2CD00",
"j c #A8CE00",
"k c #A5D100",
"l c #ABD400",
"z c #B0D700",
"x c #B3D900",
"c c #B9DD00",
"v c #DFD800",
"b c #DE8E65",
"n c #DB9668",
"m c #E7956B",
"M c #EA976C",
"N c #EC996E",
"B c #FF827F",
"V c #EAA473",
"C c #F5AF7B",
"Z c #F7B17D",
"A c #F8B27E",
"S c #312E8C",
"D c #0063B4",
"F c #FFB5B3",
"G c #FDD1B8",
"H c #D1D1D1",
"J c #FDCFCD",
"K c #F1D1CF",
"L c #F4DFDE",
"P c #FBDEDE",
"I c #F4E7E7",
"U c #F5EFEE",
"Y c #F9ECEC",
"T c #F6F4F4",
"R c #F8F0F0",
"E c #F7F8F8",
"W c #FDFDFD",
/* pixels */
"tttppphfhtrapdfpaddddddpfhhhdddppkddddfkappppppppppppppppddddddddfztpppppppppppppppaddddddddadddhtpdfddkgtppppaddddapppapddddddf",
"appppfdfhrrappdppafdddaphddddddpddddddddpppppppppppppppppaaaaddfdfhsrpppppppppppppppaddddpadddddfpadddfktppatttdaapppppppaddddat",
"appppddfdetppppppppdddddfdaddddpddddddddpppppppppppppppppppaaayrrrtrrpppppppppppppppaddddapdddddaaddddkgtdkzzlitpppppppppppppppp",
"ppppddddtttppppppppaddaaddddddapddddapppppppppppppppppppddddddfkzkdppppppppppppppppppadddappddddpaddddltdhfdkzyppppppppppppppppp",
"apppddddddddapppppppddaaddddddppdddapppppppppppppppppppdddddddddfxcktappppppppppppppppadddpppdddpddddhaaddddhshlyppppppppppppppp",
"ppppdddddaddfkappppppapddpaddapaddppppppppppdappppppppppaddaapphkdyttppfpppppppppppppppddapppppppdddddadddddgkfhrppppppppppppppp",
"apppadaaaaitrrrappppppppdpdddppadppppppppppafapppaappppppppppafayppppallppafkfpppppppppppapppppppdddapadddddfdffrppppppppppppppp",
"appppdddddddaurpppppppppppddppppppppppppappafapdhldppppppppppppppppppkkstadfhttppppppppppppppppppadpppadddddddfatapppppppppppppp",
"ppppdddddddddaappppppppppppppppppppppppaapuddadffappppppppppppppppppfhfuaddhyrtpppppppppppaafpppppppppddddddddktpppppppppppppppp",
"apppadddddfdfftpppppppppppppppppppppdppaaradaufddfffoooooooooooooooooooooooooooopppppppppptflppppppppppdddddddttpppppppppppppppp",
"pppppaddddddfhipppppppppppppppppppppdppdrtddddddfdfdooooooooooooooooooooooooooooapppppppppphkppppppppppddddddttppppppppppppppppp",
"utppppppadduygsappppppptpprttrtppppadpaatdddddfddpdpooooooooooooooooooooooooooookapppppppppfdpppppppppppdddaptpppppppppaappapppa",
"rpppppppppdfarrppppppptrrrrrrrrrtppddddaafdddddfaprtoooooooooooooooooooooooooooozdpppppppptddppppppppppppppptppppppppppdtpastpdl",
"ppaapppppafhktpppppppppptttrrtrrppddddaadddddfkloooo----------------------------oooooooopptpddppppppappppppppppppppppaksrakrpdkg",
"addgsrtapppuirapppppppppppppppppppdddppaaapdkfkdoooo----------------------------oooooooodddtaddppppppppppppppppppppppdhyahstafkr",
"dffgatrrrtppttpppppppppppppppptrrpppppppddddfkfpoooo----------------------------oooooooofffddpdppppppppttttttrttpppadddadhradffy",
"ddyyttrttpppppppppppppppppppppppppppddddddddfdpdoooo----------------------------oooooooodddddappppttrrrrrrrrrrrrappadddddaaddddd",
"dffhlytpppppppppppppppppaaapppppppppddddddapoooo----------------------------------------oooopppppptrrrrrrrrrrrrtpppadaapaddddfdd",
"aaadsapttrrtrrrtrrrrtpadddddapppppppdddddfkloooo----------------------------------------ooooaapppptrrrrrrrrrrrrtppppppppadddddda",
"pputpptrrrrrrrrrrrrrtpaddddddddappppppdddfkdoooo----------------------------------------oooodddpppptrrrrrrrrttappppppatpppppappp",
"ppttatttrrrrrrrrrtttpppadddddfddappppppaddppoooo----------------------------------------ooooaaappppppptttttppppppppahftaaatppppp",
"padhhratptttttttptpppppppffdddddfdppppppppppoooo1>1:------------------------------------ooooapppppppppppppppahtppppdffrdhhtppppp",
"ddfktpppppppppppppppapaapadkkhffffppppppppppoooo:1:1------------------------------------ooootpppppppppppppppdfstppddaadffgtppppa",
"dffupppppppppaapppppdddddddddfdfkkppppppppppoooo11:1------------------------------------oooorhapppppppfftpppdflrpaddddddksppppad",
"aapppppppppppaddapaddaddddddpddrysppppppppppoooo11:1------------------------------------ooooickapppppphlstpaddktpdddddfkhyppapaa",
"uptpadddappppddddpafddddddddptddrrrpppppooooEEUUEEYY------------------------------------%%%%ooooppppppfdlstafdfyaddddfffyppddaas",
"ldtaddddddpppdddddtffddddffddtrdaptpppppooooEERUEEYY------------------------------------%%%%ooooppppppdddhtadddaddddddutappaaadf",
"apadddddddappdddddradddddpkfddrrdpppppppoo;:FFFF33EEPP----------------------------------%%%%ooooppppppppdfspdddpdddddfsapppppppp",
"apadddfffddppdddddtrfffddaakffaartppppppoo;;FFFF33EEPP----------------------------------%%%%ooooppppppppddapdddpppaaadkzippppppp",
"apddddhfdddppfdddfttyfffdapahkspptppooooII;;5511--TUPP----------------------------------%%%%    ppppppppaddpaddpppppdkfutppppppp",
"ppfdddfkdddptfdddfaptrfhfdrrphsappppooooII;:5511--RTPP----------------------------------%%%%    ppppppppaddapadpppppptpppppppppp",
"auhddfffdddatkdfdhtpptrihfurrrydppppooooUU::--21--RTTR----------------------------------%%%%    pppppppptaattttttptppppppppppppp",
"ptffdkpffdfyaffddhypppprrfsfpttckpppooooUU::--12--TRUR----------------------------------%%%%    pttrrrrrrrrrrrrrrrrrrrrtpppppppp",
"atakdhpdfddrpdfdfhtapppptriclhpk    --44RR2255BB--TTRR%%----------------------------%%%%%%%%    rrrrrrrrrrrrrrrrrrrrrrrrrtpppppp",
"ppthhfufdfutpakfhsrppppppptldhfp    --44RY2255BB--TTTU%%----------------------------%%%%%%%%    rrrrrrrrrrrrrrrrrrrrrrrrrtpppppp",
"aptakuakhdyupuklfrtppppppppdkdfd    ----YI-;JJTE::EEKK%%----------------------------%%%%%%%%    rrrrrrrrrrrrrrrrrrrrrrttadpapppp",
"atttaragurtppudsrtppppppppppfkfd    ----YY--JJTT::EEKK%%----------------------------%%%%%%%%    pppptpptptappttupadappadddddddpp",
"apptrttrrtppppretppppppppppppfkd    ----TT11PPEE::EE<<%%%%%%%%%%%%%%%%%%%%%%%%%%%%%%%%%%%%%%    pppppppttrrrryhfdddaapaddfddddkp",
"aapptpptppppppatppppppppppppppfd    ----TT11PPEE::EE<<%%%%%%%%%%%%%%%%%%%%%%%%%%%%%%%%%%%%%%    ppppptrrrrryshfdddaadadddddffhkk",
"ddapaappppaaappptppptptttpppfkff    ------FFYRLL-;%%%%%%%%%%%%%%%%%%%%%%%%%%%%%%%%%%%%%%%%%%    pppprrrrrrygffffdaadddaddddkhfgz",
"ddapddapadddffdtrrrrrrrrrrtpfkfd    ------FFYYIL;-%%%%%%%%%%%%%%%%%%%%%%%%%%%%%%%%%%%%%%%%%%    ppptrrrrrrrissssdfddddpddaddhzsy",
"ddppdfappadddflsrrrrrrrrrrtppadf    %%%%,,,,%%,%%%%%%%%%%%%%%%%%%%%%%%%%%%%%%%%%%%%%%%%%%%%%    ppprrrrrrrrrrrrrgkdddapadatddfza",
"fdpdddpaddddfsyrrrrrrrrrrrrppapp    %%%%,,,,%%%%%%%%%%%%%%%%%%%%%%%%%%%%%%%%%%%%%%%%%%%%%%%%    ppprrrrrrrrrrrrulfdddatpdduradkf",
"kpadddpsddddffsrrrrrrrrrrrrtrtpp    %%%%,,,,%%%%%%%%%%%%%%%%%%%%%%%%%%%%%%%%%%%%%%%%%%%%%%%%    ffptrrrrrrrrryehfdddarrtadftradh",
"dpdfddttdfddfdkdrrrrrrrrrreysdup    %%%%,,,,%%%%%%%%%%%%%%%%%%%%%%%%%%%%%%%%%%%%%%%%%%%%%%%%    zzstrrrrrrrrretdddaptretddkptrpf",
"ppakdkursfdddddhsrrrrrrrrruhkhuptthf    %%%%%%%%%%%%%%%%%%%%%%%%%%%%%%%%%%%%%%%%%%%%%%%%    XXXXauppprrrrreerrrrrrrrrrrtaffppttp",
"ppphkkrrrslddflhlrerrrrrrrhfdkaprfff    %%%%%%%%%%%%%%%%%%%%%%%%%%%%%%%%%%%%%%%%%%%%%%%%    XXXXdaappareeeeeeerrrrrrtpttdhpppppp",
"pdpphtrrrrillrrihsirrrrrryhfdfdpyddf    %%%%%%%%%%%%%%%%%%%%%%%%%%%%%%%%%%%%%%%%%%%%%%%%    XXXXccytptreeeeeeerrrttppattfapppppp",
"addppprrrrrtsrreryfsyrrrtafddfhtaddd    %%%%%%%%%%%%%%%%%%%%%%%%%%%%%%%%%%%%%%%%%%%%%%%%    XXXXlytptreeeeeeeettpptaddddappppppa",
"addpppprrrrrrgfurydfhsrupsffddftdddd====        oooo                                    $$$$XXXXtpppttrreeeerrttyaffddddapapppad",
"pddppppptrerrdhhdaddfffrpudddddppddd====        oooo                                    $$$$XXXXppppppppppptptahffffddddaddppadd",
"addpppppppurriffhsaddffdttdddddppddd====        oooo                                    $$$$XXXXppppppaytpppppppddugfddadddpdddd",
"dhupppppppadarpdfffddddfdtdddddpppdd====.     ..oooo                                    $$$$XXXXpppppppssuappppppayjfdaadssdddts",
"fipppppparrtddtpdddddddddapddddppppd====ZZAA####HHHHGGGGGGGGXXXX$$$$XXXX$$$$$$$$$$$$$$$$XXXXtpppppppppthlhtpppppppuhudddayhffptg",
"uapppppppuiutadadaddaddddapaddpppppp====ZZCC####HHHHGGGGGGGGXXXX$$$$XXXX$$$$$$$$$$$$$$$$XXXXppppattppppkfkjsppppppaarsfaptuaparu",
"pppppppppdjhgfhffaaddddadppppppppppp====ZZCFSSSSWWEWGGGGGGGGXXXX$$$$XXXX$$$$$$$$$$$$$$$$XXXXppppptirttpfdffgapppppptudsppppppppu",
"ppppppppppffddfhffdappaapppppptppptp====FCZZSSSSWWWWGGGGGGGGXXXX$$$$XXXX$$$$$$$$$$$$$$$$XXXXppppptzlgtrsddddfppppppppapttttapppp",
"ppppppppppadddddfddapppppptttrrtrrrr====VCZZSSSSEETTAAAAGGGGXXXX========XXXX$$$$$$$$XXXXddsttpppptzkklddaddddappppppptyisdadpppp",
"ddapppppppppadddfddddpppptrrrrrrrrrr====AAZZSSSSEEEEAAAAGGGGXXXX========XXXX$$$$$$$$XXXXdfzclpppptlfdddgdpdddppppppppdkfadaaafkf",
"ddddppppppppppadddddddpppptrrrrrrrrr====AAAASSSSEETTAAAAGGGGXXXX========XXXX$$$$$$$$XXXXdssstpppppfkdddfddpdappppppptyrtaappkkfd",
"ddddapppppppppppppppppppppppppttttpp====AAAA#SSSEETEZAAAGGGGXXXX========XXXX$$$$$$$$XXXXsssssapppppadddddddappppppptrrshddppaadd",
"dddapppppppppppppppppppppppppppppppp====AAAASSSSEEEEAAAAAAAA====GGGGGGGG===o$$$$$$$$XXXXddfckppppppttaaadapaapppppprrfgfdpfkffdd",
"ppppaappppppppppppppppppppppptrtpppp====AAAASSSSEEEEAAAAAAAA====GGGGGGGG==*&$$$$$$$$XXXXhfhdpppttrrrrapaddddddppppppffdapfkdfdpa",
"dpddddappappappppppppppppppppptzfdpp====AAAASSSSEEEEAAAAAAAA====GGGGGGGJ==**$$$$$$$$XXXXpppappprrrysdaadddddddpppppahdapflkfpddd",
"adadddpppppppppttpttppppppppurraddpp====AAAASSSSEEEEAAAAAAAA====GGGGGGGG****$$$$$$$$XXXXppppppppxlfddddaadddddpppppttrtpfddddddd",
"adpadpppttrrrrrrrrrrrpppppppphhipddd                    AAAANNNNFZZZCCVV***=VMNN====dfapppppppppfklhkfydfddaddpppppptadadddddddt",
"aapapppptrrrrrrrrrrrtpppppppaifddddd                    AAAANNNNAAZZZCVV*==*NNNN====fldpppppppppppparrdfddadddppppptskkfddduddar",
"dpppppppppttrrrtttppppppppppppdddddf..  .     .      .AAAAAANNNNAAAAZZnn====NNNN====hfppppppppppppptrsffdtddfdpppppppppddfipfdtp",
"ppppppppppppppppadppppppppppttaadddd..        .     . AAAAAANNNNAAAAZZnn====NVNN====ppppppppppppppttihddtuhlfppppppppaklfapfdupp",
"pppppppppppapppdddpappppppppprerrsaapa              CCAAAAAAAAAA**=*****MMmm.   ppppppppappppppppppalhapufzfppppppppppppappfdapp",
"appppppppddddpdddaadpdappppppdfdfddadd            . CCAAAAAAAAAA**====**MMMm    dpppappadaappppppppppttppdppppptpaappppppppdpppp",
"ppppppppddddpadddaddpdddpppppppaaadafdff====VFZZAAAAZZAAAAAAAAAA==*=*=**bbbn    ppdddpppdddpppppptrrrrerrrtpptsffhaadaadpppppppp",
"ppppdppdddddpaddddffaddddpppppppprrsdddp====ZZZZAAAAAAAAFVCAAAAA==*=****bbbb    afddddppddddpppptrreereererrppfzkdfdddddappppppp",
"ppppkdddddfapddfdfffpdddddpppdppprrkdfdppppp==============**NNNNNNNN==*=    dfaauhdddddpdfdddppprrerrerrererttutisdadaappppppppp",
"apppkddddaaapddfffkdpdddddfddkdppttkhfpppppp================NNNNNNNN====    ffatuhddsddadddddapprrrerrrererrpthhdddaadpppppppppp",
"pppdkdddatppafkkflfapfkffkfkkkfppppkfppppppp================NNNNNNNN====    kappifddaddffkfdfkppterrererrrtpappfffdddddaappppppp",
"appdfadkdappdlkahhppppklkzfpppppppppappppppp================NNNNNNNN====    apppuffdpdfhhhcfdkpppttrtrtttpppppppdfdpudddpppppppp",
"ppppapflapppddpppppppppdaddppppppppppdtpaitpdlytprsh####----DDDDDDDD####    ppptrhfapddhdhiclapppppppppppppppppadpppdfappppppppa",
"pppdffapptpppppppppppppppppppppppppahstdgtpdkstptrhh####----DDDDDDDD####    pppargdtddfhyhrslppppppppppapppppapadappfdaappppppdl",
"tadfkappppppppppppppppppppppppppppaffyagstafhradhhht####----DDDDDDDD####    pppptsatihkfrdptpppppppptafdppppaapadappddappppppfzk",
"addhurrppppppppppppppppppppppppppdddddddtddddadfdiur####----DDDDDDDD####    ppppttpprllarapppppppppuilfdddaaddaaddppddppppppdkdd",
"ddhueraapppppppppppppppppppppppppddddaadddddddddfssr########--------####    pppppppptaapppppaddaaappptaddddadddtgfppppppppppfddp",
"dfuydhhfapppppppppppppppppppppppppppppadddddadddafga########--------####    ddddaappppppppputssdddpptsfddddudddpikddppppppppddad",
"fssdfffkzfpppppppppppppppppapppppppppppppppaapppptap----####--------DDDD####dddddddppppppppapasappathhdddddyfddptdldpppppppddddd",
"dddaaffsstppppppppppppppppaapppppakftpadppppppppuidt----####--------DDDD####dddfddddappppptsfddapppuhfdaddptsfdpppfapppppppadddd",
"dapauterrrtpppppppppppppppahtppppddayfkgrppppppafhsy----####--------DDDD####afhffdddfappptfhdappppthhdaadpppifappppppppppppadddd",
"aapptrtttpapppppppppapppppdfhtppddddddkstpppaddfhdta----####--------DDDD####adffffhhkappptdiapppppufdpskdppppapppppppppappppaada",
"ddddaaapppppppppppppklstpdddkrpddddddhktppppdaad####vvvv####--------########    ddiusspppautpppppppppppappppppppattrtrrrtpppppdd",
"ddddddhpppppppppppppffkstdddfradddddfhutpdddaaau####vvvv####--------########    uadyrrpppaddaaaddaddappppppppppptrrrrrrrrtppaaad",
"dfddddlspppppppppppaadfhtaddfpdddddditppppaddfgd####vvvv####--------########    arudattppygsddddddddaaadapppppppttrrrrrttpppaddp",
"aahlffkdppppppppppppppdddadddpadddfffgtapppppppp####vvvv####--------########    fdttaapptaausdddddaddddddppppppppppttttpppppdddd",
"dftuhxxsppppppppppppppdddpafdpppppaflftppppppppp####    WWWWWWWW----DDDDDDDD    ffatrtpppthlhdrhdarkasdappppppppppppppppppppaddd",
"dkttrrdsppppppppppppppaddapadpppppdppppppppppppp####    WWWWWWWW----DDDDDDDD    hjtpppppppppppukatgdrhfapppppppappppstppppppphfd",
"dkpapprrpppppppppppppppdappppppppppppppppppppp66####    WWWWWWWW----DDDDDDDD    ruiappppppppprldprdprdppairtppauppddsrpppppppthk",
"lztppppptttrtttrrttppppapppppppppppppppppppppp66####    WWWWWWWW----DDDDDDDD    athzdpppppfapuapapppppptugdtpshypddfiiftppppppas",
"sztppttrrrrrrrrrrrrpppppppppppppapppppddddappp66####    HHHHHHHH    DDDDDDDDDDDD    lfpppdzkpppppppppaudhfuydfftaddadkgtppppppau",
"srtpptrrrrrrrrrrrrrppppppppptdddddppddddddddaa66####    HHHHHHHH    DDDDDDDDDDDD    dffppkdkdppaffppppafddpddaadddaddkutpppppppp",
"apppptrrrrrrrrrrrtpppppppptskddddpdpdddddddf0666####    HHHHHHHH    DDDDDDDDDDDD    77dapdddkppkckppppadaadddppddpdddffhfhdppppp",
"ppppppprrrrrrrrttpppppppptshdddddadadddddfkfq966####    HHHHHHHH    DDDDDDDDDDDD    97dapddddpfkdkppppddaddapppdaaddddfffitppppp",
"appppppppppttptttttttttptdffdddapddapdddfkfd    &&&&DDDD        DDDDDDDDDDDDDDDD    97ddpdddppfdpfppppadddappppppddddfdttppppppp",
"appppppppppppprrrrrrrrrrshklkkdaddddpddaddlh    &&&&DDDD        DDDDDDDDDDDDDDDD    77appdddpaddpppppppdappppppppdaaatpppppppppp",
"appppppppppppppttrrrrrrrtpapatakddddpadaadfl    &&&&DDDD        DDDDDDDDDDDDDDDD    997666ddpdfdpppppppppppppppdksrtpppppppppppp",
"ppppppppppadppppppptpppppppparlfddddppddtaff    &&&&DDDD        DDDDDDDDDDDDDDDD    666666appddpppppppppppppupafddrppppppppppppp",
"appppppppaafdppapppppppppppptslfdddptpddurad    &&&&&&&&&&&&########DDDD########&&&&    66pppadppppppppppaartpdfdartpppaaadtpppp",
"apppdddaappafkffptpppppppppprkddddaprpadfrra    &&&&&&&&&&&&########DDDD########&&&&    O6rtpppapppppppppafartafdpttpddddfgrappp",
"pppddddddddadfxxdtppppppppprukddaapprtddfprr    &&&&&&&&&&&&########DDDD########&&&&    7+yutpppppppppppaphdartddaptadddflrupppp",
"pppddddddddfhkgstppppptpppptpaappppprydffaat    &&&&&&&&&&&&########DDDD########&&&&    9+fftppppppppppppphkddtudappddddlstppppp",
"paaaddddfdffdttppppptrrrrrappppppppptydffppp6666            00779070    &&&&&&&&&&&&    +7lkttppppppppppppazkddpddppddddfuddddpp",
"pddddddddddfhlkfattrrrerertppppppppptrkfpppp6666            6009700q    &&&&&&&&&&&&    77ffdtpppappppppafdsjkfddddadddddffhfkfu",
"ddddkdfddddddfxcyttrerrererppppppppaatdppppp6667            669w7+79    &&&&&&&&&&&&    69fdhpppppappppppdzkhffddddaddaaddfffgta",
"ddddkfddddddfllytppttrrrrrrppppptadddddppppp6677            6669+OO+    &&&&&&&&&&&&    79ddfpppppppppppppfkdfdddddadpadddfhsppp",
"dddddzfaaaflliruppppppppptppptraffddddapappp67679666666666666666706OO790            777099ddfppppppppppppadddddddddppaddddatpppp",
"dddddfzkduppttpppppppppppppptshfffddddadappp77677666666666666+6670q76699            777909dddppppppppppppppppaaaddpppppppppppppp",
"ddddtdfklfyuppppppppppppppprrtfgssfddaaddppd97679666666666666+O669907677            79ddkddddpppppppppppppppppptrrrrtppppppppppp",
"dddhrtadffkduppppppppppppprrrrrrrhfddpdddadd7779766666666666667+O7990767            67ddddddappppppppppppppppptrrrrertpppppppppp",
"fdlsetpaaauyttppppppppppptrrrrrrelfsaddusdddO9907666666666666667@O77709797976679796666ddddddpppppppppppppppppppreerrtppppppppppp",
"kfcyrtpptptppppaptttppppptrrrrrrylusddarhgiyOq0@+66666666666+O+776+7779777977677796666pddddppppppppppppppppppppptttppppppppppppp",
"fchrrppppattrrrrtrrrrrttptrrrrrryrehdatruyrrO@O666666666666667OO799+79797777766777ppppppaappppppppppppppppppppppppppptttpppppppp",
"alyrtpppptrrrrrrrrrrrrrrtprrrrrrrrrfarrrrrrrOO666666666666666900799976777767766667pppppppppppppppppppppppppptapppptrrrrrtppppppp",
"aaurpppppptrrrrrrrrrrrrrtpprrrrrrrrurrrrrrrrrtutttpppppppppppdkffghhfapaaddapppppppppppppppppppppppppttrrtrrrtpppprrreerrtpppppp",
"apppppppppppptptttrtrtttpppprrrrrrrrrrrrrrrtpptrrrtpppppppdappfddddfffapppppppppppppppppppafrpppppppprrrrrrrrtppppttrtrtppppdppp",
"pppppppppppppppppppppppppppppttrrrrrrrrrrttpppppttppppppppffppaddddddddapppppppppppppppptafxttpapppppttrrrrttppppppuappappalzrtp",
"appppppppppppppppppppttttpppppppttttttttppppppppppppppppppdhapppdddddfddappppppppppppppfyuzkgrpfrpppppppptppppppppirtpautphflrta",
"tpppppppppppppppppppptrrrrpppppppppppppppppppppppppppppppadhpppppddddddddpppppppppppaathiskdfrahrpppppppppppppppdllrafxhrfdfsult",
"appppppppppppppppapppppppppppppappppfdpppppppppppppppppppadhppppppppaaaaappppppppppplcihssffaadfutpppppppppppppdldsulkkdadddshhr",
"apppppppppppppppafhfdppppppdppkfppphcdpppppppppppppppppppdfdpppppppppppppppppppppppahhlfhhddpaddstppppptttppppakdaglfdffddpdddgr",
"ffapppppppppppppakzhxhpppplhazldppfkkppfdpppppppppppppppdddtppdppdppppppppppppppppaffflkkhddadddsypppdhlzstpppffdpffdadddaaddfsf",
"kzgtpppfkpppahllhfkffldppflazhdapdldddhkappppppppppppppddaaaadkkkfpppppppppppppppppffddlkhdddddfgtppfxxzzttpppdddpddaptadadddfhf"
};
