/* XPM */
static char *result[] = {
/* columns rows colors chars-per-pixel */
"128 128 49 1 ",
"  c black",
". c #000D00",
"X c #490707",
"o c #7B0C10",
"O c #5C7700",
"+ c #5D7B00",
"@ c #607E00",
"# c #1E1D60",
"$ c #0D2769",
"% c #152265",
"& c #841918",
"* c #BE221A",
"= c #86303A",
"- c #CF0703",
"; c #FF130D",
": c #5E8200",
"> c #638500",
", c #688600",
"< c #6A8900",
"1 c #738F00",
"2 c #799200",
"3 c #7FAD00",
"4 c #7EB200",
"5 c #8BAD00",
"6 c #8CB400",
"7 c #8EBC00",
"8 c #91B600",
"9 c #92BC00",
"0 c #98BF00",
"q c #8FC300",
"w c #92C500",
"e c #9AC400",
"r c #97C900",
"t c #9BCB00",
"y c #A0C700",
"u c #A2CE00",
"i c #A8CE00",
"p c #A5D100",
"a c #ABD400",
"s c #B0D700",
"d c #B3D900",
"f c #B9DD00",
"g c #EBA277",
"h c #00428B",
"j c #0052A0",
"k c #005CAA",
"l c #0063B4",
"z c gray82",
"x c white",
/* pixels */
"777qqqutu67qqrtqwrtrrrwqtuuprrrwqurrrrtpwqqqqqqqqqqqqqqqqrrrrrrrrts7qqqqqqqqqqqqqqqqrrrrrwrrwrrrp7qrtrrpu6wqqqwrrrrwqqqwqrrrrrrt",
"wqqqqtrtu66qqqrqqwrrrrwqurrrrrrqrrrrrrrrqqqqqqqqqqqqqqqqqqwwrrrtrtie6qqqqqqqqqqqqqqqrrrrrwrrrrrrt7wrrrta8qqq77qrwwqqqqqqqqrrrrw7",
"wqqqqrrte67qqqqqqqqrrrrrtrrrrrwqrrrrrrrrqqqqqqqqqqqqqqqqqqqqqw96676767qqqqqqqqqqqqqqqrrrrwqwrrrrwqrrrrpu7rpsda97qqqqqqqqqqqwqqqq",
"qqqqrrrr777qqqqqqqqwrrrqrrwrrrwqrrrrwqqqqqqqqqqqqqqqqqqqrrrrrrtpapwqqqqqqqqqqqqqqqqqqwrrrwqwrrrrqwrrrtu7rtttps997qqqqqqqqqqqqqqq",
"wqqqrrrrrrrrwqqqqqqqrrrqrrrrrrqqrrrrqqqqqqqqqqqqqqqqqqqrrrrrrrrrtsfu9wqqqqqqqqqqqqqqqqrrrwqqqrrrqrrrruwwrrrrpepa97qqqqqqqqqqqqqq",
"qqqqrrrrwwrttuwqqqqqqwqrrqrrrwqwrrqqqqqqqqqqrwqqqqqqqqqqrrrwqqqpae677qqtqqqqqqqqqqqqqqqwrrqqqqqqqrrrrrwrrrtrtutp6qqqqqqqqqqqqqqq",
"wqqqwrwwwr97666wqqqqqqqqwqrrwqqwrqqqqqqqqqqwtwqwqwwwqqqqqqqqqwrw7qqqqwaiqqwrptqwqqqqqqqqqqqqqqqqqrrrqqwrrrwrtrrt6wqqqqqqqqqqqqqq",
"wqqqqrrrrrtrw977qqqqqqqqqqrrqqqqqqqqqqqqwqqwtwqwtarqqqqqqqqqqqqqqqqqwppt7wrtu77qqqqqqqwqqqqqqqqqqwrwqqwrrrrrrru97wqqqqqqqqqqqqqq",
"qqqqrrrrrrrrrwwqqqqqqqqqqqqqqqqqqqqqqqqqwq9rrqeutrqqqqqqqqqqqqqqqqqqtur9rrtu866wqqqqqqqqqqqwtqqqqqqqqqrrrrrrrtt7qqqqqqqqqqqqqqqq",
"wqqqwrrrrrrrtt7qqqqqqqqqqqqqqqqqqqqqrqqwq7wrw9rrrttrqqqqqqqqqqqqqqqqtrrqrrt967qqqqqqqqqqqqqtaqqqqqqqqqwrrrrrrr97qqqqqqqqqqqqqqqq",
"qqqqqwrrrrtrtu9qqqqqqqqqqqqqqqqqqqqqrqqr69rrrrrrtrpw7qqqqqqqqqqqqqqwrrwrrte68ttrqqqqqqqqqq7ppqqqqqqqqqqrrrrrwq7qqqqqqqqqqqqqqqqq",
"97qqqqqwqrr98iewqqqqqqq7qq777777qqqwrqww7rrrrrrrwqrqqqqqqqqqqqqwqqqrrrrrrt9ruttapwqqqqqqqqqtrqqqqqqqqqqqrrrwq7qqqqqqqqqqqqqwqqqr",
"6qqqqqqqqqrre66qqqqqqq76656655667qqrrrrwwrrrrrrtwq6777qqqqqqqqqqqqqrrrrrrwrrtrtpstqqqqqqqq7rrqqqqqqqqqqqqqq7qqqqqqqqqqqe7qre7qra",
"7qq7qwqqqwtpp77qqqqqqqqqq7766777qqrrrrwwrrrrrtaawq9ueqqqqqqqqqqqqqqrrrrrrrrwwtr9667qqqqqqqq7rrqqqqqqqqqqqqqqqqqqqqqqqwpt6wu6qwuu",
"wrtue67qqq7996wqqqqqqqqqqqqqqqq7qqrrrqqwrwwrututqwrurqqqqqqqwqqqqqqwrrrrrwqww665667qqqrrrrr7wrwqqqqqqqqqqqqqqqqqqqqqqru89pe7wta6",
"rttuw7666qqqq7qqqqqqqqqqqqqqqq766qqqqqqwwwrrratwwrtr7qqqqqqqqqqqqqqqwrrwwwq76677qqqqqpptttrrrwrwqqqqqqq777777677qqqwrrrrrt6wrtt6",
"rr8777677qqqqqqqqqqqqqqqqqqqqqqqqqqqrrrrrrrrtrqwtt&&&&&&&&&&&&&&&&&&&&&&&&&&&&qqqqqqpfaurrrrrwqqqqq6766666666667wqqwrrrrrwwrrtrr",
"rttua87qqqqqqqqqqqqqqqqqwqwqqqqqqqqqrrrrrrwqqqwrtt&&&&&&&&&&&&&&&&&&&&&&&&&&&&rqqqqqw88w9wwqqqqqqq66666666666666qqqqrwwqwrrrrrrr",
"wwwreqw77667666776667qrrrrrrrqqqqqqqrrrrrtparqqqw6&&&&&&&&&&&&&&&&&&&&&&&&&&&&aqqqqq7etuterrwwqqqq7666666666666qqqqqqqqqwrwrrrrw",
"qq97wq766666666656667qqrrrrrrrrwqqqqqqrrrtprwwrreu&&&&&&&&&&&&&&&&&&&&&&&&&&&&swqqqqtsdurrrrrrrqqqq76666666667wqqqqqqw7qqqwqwqqq",
"qq67w776666666666777qqqqrrrrrrrrwqqqqqqwrr    &&&&;;;;;;;;;;;;;;;;;;;;;;;;;;;;&&&&    tutwqrrwwqqqqqq77777qqwqqqqqqwtu7wqw7qqqqq",
"qwrpu6wqq7777777q7qqqqqqqtttrrrrtrqqqqqqqq    &&&&;;;;;;;;;;;;;;;;;;;;;;;;;;;;&&&&    77wwqqqqqqqqqqqqqqqqqqwt6qqqqrtt6rpp6qqqqq",
"rrtu7qqqqqqqqqqqqqqwqqrqqwtuuuttttqqqqqqqq    &&&&;;;;;;;;;;;;;;;;;;;;;;;;;;;;&&&&    qqqqq67qqqqqqqqqqqqqqqrut7qqrrwwrttt7qqqqw",
"rtt9qqqqqqqqqwwqqqqqrrrrrrwrttttppqqqqqqqq    &&&&;;;;;;;;;;;;;;;;;;;;;;;;;;;;&&&&    qqqqq66uwqqqqqqqtt7qqqrti6wwrrrrrra0qqqqrr",
"wwwqqqqqqqqqqwrrwqrrrwrrrrrwwrr68eqqqq    &&&&;;;;;;;;;;;;;;;;;;;;;;;;;;;;;;;;;;;;&&&&    66efpqqqqqqqpat6wwrrp7qrrrrrtpu8qqqqww",
"9w7qwrrrwqqqqrrrrqwrrrrrrrrrq9rr666qqq    &&&&;;;;;;;;;;;;;;;;;;;;;;;;;;;;;;;;;;;;&&&&    66sppqqqqwqqtra07wrrt8wrrrrttt8qqrrrr9",
"ar7wrrrrrrqqqrrrrw7trrrrrttrr66wwq7qqq    &&&&;;;;;;;;;;;;;;;;;;;;;;;;;;;;;;;;;;;;&&&&    58frrwqqqqqqrwtu6wrrrwrrrtrw97wqqwwwrt",
"wqqrrrrrrrwqqrrrrr6wtrrrrqptrr76rqqqqq    &&&&;;;;;;;;;;;;;;;;;;;;;;;;;;;;;;;;;;;;&&&&    6etrrqqqqqqqqwrtrqtrrqwrrrrtewqqqqqqqq",
"wqwrrrttrrrqqrrrrr76ttrtrwwpttwq67qqqq&&&&;;;;;;;;;;;;;;;;;;;;;;;;;;;;;;;;;;;;;;;;;;;;&&&&7wrrrrqqqqqqqqrrwqrrrqqwwrwrps9qqqqqqq",
"wqrrrrutrrrwwrrtrt7q8tttrwqwppeqw6qqqq&&&&;;;;;;;;;;;;;;;;;;;;;;;;;;;;;;;;;;;;;;;;;;;;&&&&rrrrrwqqqqqqqqwrrwqrrqqqqqrpt99qqqqqqq",
"qwttrtturrrq7trrrt9q76tptr66qpt9qqqqqq&&&&;;;;;;;;;;;;;;;;;;;;;;;;;;;;;;;;;;;;;;;;;;;;&&&&trrrrrqqqqqqqqwrrqqwrqqqqqq7qqqqqqqqqq",
"w7trrtttrrrw7prrru9qq969ut96668rqqqqqq&&&&;;;;;;;;;;;;;;;;;;;;;;;;;;;;;;;;;;;;;;;;;;;;&&&&arrrtqqqqqqqqq7wwq77777q7qwqqqqqqqqqqq",
"w7ttruwttrr9qttrru8qqqq66tttw77fpq    ----;;;;;;;;;;;;;;;;;;;;;;;;;;;;;;;;;;;;;;;;;;;;----    rqq77666666666666666666667qqqqqqqq",
"q7wuruqtrre6qrtrtu7qqwqq768fapqppp    ----;;;;;;;;;;;;;;;;;;;;;;;;;;;;;;;;;;;;;;;;;;;;----    w766666666666666666666666667qqqqqq",
"wq7uut9trt97wwptue6qqqqqqq8arttqru    ----;;;;;;;;;;;;;;;;;;;;;;;;;;;;;;;;;;;;;;;;;;;;----    q666666666666666666666666667qqqqqq",
"wq6rp9wuue8wq9uat67qqqqqqqqrprttrr    ----;;;;;;;;;;;;;;;;;;;;;;;;;;;;;;;;;;;;;;;;;;;;----    q7756666666666666666666677qrqqqqqw",
"qqq7w6wu967qq7re67qqqqqqqqqqtprrrr    ----;;;;;;;;;;;;;;;;;;;;;;;;;;;;;;;;;;;;;;;;;;;;----    qqqqq7qqq797qqq977qwwwqqwrrrrrrwwq",
"wqq6676667qqqq667qqqqqqqqqqqqtprrr    ----;;;;;;;;;;;;;;;;;;;;;;;;;;;;;;;;;;;;;;;;;;;;----    qqqqqqqqq7766668utrrrrwwrrrrrrrrpq",
"wwqw7q7qwqqqqq97qqqqqqqqqqqqqqrrrr    ----;;;;;;;;;;;;;;;;;;;;;;;;;;;;;;;;;;;;;;;;;;;;----    qqqqqqq7666666euttrrwwrwrrrrrttuap",
"rrwqwwqqqqwqwqqwq7qqq777qqqqtaurrr    ----;;;;;;;;;;;;;;;;;;;;;;;;;;;;;;;;;;;;;;;;;;;;----    qqqqqq6666668uttttrwwrrrwrrrtuutts",
"rrwqrrwqwrrrttr766666666667qtptrrr    --------;;;;;;;;;;;;;;;;;;;;;;;;;;;;;;;;;;;;--------    qqqqq766666669ettewtrrrrqrrwrruse7",
"rrqwrrwqqwrrrtae66666666667qqwrttt    --------;;;;;;;;;;;;;;;;;;;;;;;;;;;;;;;;;;;;--------    qqqqq7666666666655uprrrwqwrw9rrtsw",
"rrqrrrwwrrrrtt8666666666666q7wqqqq    --------;;;;;;;;;;;;;;;;;;;;;;;;;;;;;;;;;;;;--------    rqqqq6666666666688atrrrw7qrr96wrut",
"pwwrrrwwrrrrtte666666666666767qqqq    --------;;;;;;;;;;;;;;;;;;;;;;;;;;;;;;;;;;;;--------    tpttq666666666666itrrrw667wrt769tu",
"rqrtrr97rtrrerpe666666666658t9wqq7    ----------------;;;;;;;;;;;;;;;;;;;;----------------    ttsse766666666667trrwq7657rruq767t",
"qqwprp96wtrrrrrpe6666666668pau7w77    ----------------;;;;;;;;;;;;;;;;;;;;----------------    te9qqqq6666655666666666676wttqqqqq",
"wqqtpp666eprreppa666666666utruwq6t    ----------------;;;;;;;;;;;;;;;;;;;;----------------    uttrqqqq655555556666667q78ttqqqqqq",
"qwqwp86666eaa66eit86666668ptttrq8t    ----------------;;;;;;;;;;;;;;;;;;;;----------------    ttfd89qq6555555556677qwq77trqqqqqq",
"wrwqqq666667e66568ut85667wtrrrXXXX&&&&&&&&--------------------------------------------&&&&&&&&XXXX7q765555555577qq9wrrrrwqqqqqqw",
"wrrwqqq666666ut968rtue67qettrrXXXX&&&&&&&&--------------------------------------------&&&&&&&&XXXXqqw666555666778wttrrrrwqwqqqwr",
"qrrqqqqq76566tuur9rrttt6q9rrrrXXXX&&&&&&&&--------------------------------------------&&&&&&&&XXXXqqqqqq9qq7qqwuutttrrrrwrrqqwrr",
"wrtqqqqqqq9668ttutwrrrte97rrrrXXXX&&&&&&&&--------------------------------------------&&&&&&&&XXXXqqqqw87qqqq7qqwr8ttrrqrrrqrrrr",
"ru9qqqqqqqwrw6qrrutrrrrtr7rrrr    gggg    --------------------------------------------    gggg    qqqq7ee7qqqqqqwq7itrwrererrr70",
"teqqqqqqw667wr7qrrrrrrrrrwqrrr    gggg    --------------------------------------------    gggg    qqqqquai7qqqqqqq8i9errr8uttq7u",
"8wqqqqqqq9e88rrwrrrrrrrrrwqwrr    gggg    --------------------------------------------    gggg    7qqqwutuueqqqqqqww6trrq7w9qq68",
"qqqqqqqqqruuututrqqrwrrrwwqqww    gggg    --------------------------------------------    gggg    9677wtrttuwqqqqqq78twqqqqqqw7w",
"qqqqqqqqqqttrrtuutrqqwwqqqqqqq    ggggXXXX        ----------------------------        XXXXgggg    sst86errrrtqqqqqqqqwq9777qqqqq",
"qqqqqqqqqqwrrrrrrrrrqqqqqq7776    ggggXXXX        ----------------------------        XXXXgggg    suautrwrrrrwqqqqqqq780errwwqqq",
"rrwqqqqqqqqqwrrrrrrrrqqqq76666    ggggXXXX        ----------------------------        XXXXgggg    atrretrqrrrqqqqqqqqrutwrwrwtpt",
"rrrrqqqqqqqqqqwrrrrrrrqqqq7666    ggggXXXX        ----------------------------        XXXXgggg    uprrrtrrwwwqqqqqqq7867wqqquptr",
"rrrrwqqqqqqqqqqqqqqqqqqqqqqqqq777q    XXXXooooXXXX                            ooooooooXXXX    qqqqqwrrrrrrrwqqqqqqq756tprrqqwwrr",
"rrrwqqqqqqqqqqqqqqqqqqqqqqqqqqqqqq    XXXXooooXXXX                            ooooooooXXXX    qqqqq77wwwqwrwwqqqqqq66tterqrpttrr",
"qqqqrwqqqqqqqwqqqqqqqqqqqqqqq7677q    XXXXooooXXXX                            ooooooooXXXX    w7766669qqrrrrrrqqqqqqttrrquuttrqw",
"rqrrrrwqqqqqqqqqqqqqqqqqqqqqqq7sur    XXXXooooXXXX                            ooooooooXXXX    q6668rtqrrrrrrrrqqqqqwurwqtpptqrrr",
"qrwrrwqqqqqqqq7q7q77qqqqqqqq766erwqqqq    XXXXooooooooooooooooooooooooooooooooooooXXXX    qqwqqqdatrrrrrrrrrrrqqqqq7667qtrrrrrrr",
"wrwwrqqq7766566666666qqqqqqqqiu97rrrww    XXXXooooooooooooooooooooooooooooooooooooXXXX    qqqqqqrppppt7rtrwrrrqqqqqq7wrrrrrrrrr7",
"rwqwqqqq7666666666667qqqqqqqq9trtrrrrr    XXXXooooooooooooooooooooooooooooooooooooXXXX    qqqqqqwqqq65etrrwrrrqqqqq7eaptrrr9rrw6",
"wqqqqqqqqq77676777qqqqqqqqqqqwrrrrrrrr    XXXXooooooooooooooooooooooooooooooooooooXXXX    qqqqqqqqq76ettr7rrtwqqqqqqqqqrrt9qtr7w",
"qqqqqqqqqqqqqqqqwwqqqqqqqqqq77qwrtrrrrrwqq    XXXXooooooooooooooooooooooooooooXXXX    qqqqqqqqwqqq77eurrw8uatqqqqqqqqwpatwqteqqq",
"wqqqqqqqqqqwwqqrrrqrqqqqqqqqq66679rwwwrwqq    XXXXooooooooooooooooooooooooooooXXXX    qqrqqqqqqqqqqwatww9tstqqqqqqqqqqqqwqqtrqqq",
"wqqqqqqqqwrrrqrrrrwrqrwqqqqqqrttrrrwrrrrqq    XXXXooooooooooooooooooooooooooooXXXX    qwrwqqqqqqqqqqq77qqwqqqqq7qwwqqqqqqqqrqqqq",
"qqqqwqqqrrrrqqrrrwrrqrrrwqqqqqqwwewwrrrrqq    XXXXooooooooooooooooooooooooooooXXXX    qqrrrqqqqqq7666656667qq7ettuwwrwrqwqqqqqqq",
"wqqqrqwrrrrr7wrrrwrtrrrrrqqqqqqqq66errrqqq....        XXXXooooooooooooXXXX        ....qqrrrrqqqq766556566566qwusurrrrrrrwqqqqqqq",
"qqqqpwrrrrrrqrrrrrttqrrrrrqqqrqqq66prtrqqq....        XXXXooooooooooooXXXX        ....rqrrrrrqqq66556665665677779errrwwqqqqqqqqq",
"wqqqarrrrwwwqrrutuprqrrrrrrrrprqq77pttqq44....        XXXXooooooooooooXXXX        ....rrrrtrrwqq666555666566q6tuttrwwwqqqqqqqqqq",
"wqqwarwrwqqqwtpptatqqtpttptppptqqqqpuqqq44....        XXXXooooooooooooXXXX        ....rttptrrpqq75665655667qqwwttttrrrrwqqqqqqqq",
"wqqrrwwpeqqqtapqpuqqqqpaustqqqqqqqqqwq    ;;;;llll##%#XXXXXXXXXXXXXXXXXXXX####llll;;;;    strpqqqq7676777qqqqqqqrtrq9rrrqqqqqqqq",
"qqqqwqtawqqqrrqqqqqqqqqwrrrqqqqqqqqq7r    ;;;;llll####XXXXXXXXXXXXXXXXXXXX####llll;;;;    efarqqqqqqqqqqqqqqqqqqrqqqrtwqqqqqqqqr",
"qqqrprwwq7qqqqqqqqqqqqqqqqqqqqqqqqqwe6    ;;;;llll####XXXXXXXXXXXXXXXXXXXX####llll;;;;    79aqqqqqqqqqqwqqqqqqqrrwqqtrwqqqqqqqrp",
"7wrrpwqqqqqqqqqqqqqqqqqqqqqqqwqqqqwr95    ;;;;llll####XXXXXXXXXXXXXXXXXXXX####llll;;;;    w7qqqqqqqq7wtrqqqqwrqwrwqqrrwqqqqqqtsa",
"wrrp867qqqqqqqqqqqqqqqqqqwqqqqqqqw    oooo;;;;llllllll####************####llllllll;;;;oooo    qqqqq79atrrrwqrrwwrrqqwrqqqqqqrpte",
"rrp766qwqqqqqqqqqqqqqqqqqqqqqqqqqq    oooo;;;;llllllll####************####llllllll;;;;oooo    wwwwqqq7errrrwrrr7urqwqwqqqqqqrrrq",
"ru88euutwqqqqqqqqqqqqqqqqqqqqqqq33    oooo;;;;llllllll####************####llllllll;;;;oooo    eerwqw7trrrrrwrrr79prrqqqqqqqwrrww",
"rwrrtttpstqqqqqqqqqqqqqqwqqqqqqq33    oooo;;;;llllllll####************####llllllll;;;;oooo    7qqqw7itrrrrr8trrw9earqqqqqqqrrrrr",
"rrrwwteee9qqqqqqqqqqqqqqqqqwqq    xxxxoooo;;;;    llll####;;;;;;;;;;;;####llll    ;;;;ooooxxxx    w9prrwrrq7terqqqewqqqqqqqrrrrr",
"rwqw9766667qqqqqqqqqqqqqqqwp7q    xxxxoooo;;;;    llll####;;;;;;;;;;;;####llll    ;;;;ooooxxxx    7iutwwrwqqwuwqqqqqqqqqqqqwrrrr",
"wwqq76777qqqqqqqqqqqrq7qqwrrp6    xxxxoooo;;;;    llll####;;;;;;;;;;;;####llll    ;;;;ooooxxxx    7er7epwqqqqwqqqqqqqqqqqqqqwwrw",
"rrrrwwwqqqqqqqqqqqqqpae7qwrrp6    xxxxoooo;;;;    llll####;;;;;;;;;;;;####llll    ;;;;ooooxxxx    qqqqwwqqqqqqqqq77776677qqqqqrr",
"rrrrrruqqqqqqqqqqqqqttpe7wrrt6    zzzzzzzz        llllllllllllllllllllllllllll        zzzzzzzz    rwwqqqqqqqqqqq7566666667qqqrqr",
"rtrtrrawqqqqqqqqqqqwrwtu9wrrtq    zzzzzzzz        llllllllllllllllllllllllllll        zzzzzzzz    rrwwwrwqqqqqqqq76666677qqqwrrq",
"qwuaurprqqqqqqqqqqqqqqrrrwrrtq    zzzzzzzz        llllllllllllllllllllllllllll        zzzzzzzz    wtrwrrwqqqqqqqqqq7777qqqqqqrrr",
"rt78uddeqqqqqqqqqqqqqqrrwqrrrq    zzzzzzzz        llllllllllllllllllllllllllll        zzzzzzzz    6pwetwqqqqqqqqqqqqqqqqqqqqrrrr",
"rp7766eeqqqqqqqqqqqqqqqrrqqrrqqqqq            kkkklllllllllllllllllllllllllllljkkk            9aw7yr6utqqqqwqqqqqqqqe7qqqqqqqutr",
"rpqwqq76qqqqqqqqqqqqqqqrrqqqqqqqqq            kllkllllllllllllllllllllllllllllkkkk            arw6rq7rqqq767qqqqqqrre6qqqqqqq7up",
"as9qqqqq77767776677qqqqwqqqqqqqqqq            kkkkllllllllllllllllllllllllllllkkkk            wqqqqqqqq79ie7qei87rrt9et7qqqqqqwy",
"ts7qqq6666666666666qqqqqqqqqqqqqww            lklkllllllllllllllllllllllllllllkkjk            qqqqqqqq9tpt87ett7rrrwepy7qqqqqqw7",
"967qq66666666666667qqqqqqqqq9rrrrrqqwrrr>>.   ####llllllllllllllllllllllllllll####    ,:qprprqqqttqqqqerrrqrrrrwrrwrrp97qqqqqqqq",
"wwqqqq666666666666qqqqqqqqqeprrrrwwwrrrt<>    ####llllllllllllllllllllllllllll###%    ::qrrruqqpfpqqqqrrwwrrwqqrrqrrrttutuwqqqqq",
"qqqqqqq6666666677qqqqqqqq7turrrrwwrw:>>>>>    ####llllllllllllllllllllllllllll####    >>::,>rqupwpqqqqrrwrrwqqqrqwrrrrttee7qqqqq",
"wqqqqqqqqq7q7qq7777677qq7eerrrrwwrrr>>>>>1    ####llllllllllllllllllllllllllll####    >>:>>>qqtrwtqqqqwrrrwqqqqqwrrrrtr77qqqqqqq",
"wqqqqqqqqqqqqq7666666666epappurrrrrr:>:>><    jj$$############################%%hh    >::>>>qwrrqqqqqqqrwqqqqqqqqr9wqqqqqqqqqqqq",
"qqqqqqqqqqqqqq77766666577qqqq79prrrr:>>::>    jj$$############################%%hh    >::>>:qrrrqqqqqqqqqqqqqqqrut6qqqqqqqqqqqqq",
"wqqqqqqqqqwrqqqqqqqq7qqqqqqqq6atrrrw::>>:>    lljj############################hhll    ::::::wrrqqqqqqqqqqqqwqqwtre6qqqqqqqwqqqqq",
"wqqqqqwqqqwtrqqqqqqqqqqqqqqq7estrrrw::>>:+    lljj############################hhll   .::::::qwrqqqqqqqqqqww66qrtrw67qqqwwwr7qqqq",
"qqqqrrwwwqqwtuutq7qqqqqqqqqq6arrrrqqO::>,+    ========    ############    ========    @OO+++qqqqqqqqqqqqqwtw67wtrq77qrrrrtu6qqqq",
"qqqrrrrrrrrrrtfsr7qqqqqqqqq69prrrrqqO+>>,:    ========    ############    ========    @,>++:7qqqqqqqqqqqqwprw76trwq7wrrrta69qqqq",
"qqqrrrrrrrrttpue7qqqqqqqqqq7qwqqqqqq++>,,:    ========    ############    ========    ,1>+,,6qqqqqqqqqqqqqpprw79rwqqrrrrat77qqqq",
"qwwwrrrrrrtte77wqqqq766666qqqqqqqqqq++>,>:    ========    #####%######    ========    >,>><<w7qqqqqqqqqqqqwaprrwrrqqrrrtt9rrrwwq",
"qrrtrrrrrrrtuuutw7766655567qqqqqqqqq++<<::::::        :<1,:::<<,><<1,O+:::        :+>,>,>>,<r7qqqqqqqqqqqtteiutrwrrwrrrwrttutuu7",
"rrrrpwrrrrrrttfd87765665656qqqqqqqqq::::::::::        :>>:::::,2>+>>,<++::        :+>>,<:<>>tqqqwqqqqqqqqtdputtrrrrrrrwrrrrttu79",
"rrrrpurrrrrrtaa87qq77666666qqqqq7qrrrrwq::::::        :::::::::>++O++,<>O+        ::>>>,rtrruqqqqqqqqqqqqqtptrrrrrrwwwwrrrtpeqqq",
"rrrrrstwwrtaae69qqqqqqqqq7qqq76wrurrrrrw:::::,        ::::::::::><:OO>,<<+        ::>>><ttrrtqqqqqqqqqqqqqwrrrrrrrrqqwrrrrw7qqqq",
"rrrrrtspe7w77qqqqqqqqqqqqqqq7tuttrwrrrqrrqqqrrqrrrqqqqqqqqqqq7qw9pprqwrrtt69qttrrtrqrrrrptrrrqqqqqqqqqqqqqqqqqwrrwqqqqqqqqqqqqqq",
"rrrr7rtpat9qqqqqqqqqqqqqqqq668tutettrwwrqqrrreqrrqqqqqqqqqqqq767wttuwqrrttt67wrrrrwqwrrrttrrrqqqqqqqqqqqqqqqqqq666667qqqqqqqqqqq",
"rreu67wrrtpe7qqqqqqqqqqqqq6666665pterwrrrwrrrrwrr7qqqqqqqqqqqqw66rttpwwrrrtr6wrrrrqqqrrrrrrrwqqqqqqqqqqqqqqqqq76566657qqqqqqqqqq",
"rrat57qwww9877qwqqqqqqqqq76666665atewrr9errw6ttawqqqqqqqqqqq7qww86rrturrrtrrqwrrrrqqqrrrrrrrqqqqqqqqqqqqqqqqqqq666567qqqqqqqqqqq",
"ptf857qqw7q7qqq7q777qqqqq76666668a8trrw6ite86iu97qqqqqqqqqqq967erw7rrrrrrrrtrqrrrrqqqqqrrrrwqqqwqqqqqqqqqqqqqqqq7677qqqqqqqqqqqq",
"tfi66qqqqq77676666676677qq666666785urw7688666867qqqqqqqqqqqqw886rrwwrrrrrrrrrqqrrrrqqqqqqqqqqqqqqqqqqqqqqqqqqqqqqqqqq7qqqqqqqqqq",
"wa867qqqq7666666666666667q666666665tw7666666667qqqqqqqqqqqqqqtuueterwqrrrwwwrqqqrqqqqqqqqqqqqqqqqqqqqqqqqqqqqwqqqq7666667qqqqwqq",
"ww76qqqqqq776666666666666q76666666696666666687w777qqqqqqqqrqwtutttupteqwrwrqqqqqqqqqqqqqqqqqqqqqwqqqq776676667qqqq76655567qqqqqq",
"wqqqqqqqqqqwq77776767677qqqq66666666666566677q76667wqqqqqqtwqwtrrrrttrwqqqqqqqqqqqqqqqqqqqwt6qqqqqqqq666666667qqqq777667qqqqrwqq",
"wqqqqqqqqqqqqqqqqwqqqqqqqqqqq7766666666667qqqqqq77qqqqqqqqrtqqwrtrrrrrrwqqqqqqqqqqqqqqqq77tf87qqqqqqq77666667wqqqqq9wqqqqqwps67q",
"qqqqqqqqqqqqqqqqqqqqq77777qqqqqq7777777qqqqqqqqqqqqqqqqqqqttqqqwrrrrrrrrqqqqqqqqqqqqqqqt99spu6qt6qqqqqqqqqqqqqqqqq987qqw7qpta67w",
"7qqqqqqqqqqqqqqqqqqqq76667qqqqqqqqqqqqqqqqqqqqqqqqqqqqqqqwrpqqqqqrrrrrrrrwqqqqqqqqqqww7u9eurt6wu6qqqqqqqqqqqqqqqeaa6wtsi6trte8a7",
"qqqqqqqqqqqqqqqqqwqqqqqqqqqqqqqqqqqqtrqwqqqqqqqqqqqqqqqqqwrtqqqqqqqqwwwwwqqqqqqqqqqqad8utterwwrt8qqqqqqqqqqqqqqrart8appe9rrrrpu6",
"wqqqqqqqqqqqqqqqwtutrqqqqqqwqqatqqqufwqwqqqqqqqqqqqqqqqqqrrtqqqqqqqqqqqqqqqwqqqqqqqwupstuirtwwrre7qqqqq7w97qqqwprwtatrttrrqreru6",
"utwqqqqqqqqqqqqqqpspftqqqqppwaarqqtapwwtrqqqqqqqqqqqqqqqrrr7qqqwqwqqqqqqqqqqqqqqqqwturapaurrqrrrt8qqqwtss97qqqttrwttrwrrrrwrrtet",
"uau7qqqtpqqwwtaaptpttprqqpswsprqqwarrwtpwqqqqqqqqqqqqqqrrqrwrrppatqqqqqqqqqqqqqqqqqttrtautrrrrrri6qqtfsss77qqqrrwwrrwqqwrqrrrtur"
};
