/* XPM */
static char *result[] = {
/* columns rows colors chars-per-pixel */
"128 128 79 1 ",
"  c #000000",
". c #0F0605",
"X c #470809",
"o c #620001",
"O c #5E7D00",
"+ c #627F00",
"@ c #23245D",
"# c #1E1D60",
"$ c #841918",
"% c #BF231B",
"& c #86303A",
"* c #853C3B",
"= c #883E3E",
"- c #FF130D",
"; c #FF1711",
": c #FF1A15",
"> c #FF1F19",
", c #C12017",
"< c #C0271E",
"1 c #FF221D",
"2 c #FF2923",
"3 c #FF3733",
"4 c #FF433F",
"5 c #FF5B56",
"6 c #5E8200",
"7 c #638500",
"8 c #688600",
"9 c #668800",
"0 c #6B8A00",
"q c #738F00",
"w c #749000",
"e c #8BAD00",
"r c #8CB400",
"t c #8EBC00",
"y c #91B600",
"u c #92BC00",
"i c #98BF00",
"p c #8FC300",
"a c #92C500",
"s c #9AC400",
"d c #97C900",
"f c #9BCB00",
"g c #A0C700",
"h c #A2CE00",
"j c #A8CE00",
"k c #A5D100",
"l c #ABD400",
"z c #B0D700",
"x c #B3D900",
"c c #B9DD00",
"v c #DBD500",
"b c #DFD800",
"n c #DE8E65",
"m c #DB9668",
"M c #E7956B",
"N c #EA976C",
"B c #EC996E",
"V c #FF827F",
"C c #EAA473",
"Z c #F5AF7B",
"A c #F7B17D",
"S c #F8B27E",
"D c #312E8C",
"F c #005EAE",
"G c #0063B4",
"H c #FFB5B3",
"J c #FDD1B8",
"K c #D1D1D1",
"L c #FDCFCD",
"P c #F1D1CF",
"I c #F4DFDE",
"U c #FBDEDE",
"Y c #F4E7E7",
"T c #F5EFEE",
"R c #F9ECEC",
"E c #F6F4F4",
"W c #F8F0F0",
"Q c #F7F8F8",
"! c #FDFDFD",
/* pixels */
"tttppphfkttapdfpaddddddpfhhhdddaakddddfkappppppppppppppppddddddddfzttpppppppppppppppdddddaddpdddhppdfddkgtppppaddddapppapadddddf",
"appppfdfgrrpppdppaddddaphddddddpddddddddppppppppppppppppppaaaddfdfharppppppppppppappaddddaddddddftaddddltppatrtdaapppppppaddddat",
"appppddfdetpppppppadddaddddddddpddddddadppppppppppppppppppppaaurrtyyrappppppppppppppaddddapadddddpddddkgtdkzxlutppppppppppppppap",
"ppppddddtttppppppppadddaddadddapddddappappppppppppppppppddddddfklkdapppppppppppppppppadddapaddddpaddddltdhffkzuatppppppppppppppp",
"apppddddddddapppppppdddaddddddppdddppppppppppppppppppppdddddddddfzchuapppppppppppppppppddapppdddpddddhaaddddhsklutpppppppppppppp",
"ppppddddadddfkappppppapadpaddapaddppppppppppdappppppppppadddpppkldrttppfpppppppppppapppddapppppppdddddadddddfkdktppppppppppppppp",
"apppadaaaaitrrrappppppppdpdddppadppppppppppafapppaapppppppppppdattappaljppddkfppppppppppaapppppppdddapadddadffffrapppppppppppppp",
"pppppdddddddaurtppppppppppddppppppppppppappafapdfldppppppppppapppppppkldtadfhttppppppppppppppppppadpppadddddddfitppppppppppppppp",
"apppdddddddddaaappppppppppppppppppppppppapuddaahfdpppppppppppppappppfhduadffirrppppppppppppphpppppppppdddddddfftpppppppppppppppp",
"apppadddddfddfupppppppppppppppppppppdppdpradaufdffddppppppppppppppppfddpddfirrpppppppppppppflpppppppppadddddddutpppppppppppppppp",
"pppppaddddddfhipppppppppppppppppppppdppdtyddddddfdhatppppppppppppppaddaddfdriffdpppppppppptkkppppppppppdddddaptppppppppppppppppp",
"utppppppadduugspppppppptppttrtttpppadpaatddddddddadppppppppppapppppdddaddfyfffflkapppppppppfdpppppppppppdddaptppppppppppappppppd",
"rpppppppppdfarrppppppptrrrrrrrrrtppddadpaddddddfoooooooooooooooooooooooooooofdfkzfpppppppptddppppppppppppppptppppppppppstpditpal",
"ppaapppppafhkttappppppppprrtrrtrppdddddadddddfllooooooooooooooooooooooooooooafdurrppppppppptddpppppppppppppppppppppppakfrdhrpdkg",
"addgsrtapptuarapppppppppppppppppppdddppdaaadhfhfoooooooooooooooooooooooooooourerrrtpppadfddtpdapppppppppppppppppppppadfiukiuddlr",
"dffgatrrrppputpppppppppppppppptrrppppppaaddddlfpoooooooooooooooooooooooooooorrttpppppkkfffdddadppppppppttttttrrppppadddadfraddft",
"dduytttttpppppppppppppppppppppppppppddddoooooooo----------------------------ooooppppkclhdddddappppprrrrrrrrrrrrrappaddddaaadddfd",
"ddfhlytpppppppppppppppppappappppppppddddoooooooo----------------------------ooooppppauyiiapppppppprrrrrrrrrrrrrrppppadaaaddddddd",
"aaadstpttrrtrrrtrrrrtpddddddaappppppadddoooooooo----------------------------ooooppppuafgfdddaaappptrrrrrrrrrrrrpppppppppadddddda",
"pputaptrrrrrrrrrrrrrtpaddddddddapppppaddoooooooo----------------------------oooopppphxzkdddddddppppttrrrrrrrttpppppppptpppapappp",
"ppttattrrrrrrrrrrtttppppdddddddddpppoooo----------------------------------------ooootyfgfaaddaapppppppttttptappppppafhtapatppppp",
"padhhrpppttttttttppppppppdfdddddfappoooo----------------------------------------oooopttuaaptppppppppppppppppagtppppfffrdkkrppppp",
"ddfktppppppppppppppppaapaadkkhfdffppoooo----------------------------------------ooooppppppprtpppppppppppppppdfftppadaadffftppppa",
"dffupppppppppaappppadddddddddfdhkkppoooo----------------------------------------ooooppppppprrhapppppppfftpppdfjraaddddddlippppdd",
"aapppppppppppdddapaddaddddddpdayyaapoooo------------------------------------>>11oooopppppprrackppppppahlfraaddktpdddddfkhyppapaa",
"uutpaddaappppddddpafddddddddpuddrrraoooo------------------------------------>>>>oooopapppperzkkappppppfdlstaddfuadddddfgyppdddaa",
"ldtdddddddpppdddddtfdddddffddrradptpoooo------------------------------------>>11oooottaappryxddpppppppdddhtaddfuddddddutapppaddf",
"appdddddddappdddddrafddddpkfddtraappoooo------------------------------------>>>1ooookfddduedhdddppppppapdfdadddpdddddfdappppppta",
"ppaddfffdddtpdddddtrfffddaakffapoooo%%%%------------------------------------RRQQTTQQooooddtadddpppppppppddapdddpppaaadkzuppppppp",
"apddddkfdddaadddddtpyfffdapakkdpoooo%%%%------------------------------------RRQQTTQQoooozfddddddppppppppaddpaddpppppdkfutppppppp",
"ppfdddfkdddapfdddfuptrfhfdrruhfuoooo%%%%----------------------------------UUEQ33HHHH;;oofxfdddddppppppppaddapadpppppptpppppppppp",
"atkddfdfdddathfddhupayrahfurrrudoooo%%%%----------------------------------UYQQ33HHHH;;ooafzddddppppppppptuaptttttptpappppppppppp",
"atffdkpffdfyaffddhypppptrfffattc    %%%%----------------------------------UUWW--2155;;YYoooodddpptrrrrrrrrrrrrrrrrrrrrttpppppppp",
"atakdhpdfddrpdfdfhyapppptruxlkpk    %%%%---------------------------------;UUEW--1155;;YYoooofdatrrrrrrrrrrrrrrrrrrrrrrrrrtpppppp",
"apthhfufdfutpakfkarpppppppyldffp    %%%%----------------------------------WWTE--12--:>TWoooopatrrrrrrrrrrrrrrrrrrrrrrrrrrtpppppp",
"pptakuakhdyupuklfrtpppppppadkdfd    %%%%----------------------------------TTEE--11-->;WTooooapptrrrrrrrrrrrrrrrrrrrrrrttaaappppp",
"atttaragurtppudsrtppppppppppfkdd    %%%%%%%%----------------------------%%ETEE--HH5522WT44--    ppppppppptappttupadappadddddddpp",
"apptrttrrtppppretppppppppppppfkd    %%%%%%%%----------------------------%%TTEE--555522WT44--    pppppppttrrrryhfdddaapadddddddkp",
"aapptpptppppppatppppppppppppppdf    %%%%%%%%----------------------------%%PPQQ::EWLL--YR----    ppppprrrrrryshfdddaadadddddffhlk",
"ddapaappppaaappptppptptttpppflhd    %%%%%%%%----------------------------%%PPQQ::ERLL--RR----    pppprrrrrrygffffdaadddadddfkhfgl",
"ddapddapadddffdtrrrrrrrrrtppfkff    %%%%%%%%%%%%%%%%%%%%%%%%%%%%%%%%%%%%%%<<QQ::QQUU>1EE----    ppprrrrrrrraffsiafddddaadaddkzdy",
"ddpaddappadddflsrrrrrrrrrrrpapdf    %%%%%%%%%%%%%%%%%%%%%%%%%%%%%%%%%%%%%%<<QQ::QQUU>>QE----    ppprrrrrrrrrrryegkdddapadayddfza",
"fdpdddaaddddffyrrrrrrrrrrrrtpppp    %%%%%%%%%%%%%%%%%%%%%%%%%%%%%%%%%%%%%%%%%%--YIRRHH------    ppptrrrrrrrrrrrulfdddatadduradkf",
"kpadddaadddddharrrrrrrrrrrrtrtpp    %%%%%%%%%%%%%%%%%%%%%%%%%%%%%%%%%%%%%%%%%%-;IIRRHH------    ffptrrrrrrrrrrejfdddatrtadftradh",
"dpdfddutdfddddhfyrrrrrrrrrryfaup    %%%%%%%%%%%%%%%%%%%%%%%%%%%%%%%%%%%%%%%%%%%%%%%%,,,,%%%%    zzdtrrrrrrrrrrtfddaptrrtadkptrtf",
"ppakdkurafdddddhdrrrrrrrreyhkhup    %%%%%%%%%%%%%%%%%%%%%%%%%%%%%%%%%%%%%%%%%%%%%%%%,,,,%%%%    uptparrrreeerrrrrrrrrrrrdffpptpp",
"appfkkrrrsjfdfjllrerrrrrrrhfdkap    %%%%%%%%%%%%%%%%%%%%%%%%%%%%%%%%%%%%%%%%%%%%%%%%,,,,%%,<    fdapppreeeeeeerrrrrrtptrffpppppp",
"papakyrrrrillrrigsirerrrrtlfffdp    %%%%%%%%%%%%%%%%%%%%%%%%%%%%%%%%%%%%%%%%%%%%%%%%,,,,%%%<    xxuuatreeeeeeeerrttppputfdpppppp",
"addpptrrrrrtsrreruhfyrrrtagddffuXXXX    %%%%%%%%%%%%%%%%%%%%%%%%%%%%%%%%%%%%%%%%%%%%%%%%    fffllutptreeeeeeeetppptaadddappppppa",
"addappttrrrrrgftrydfgsruaaffddftXXXX    %%%%%%%%%%%%%%%%%%%%%%%%%%%%%%%%%%%%%%%%%%%%%%%%    fhfarpppttrreeerrrttyaffdddfapapppad",
"pddppppptrerrdhhauddffdypudddddpXXXX    %%%%%%%%%%%%%%%%%%%%%%%%%%%%%%%%%%%%%%%%%%%%%%%%    upppapppppppptpttpahhfffddddaddppadd",
"addappppppurriffhfaddffdttdddddpXXXX    %%%%%%%%%%%%%%%%%%%%%%%%%%%%%%%%%%%%%%%%%%%%%%%%    gatappppppaytappptppadugfddpdddpdddd",
"fhappppptpadurpdfffddddfdtdddddpXXXX$$$$                                    oooo        ====dartpppppppssapppppppprlfapddasdddti",
"fupppppparrtadppfddddddddppddddpXXXX$$$$                                    oooo        ====ptppppppppthlgupppppppyliddddyhffpth",
"uppppppppasyyddaadddadddddpdddppXXXX$$$$                                    oooo        ====pppppttppppkfhhappppppaarffdataappru",
"pppppppppdhhhfhfdaaddddaapppppppXXXX$$$$                                    oooo        ====ppppptirttpgfdfjapppppptydapatpppatu",
"ppppppppppffdddhffdappaapppppptpptptXXXX$$$$$$$$$$$$$$$$XXXX$$$$XXXXJJJJJJJJKKKK####HCSS====ppppptxzfyrsddddfppppppapaputttppppp",
"ppppppppppadddddfddapppppptttrrtrrrrXXXX$$$$$$$$$$$$$$$$XXXX$$$$XXXXJJJJJJJJKKKK####ZCSS====rappptlhlhfdaddddappppppptyisddaappp",
"ddapppppppppaddddfdddpppprrrrrrrrrrrXXXX$$$$$$$$$$$$$$$$XXXX$$$$XXXXJJJJJJJJ!!!!DDDDZSSS====lppppplhdddfdpdddppppppppdkfaadaafkf",
"ddddppppppppppadddddddpppptrrrrrrrrrXXXX$$$$$$$$$$$$$$$$XXXX$$$$XXXXJJJJJJJJ!!!!DDDDASSS====tpppppfhddddddaaappppppptyryaapphkfd",
"ddddappppppppapppppppppppppppptttptpppppXXXX$$$$$$$$XXXX========XXXXJJJJAAAAEQQQDDDDSSSS====fapppppaddfddddppppppppterfhddppaadd",
"dddappppppppppapppppppppppppppppppppppppXXXX$$$$$$$$XXXX========XXXXJJJJSAAZEQQQDDDDSSSS====hppppppuyaaadppdappppppryffddpdkffdd",
"appadapppppppppppppppppppppppprttpppppppXXXX$$$$$$$$XXXX========XXXXJJJJSSCZEEQQDDDDSSSS====ppattrerrapaddddddppppppffdapfkffdpa",
"aaadddappppppppppppppppppppppptzffapppppXXXX$$$$$$$$XXXX========XXXXJJJJSSHAEEQQDDDDSSSS====ppprrruadaadddddddpppppahdapflkfpddd",
"pddddappppppptptttptpppppppptetadappppppXXXX$$$$$$$$+***JJJJJJJJ====SSSSSSSSQQQQDDDDSSSS====ppppxkfdddddadddddppppatrrupfddddddd",
"aapddpppprrrrrrrrrrrtppppppppjjutdddapppXXXX$$$$$$$$&***JJJJJJJJ====SSSSSSSSQQQQDDDDSSSS====ppppdklfkdpdfddaddppppppuadadddddddt",
"dppapppptrrrrrrrrrrrtppppppppafffddddddpXXXX$$$$$$$$&&**JJJJJJJJ====SSSSSSSSQQQQDDDDSSSS====ppppdppprrdfddadddppppppalkfdddaddar",
"dppppppppptttrttttppppppppppataddddddddaXXXX$$$$$$$$&=**JJJJJJJJ====SSSSSSSSQQQQDDDDSSSS====dpppppptrsffdtddfapppppppppdffupddtp",
"ppppppppppppppppaappppppppppttpadddddddapppp====BBBB====CCAASSSSCBBBSSSS                .   ddpppptrahddpyklfppppppppaklfapfduap",
"ppppppppppppappdddaaapppppppptrrtidaaddapppp====BBBB====CCZZSSSSBBBBSSSS                    pppppppalhapufzfppppppptppppappfdapp",
"appppppppaddapdddaadpaappppppdfffdaddddapppp====BBBB==**mmAZSSSSBBBBSSSSSS. .   .         ..pppppppppttttdppppatpaaapppppppdpppp",
"pppppppaddddppdfdaddaddaapppppppdaaaddddpppp====BBBB==**mmZZSSSHBBBBSSSSSS       .   .    ..pppppptrrerrrrtpatafffdaadaaappppppp",
"apppfpadddddpdddddddadddapppppppprrsdddppppppppp    BMNN========SSSSSSSSSSZZ              ddpppptrerrerrerrrpphzhfddddddappppppp",
"appphadddddapddddddhpdddddpppdppprrkdfdppppppppa    NNNN========SSSSSSSSSSAA              dddppprrreererrerettttiadadapppppppppp",
"pppplddddaaapddfhfkapdddddfddhapprtkhfpppppppptu    nnnn*o**====SSSSSSSSSSSSSSSSAAZC====ddddddppreerererrrrrpthhfdddaaappppppppp",
"appalfadapppafkkflhppdkhfhhkllfppppkfpppppppptah    nnnn****====SSSSSSSSSSSSSSSSAAZH====fkfddkpptrrererrrrrtpppffffddddapppppppp",
"pppddpdlspppdlkdkfppppklkzfpppppppppappppppppaashssf    ====BBBBBBBB================addkhhxfdkppptttrrrttpppppppdddaudddappppppp",
"ppppppflupppddpppppppppdadappppppppppdtpdutpdlytarif    ====BBBBBBBB================pddkdjsxlapppppppppppppppppadappdfappppppppa",
"pppdhfppppppppppppppppppppppppppppaahstdhrpdkstptrjh    ====BBBBBBBB================ddfgthrslppppppppppapppppapadaptfdapppppppdl",
"taddkappppppppppppppppppppppppppppaffrahitdfhradhkjr    ====BBBBBBBB===============*ihkfrfayappppppppafdppppadpadappddappppppfzk",
"addkyrtppppppppppppppppppppppppppadddddftddfdadfsiur    $$$$GGGGGGGGGG@#----$$ppptpprllarappppatppppilfddaaaaddaddppadapppppdkdd",
"ddhurrpapppppppppppppppppppppppppadddaaadddddddddfay    $$$$GGGGGGGGGG##----$$pppppptaappppppddaaapppuaddddadddthfppppppppppdddu",
"dhuyshkfapppppppppppppppppppppppppppppaddddddddaafga    $$$$GGGGGGGGGG##----$$ddapppppppppputssdddaptfdddddadddtihddpppppppaddda",
"dadffdfkzfpppppppppppppppppppppppppappppppppppppptap    $$$$GGGGGGGGGG##----$$dddddppppapppaaaaappayhfdddddyfddpudldpppppppddddd",
"dddadfssatpppppppppppppppppapppppakhtpasppppppppuidy    --------####GG##----@@dfddddappppptdfddapppukddaddptffdpppdaappppppddddd",
"dapaarrrrrtpppppppppppppppakupppaddaudhjtpppppaafhfy    --------####GG##----@@hffddffpppptgkddppppyhhfaadappifappppppppppppadddd",
"aaptrrttupapppppppppdauppadfhtaaddadddkatpppaddfgdta    --------####GG##----##ffffghhdppptdipppppptfdpshdppppapppppppppappppadda",
"dddddpapppppppppppppklatpaddkrpadddddhktpppaaaaaappp    --------####GG##----##aaddiusdpppputppptpppappuappppppppptttrrtrtpppppad",
"ddddddhpapppppppppppfflatafdftddddddfhtppdddaaaatppp$$$$--------####GGbbvvGG##fauadyrrtppadaaadddadaappppppppppptrrrrrrrrtpppdpd",
"dfddddlapppppppppppadafkuaddfpddddddiupppaaadfhapppp$$$$--------####GGbbvvGG##fdarudatpppyggddddddddaaadapppppppprrrrrrrtpppaddp",
"pdhlhfhsppppppppppppppdddpdddpaadddffhtappppapatpppp$$$$--------####GGvbvvGG##kffattappptaauafadddafdfdddppppppppppttptpppppaddd",
"dstyhxcsppppppppppppppaddpaddpppppaflstppppppppppppp$$$$--------####GGbbvvGG##ahfhatrtpppthlhdyhdarkaadappppppppppppppppppppdddd",
"dkttrrsapppppppppppppppddapddpppppdupapppppppppp    GGGG--------####GGGGGGGG####fluppappppppppukdyfdrjdaapppppppppppatapppppphfd",
"dlpppptrpppppppppppppppdappppppppppppppppppppppp    GGGG--------####GGGGGGGG####ruapppppppppprldprdptdptaurtppatppddsrpppppppthk",
"lxtpppppttttrttrrttppppapppppppppppppppppppppppp    GGGG--------####GGGGGGGGFF##uykzdpppppfapuapppppppppugdtpshitddfiiftppppppps",
"sxtppprrrrrrrrrrrrrpppppppppppppappppaddaaappppp    GGGG--------####GGGGGGGGFF##lfdflfpppdzkppppppppppuskfuydffydddadkgtppppppau",
"prtpprrrrrrrrrrrrrtppppppppptdddddppddddddddappp    GGGG    !!!!!!!!    GGGGGG##dddddffppkdkdppaffppppafddpdddddddaddkuuappppppp",
"appppprrrrrrrrrrrrpppppppppskdddddppdddddddfkppp    GGGG    !!!!!!!!    GGGGFG##kddddddppdddkppkckppppddaaddappdapddfffffhdppppp",
"apppppprrrrrrrrttpppppppptshddddaadaddddddhflfpp    GGGG    !!!!!!!!    GGGGFF##dkhddddapddddpfkdkppppdaadddpppdaaddddffditppppp",
"pppppppppptptppttttrtttptsfddddapdddadddfkffzxap    GGGG    !!!!!!!!    GGGGFF##pafdddddpdddppfdpfppppadddpppppppddddddttapppppp",
"appppppppppppptrrrrrrrrruklllhdadddapdaddflkrfdp    GGGG    KKKKKKKK    GGGGFG##zkdddaaapdddpaddppppppadappppppppdaaatpppppppppp",
"appppppppppppptttrrrrrrtppppptulddddpddaadflkypp    GGGG    KKKKKKKK    GGGGGF##dfhhfddppddppdddpppppppppppppppahfrtpppppppppppp",
"ppppppppppadpppppppptpppppppprlfddddppdatadflapp    GGGG    KKKKKKKK    GGGGGG##pppppppppaappddppppppppppppappahdarppppppppppppp",
"apppppapppafdppapppppppppppptszddddptpdduradkdpp    GGGG    KKKKKKKK    GGGGGG##pppppppppppppddpppppppppppartpafdaruppaaaadtpppp",
"ppppdddaappafkffptppppppppptrlddddaprpddfrrufdpp7070    GGGG        GGGGGGGGGF##rppppprrrtrrpppppppppppppafartafdpttpddddfhrpppp",
"pppddddddddadfxxatppppppppprahdddapprtaffarradpp6qw0    GGGG        GGGGGGGGFF##atppprysdrittppppppppppppphdarrfdaptadddflrupppp",
"pppddddddddhhhjatpppppttppptpaappppptyaffapttapp6ww7    GGGG        GGGGGGGG####kupptyfldrfftppppppppppppphkddtudappddddlfttpppp",
"paaadddddddfsttpppppttrrrrappppppppptrdfdppppppp6766    GGGG        GGGGGGGG####kdpprffgailhutppppppppppppdzkddaddppddddfudddaap",
"addddddddddfkkkfattrrerrertppppppppptrkfpppppppp6666    &&&&&&&&&&&&&&&&    O907ffptaddgadffdppppapppppppffshkfddddadddddffhfkgt",
"addfkadddddddfcxyprrerrererppppppppaaudppppppppa6666    &&&&&&&&&&&&&&&&    6097dhptdddhaffffppppppapppppfxkhffddddaddaaddfffgta",
"ddddlhpddddffllytppttrrrrrrpppppuaadddapppppppda7666    &&&&&&&&&&&&&&&&    6077dfaudddhdfddfappppppppppppfkfddddddaaaadddfhappp",
"ddddaxhpaafllayuppppppppptpppttuffddddapdpppadda7666    &&&&&&&&&&&&&&&&    O077ffatddffffdffpppppppppppppaddddddddppadddddtappp",
"dddddfxkauppttpppppppppppppprshfffddddpdappaddad77666666                00+OO977dddpddddkddddpppppppppppppppppadddppppppppppappp",
"ddddtafhlfypppppppppppppppprrushfsfddaddappdddpd76666666                777OO777dddppdddhdddapppppppppppppppppprrrrrtppppppppppp",
"ddshrtddffksuppppppppppppprrrrrrejdddadadaddddad76666666                7707O677ddapadddddddappppppppppppppppptrrrrerrpppppppppp",
"ddlsrtpaaauyttppppppppppptrrrrrrelfsaddusdddrffk76666666                77776779ddappaddddddpppppppppppppppppppreerrtppppppppppp",
"kfcyetppatptppppppptptppptrrrrrrylyfddarhgiyrjgitppppppppppptryadaydddfadddfdpadddppppaadddappppappppppppppppppptttppppppppppppp",
"fcjrrpppppttrtrrrrrrrrtppprrrrrrtyehdarruyrreirpppppppppppppauyradaadddddadddpadddpppppppdppppppppppppppppppppppppppptttpppppppp",
"alyrtpppptrrrrrrrrrrrrrrtprrrrrrrrefatrrrrrrrrtppppppppppppppfhhsfddaadddddadpppdapppppppppppppppppppppppppppapppptrrrrrtppppppp",
"aatrppppppttrrrrrrrrrrrrtpprrrrrrrrurrrrrrrrrtatttppppppppappfkffhhhfdpaaaapppppppppppppppppppppppappttrrrtrrtpppprrreerrppppppp",
"appppppppppapttttrtrtrtttppptrrrrrrrrrrrrrrtpptrrrtpppppppfapafdddffffapppppppppppppppppppafrpppppppprrrrrrrrtpppptrrrttppapdppp",
"apppppppppppppppppppppppppppptrrrrrrrrrrrttpppppttppppppppdfppaddddddddapppppppppppppppptphxrtpapppppttrrrrrtppppppaapppppakzrtp",
"ppppppppppppppppppppptttttpppppptttttttpppppppppppppppppppdkpppaddddddddappppppppppppppfyuzkhrpfrpppppppppppppppppirtpaarahflrta",
"tppppppppppppppppppppttrrtppppppppppppppppppppppppppppppppdfpppppddddddddapppppppppppathiahdfrahrpppppppppppppppdllrafxgtddfsult",
"tppppppppppppppppapppppppppppppppppafdpppppppppppppppppppddkppppppppaadppppppppppppplxigfgfdaadfutpppppppppppppdldfylkksudddahjr",
"appppppppppppppppfkfdppppppappkfpppfcdppppppppappppppppppdddppppppppappppppppppppppdhklfhhddpaddstppppptttppppakdaglfdffddpdddhr",
"hfapppppappppppppkxkcfpppplfpzzdppfkkppfdppppppppppppppadddtpppapappppppppppppppppaffflklhddadddfrpppdfzzitpppffdpffdadddaadffag",
"hlhppppfkpppafllkfhfdzappkxazhdppdldddhkappppppppppppppadpaaddkklfpppppppppppppppppfffflhgdddddfhrppfxxzzttpppdddaddappdaafddfhd"
};
