/* XPM */
static char *result[] = {
/* columns rows colors chars-per-pixel */
"128 128 81 1 ",
"  c #000000",
". c #080605",
"X c #120C0A",
"o c #0D0D3A",
"O c #420001",
"+ c #540001",
"@ c #5E0204",
"# c #74070B",
"$ c #75090C",
"% c #7A0B0E",
"& c #7C0D11",
"* c #7F1213",
"= c #5A322B",
"- c #62362E",
"; c #4C6500",
": c #4D6B00",
"> c #536D00",
", c #537200",
"< c #5A7500",
"1 c #567900",
"2 c #5C7C00",
"3 c #627E00",
"4 c #0F1040",
"5 c #5F5D5C",
"6 c #811416",
"7 c #831619",
"8 c #861A1A",
"9 c #BC0400",
"0 c #8F241F",
"q c #BF231B",
"w c #8B2223",
"e c #982E27",
"r c #942E2D",
"t c #86303A",
"y c #873D3D",
"u c #883E3E",
"i c #FF2015",
"p c #5E8200",
"a c #638500",
"s c #698600",
"d c #668800",
"f c #6B8A00",
"g c #8BAD00",
"h c #85B600",
"j c #8CB400",
"k c #8EBC00",
"l c #91B600",
"z c #92BC00",
"x c #98BF00",
"c c #8FC300",
"v c #92C500",
"b c #9AC400",
"n c #97C900",
"m c #9BCB00",
"M c #A0C700",
"N c #A2CD00",
"B c #A8CD00",
"V c #A5D100",
"C c #ABD400",
"Z c #B0D700",
"A c #B3D900",
"S c #B9DD00",
"D c #E4DB00",
"F c #ECE000",
"G c #EC996E",
"H c #E6A473",
"J c #EEA977",
"K c #F7B17D",
"L c #F8B27E",
"P c #2B2A88",
"I c #312E8D",
"U c #0063B4",
"Y c #B89280",
"T c #E7B8A2",
"R c #FDCEB5",
"E c #FDD0B7",
"W c #FDD1B8",
"Q c #C5C5C4",
"! c #E0DCDB",
"~ c #FAF7F4",
"^ c #FEFEFE",
/* pixels */
"kkccccNmNkjccnnvnnnnnnncNNmNmnnccVnnnnmVcccccccccccccccccnnnnnvnnmAkccccccccccccccccnnnnnnnnvnnnVhcnmnnVMkccccvnnnnvcccvcvnnnnnm",
"vccccnmnNjjvccnccvnnnnvcNnmmnnncnnnnnnmmccccccccccccccccccvvvnnmmmNbjcccccccccccccccnnnnncvnnnnnmcvnnnmCkccvkkknvvccccccvvnnnvvc",
"vcccvnnmbgkccccccccnnnvnmnvnnnvcnnnmnnnncccccccccccccccccccvvvzjjjkjjccccccccccccccccnnnnvcnnnnnvvnnnnVMknVZAVzkvcccccccccvccccc",
"vkccvnnnkkcccccccccvnnnvnnvnnnvcnnnncccccccccccccccccccvnnnnnnmVCVnccccccccccccccccccvnnnvccnnnnvvnnnmVknNmmVAzzkcccccccvccccccc",
"ccccnnnnnnnnvcccccccnnvvnnnnnnccnnnccccccccccccccccccccnnnnnnnnnmASNkvccccccccccccccccvnnncccnnncnnnnVvvnnnnVbVCzkcccccccccccccc",
"vcccnnnnvvvmmVvccccccvcvncnnnnccnnccccccccccnvccccccccccvnvnvvcmCbkkkkcnvcccccccccccccvvnvcccccccnnnnvvnnnnnmNmVjccccccccccccccc",
"vcccvnvvvnxkjjjcccccccccccnnnccnncccccccccccVccccnvcccccccccccmbkccccvCCccvnVmcccccccccvcvcccccccnnnvcvnnnvnmbmmjccccccccccccccc",
"ccccvnnnnnnnvzjcccccccccccnccccccccccccccccnmccvmCnccccccccccvccccccvVCbkvnmNkkccccccccccccccccccvncccvnnnnnnnmvkvcccccccccccccc",
"vcccnnnnnnnnnvvvccccccccccccccccccccccccvkkmncbVmvccccccccccccccccccmNmzvnmNkgkvccccccccccccmcccccccccvnnnnnnnNjcccccccccccccccc",
"ccccvnnnnnmnbmkccccccccccccccccccccccccvvkvnvknnmnmmccccccccccccccccmmvvvnmbgkvccccccccccckmCcccccccccvnnnnmnmzkcccccccccccccccc",
"vccccvnnnnnnmNxcccccccccccccccccccccncvnkknnnnnnmmVvcccccccccccccccnnnvnmmbjzmbvvccccccccccVVvccccccccvnnnnnvckccccccccccccccccc",
"zkcccccvvnnzlNbcccccccckcckkkhkccccvncnvkvnnnnnnvcvccccccccccccccccvnnvvmmkvmmNCVvcccccccccmncccccccccccvvnvckcccccccvcccccvcccv",
"jcccccccccvnbjjccccccckjjjjjjjjjkcvnnnnvvnnnnnnmvc9999999999999999999999999999mCZnccccccccknnvcccccccccccvckccccccccccvnkcbvkcnC",
"cccckvcccvmVVkcccccccccckkkjjjjkkcnnnnvvmnmvvmCCvc9999999999999999999999999999vzjjcccccccckcnnccccccccccccccccccccccccVbjnVjcnVM",
"vnnMbjkccckzbkccccccccccccccccccccnnvvccnvvnVmVmcc9999999999999999999999999999jjjjkcccvnnnnkvnvcccccccccccccccccccccvnmzzNbkvbVj",
"nnNNvkjjjccckjcccccccccccccccckjkcccccvvvvnnmVmvvn9999999999999999999999999999kkccccvVVmmmmnvvnvccccccckckkkkjkkcccvnnmnnmjvnmmz",
"bnzkkkjkccccccccccccccccccccccccccccnnnnnnOOOO9999iiiiiiiiiiiiiiiiiiiiiiiiiiii9999OOOOZmnnnnnvcccckkjjjjjjjjjjjjcccnnnnnnvvnnmnn",
"nnnVCzkccccccccccccccccccvvcccccccccnnnnnvOOOO9999iiiiiiiiiiiiiiiiiiiiiiiiiiii9999OOOOzzzvvccccccckjjjjjjjgjjjjjccccnvvcvnnnnnnn",
"nvvnxvckjjjjjkjjjjjjkvvnnnnnncccccccvnnnnnOOOO9999iiiiiiiiiiiiiiiiiiiiiiiiiiii9999OOOOmNmbnnvvcccckgjjjjjjjjjjjcccccccccvnnnnnnv",
"cczkkckjjjjjjjjjjjjjkcvnnnnnnnnvccccccnnnVOOOO9999iiiiiiiiiiiiiiiiiiiiiiiiiiii9999OOOOANnnnnnnncccckkjjjjjjjkkvccccccvkcccccvccc",
"ccjkzkkkjjjjjjjjjjkkcccvnnnnnnnnvvccccOOOO9999iiiiiiiiiiiiiiiiiiiiiiiiiiiiiiiiiiii9999OOOOvnvnvccccccckkkckcvccccccvNmkccvkccccc",
"cvnNNjcvcckkkkkkkcccccccvmmmnnnnmvccccOOOO9999iiiiiiiiiiiiiiiiiiiiiiiiiiiiiiiiiiii9999OOOOccccccccccccccccccvmkccccnmbkbNVkccccc",
"nnmVzccccccccccccccvvvvccvnNVNmmmmccccOOOO9999iiiiiiiiiiiiiiiiiiiiiiiiiiiiiiiiiiii9999OOOOckkcccccccccccccccnMmkccnnnvnmmMkccccv",
"nmmzcccccccccvvcccnvvnnnnvnnnmnmVVvcccOOOO9999iiiiiiiiiiiiiiiiiiiiiiiiiiiiiiiiiiii9999OOOOcgjNvcccccccmmkcccmmVjcvnnvnnnVxccccvn",
"vvcccccccccccnnnvcnnnnnnnnvvvnvzlbkccc9999iiiiiiiiiiiiiiiiiiiiiiiiiiiiiiiiiiiiiiiiiiii9999jgvSVcccccccVCmzknnnNlcnnnnnbVVzccvcvv",
"zvkcvnnnvccccnnnncvnnnnnmnnnvznvkjkccc9999iiiiiiiiiiiiiiiiiiiiiiiiiiiiiiiiiiiiiiiiiiii9999jjCCVvccccccmnVxkvnnmzvnnnnmmmzkcnnvnv",
"CnkvnnnnnvcccnnnnnknnnmnnVnnnkjnvckccc9999iiiiiiiiiiiiiiiiiiiiiiiiiiiiiiiiiiiiiiiiiiii9999gzAnnvccccccvvmVjvnnnvnnnnnnzkvccvvnnm",
"vccnnnnnnnvccnnnnnjbnnnnvvVmnnjjvvcccc9999iiiiiiiiiiiiiiiiiiiiiiiiiiiiiiiiiiiiiiiiiiii9999gbVnnvccccccvvnmncnnncnnnnnmmvkccccckv",
"vcnnnnmnnnncvnnnnnkjbmnnnvvNnmnkjkOOOO9999iiiiiiiiiiiiiiii^^^^^^^^^^^^^^iiiiiiiiiiiiii9999OOOOnvccccccvcnnvcnnncccvvvnVZzccccccc",
"ccnnnnNNnnnvvnnnnnkczmmnnvvvVVbccjOOOO9999iiiiiiiiiiiiiiii^^^^^^^^^^^^^^iiiiiiiiiiiiii9999OOOOnvccccccccvnnvvnnvccccnVmzkccccccc",
"vknnnnmNnnnvkmnnnmzckjnNnnjjkNmvccOOOO9999iiiiiiiiiiiiii^^^^^^^^^^^^^^^^^^iiiiiiiiiiii9999OOOOnvccccccccvnvvcvvcccccckccvccccccc",
"cvVnnmmmnnnvkVnnnNzcczlxNmcjjjzbccOOOO9999iiiiiiiiiiiiii^^^^^^^^^^^^^^^^^^iiiiiiiiiiii9999OOOOnvcccccccczvvckkkkckkccccccccccccc",
"vknnnNvmnnnzkmmnnNzcccckjbmmckkSVcOOOO99999999iiiiiiii^^^^^^ii~~^^^^ii^^^^^^iiiiii99999999OOOOncckkgjjjjjjjjjjjjjgjjjkkkcccccccc",
"vkbNnVcnmnbjcnmnnNjvcccckjzSCVcVVVOOOO99999999iiiiiiii^^^^^^ii^~^^^^ii^^^^^^iiiiii99999999OOOOvkghjjjjjjjjjjjjjjjjjjgjgjjccccccc",
"vckNVnzmnmxkcvVmVbjccccccczCmmmcnNOOOO99999999iiiiiiii^^^^^^iiii^^iiii^^^^^^iiiiii99999999OOOOkjjjjjjjjjjjjjjjjjjjjjjjjjjkcccccc",
"ccjnVkzNVbjvczVCbjkcccccccknVnmnnnOOOO99999999iiiiiiii^^^^^^iiii^^iiii^^^^^^iiiiii99999999OOOOcckjjjjjjjjjjjjjjjjjjjjjkccvvccccc",
"vckknjnNzjkccknbjkccccccccccmVnnnnOOOO9999999999999999^^^^^^iiiiiiiiii^^^^^^99999999999999OOOOccccccccckkkcckkkzvvnvccvnnnnnnvcc",
"vcckjkjjjccccvjjkccccccccccccmVnnnOOOO9999999999999999^^^^^^iiiiiiiiii^^^^^^99999999999999OOOOccccccccckkkjjjzNnnnnvvvnnnnnnnnVc",
"vvcckckccccccczkccccccccccccccnnnnOOOO9999999999999999^^^^^^ii^^ii^^ii^^^^^^99999999999999OOOOccccccckjjjjjjbNmmnnvvnvnnnnnmmMCV",
"nnvccvccccvvccvccckcckckkcccmCVnnnOOOO9999999999999999^^^^^^ii^^ii^^ii^^^^^^99999999999999OOOOccccccjjjjjjlMNmmmnvvnnvvnnnmNVmNZ",
"nnvcnnvcvnnnmnnzjjjjjjjjjkccmCmnnnOOOOOOOO99999999999999^^^^ii^^^^^^ii^^^^999999999999OOOOOOOOccccckjjjjjjkxbmmbvmnnnnvvnvnnNZbz",
"nncvnnvccvvnnNCbjjjjjjjjjjjkcvnnnmOOOOOOOO99999999999999^^^^ii^^^^^^ii^^^^999999999999OOOOOOOOcccccjjjjjjjjjjjggMVnnnvcvnvznnmAv",
"mncnnncvnnnnmbzjjjjjjjjjjjjvccuuuuOOOOOOOO9999999999999999^^ii^^^^^^ii^^99999999999999OOOOOOOOyuuucjjjjjjjjjjjjzCmnnnvkvnnvjvnNm",
"VcvnnncbnnnnnmxjjjjjjjjjjjjkjkuuuuOOOOOOOO9999999999999999^^ii^^^^^^ii^^99999999999999OOOOOOOOyuuuvjjjjjjjjjjlgVmmnnvjjcvnmjjzmm",
"ncnmnnzknnnnnnVbjjjjjjjjjjjlbbyuuu++++##*&OOOO999999999999999999999999999999999999OOOO&&$$++++uuuuvzjjjjjgjjjgkmvnvckjjjvnVckgvm",
"vcvVnVzjbmnnnnnVbgjjjjjjjgzNCNuuuu+++@##&*OOOO999999999999999999999999999999999999OOOO&&%$++++uuuuccvjjjjjgghkjjjkjjjjjkvnNccckc",
"vccmVVjjjbVnnbCVCljjjjjjjjNmnVuuuuLLKK&$##OOOO999999999999999999999999999999999999OOOO&&%%KKKKuuuuvccvgggggggggjjjjjkkkkmNcccccc",
"cnccVkjjjjbCCjjxNbzgjjjjjzVbnNuuuuLLKT$&##OOOO999999999999999999999999999999999999OOOO%%$6KTKKuuuuzkckjggggggggkjkkccvkcnvcccccc",
"vnncckjjjjjkbjjgjzNmlgjjkvNnnnuuuuLLLL&&%%@@&&OOOOOOOOiiiiiiiiiiiiiiiiiiiiOOOOOOOO&&++&%%&KTLLuuuukckjggggggggkccckvvnnnvccccccv",
"vnnccccjjjjjjNmxglnnNbjkcbnnnnuuuuLLLL&&%&@@&&OOOOOOOOiiiiiiiiiiiiiiiiiiiiOOOOOOOO&&+@&&&%KKLLuuuuccckjgggggjgkkzzmmnnnnvvvcccvn",
"cnnvcccckjgjjbNNnznnnmmzcznnnnuuuuLLLL&&**@@##OOOOOOOOiiiiiiiiiiiiiiiiiiiiOOOOOOOO++++&688KKLLuuuuccccccckcccccVNmmmbnnnvnvccvnn",
"vnnccccccczjjznnNmvnnnnbkknnnnuuuuLLLL&&**@@##OOOOOOOOiiiiiiiiiiiiiiiiiiiiOOOOOOOO@++@&&88KKLLuuuucccczkccccckccvnzMmnnvnnnvnnnn",
"nNvccccccccnzjcnnNmnnnnmnkvnnnuyuuLLLL&&&&66&&YYYYOOOOOOOOOOOOOOOOOOOOOOOOOOOOYYYYww6&0weeLLLLuuuucccckbvkvcccccccjVmncvbvbnnnkb",
"NzccccccvjjznnkvnnnnnnnnnvvnnnuyuuLLLL&&&&66&&YYYYOOOOOOOOOOOOOOOOOOOOOOOOOOOOYYYYww%60weeLLLLuuuucccccVAMkccccccczBxbnnvlVmmckM",
"zcccccccczxlknncvnnnnnnnnncvnnvcvc    77*&wwrrWWWWOOOOOOOOOOOOOOOOOOOOOOOOOOOOWWWW7778&*66    bcckkcccvNmVBvccccccvvjmnnvkvzccjx",
"ccccccccvnNNNmNmmvvvnnnnvcccvvvccc    86&6wwrrWWWWOOOOOOOOOOOOOOOOOOOOOOOOOOOOWWWW7788&&66    ccckxjkkcmnbmBvcvcccckznvvccccccck",
"ccccccccccmmnmmNmmnvcccvcccccccckc    0000WWWWWWWWQQQQooooOOOOOOOOOOOO4444QQQQWWWWWWWWw888    ccckZCMkjbnnnmmccccccvccvkkkcccccc",
"ccccccccccvnnnnnmnnvcccccckkjjjkjj    0000WWWWWWWWQQQQooooOOOOOOOOOOOO4444QQQQWWWWWWWW8888   .ccvkZVVCbnvnnnnvccccccczjxbnvnvccc",
"nnvcccccccccvnnnnnnnncccckjjjjjjjjjjjjuuuuWWWWWWWW^^^^PPPPYYYYYYYYYYYYPPPP^^^^WWWWWWWWuuuuZSCcccckCmnnmmvvnnvccccccccnVmvvnvvmVm",
"nnnnccccccccccvnnnnnnncccckjjjjjjjjjjkuuuuWWWWWWWW^^^^PPPPYYYYYYYYYYYYPPPP^^^^WWWWWWWWuuuuMvkcccccmVnnnnnnvvnccccccckzjkvvccNVmn",
"nnnncccccccccccccccccccccccccckkkkccccuuuuWWWWWWWW^^^^IIPIWWWWWWWWWWWWPIII^^^^WWWWWWWWuuuubbmvcccccnnnnnnnnvccccccckgjmNmvcvvvnn",
"nnnvccccccccccccccccccccccccccccccccccuuuuWWWWWWWW^^^^IIIIWWWWWWWWWWWWIIIP^^^^WWWWWWWWuuuumSNccccccckvvnvvnvvccccccgjmmmvcmVmmnn",
"vccvvnccccccccccccccccccccccccjzcccccc    WWWWWWWW^~^^PIIIWRWWWWWWWWWWIIII~^^^WWWWWWWW    NnccckjjggjzccvnnnnvccccccmmnvcVmmmncv",
"vcnnnnvccccccccccccccccccccccckCmbvccc    WWWWWWWW^^~^IIIIWWWWWWWWWWWWIIII^^~^WWWWWWWW    cvccckgkznnvvnmnnnnncccccvVbvcmVVmvnnn",
"cnnnnncccccccccckckkcccccccczjjvnncccc    WWWWWWWW~^^^PIPI==REERRRRR--IIII^^~~!REEEWWW    ccccccZCNnnnnvvnnnnnvcccckkjkcnnnnnnnn",
"cncnnccccjjjjjjjjjjjjccccccccNBbcnnvvv    WWWWWWWW^^^~PIII==EERRRRRR--IIII^^^~EREEEEWW    ccccccnCVVVnznnnvnnncccccckvnbnnnnnnnk",
"nccccccckjjjjjjjjjjjcccccccccxnnnnnnnnncccuuuuWWRR    . ..==REEERWRR--XX      RREEuuuunccccccccccccvjjbmnbvnnnccccccvCVNnnnznnvj",
"vccccccccckkjjjjkkcccccccccccknnnnnnnnnvccuuuuWWRR      ..==EREEWRRR--XX      EREEuuuuvccccccccccccjjbmnnvnnmvcccccccccnnmzcnnkv",
"ccccccccccccccccvvcccccccccckkvvnnnnnnncccuuuuWWRW          ========          REREyuuucccccccccccckkbNnnzzNCnccccccccvVCNvvnnvcc",
"vccccccccccvvccnnnvvcccccccccjgjjbnvvnnvccuuuuWWRW .        ========          ERR!yuuuccvccccccccccvCmnvvmZnvccccccccccccccmbccc",
"vccccccccvnnvcnnnvvncnvccccccnmnnnnvnnvvkc    uuuuKK..                      JJuuuu    hcckvcccccccccckkkkvvcccccczvccccccccncccc",
"cccccccvnnnncvnnnvnnvnnvvccccccvvvbvnnvckc    uuurKT..                      JJyyuu    kkvcnvccccccjjjgjjjjkkvknbmNvvnvvvcccccccc",
"vcccncvnnnnvcnnnnnnnvnnnvvcccccccjjbnnbkcc    uuuuLLLLRR  . . .. .......TTHHKKyyyy.   khvcnnccccjjjjgjjgjhgjcvNZVnmnnnnnvccccccc",
"ccccVvnnnnnncnnnnmnNcnnnnncccncccjjVnnvccc    uuuuLLLLRR   . ...........TTHHKKyyyt..  ckkcnnncccjjhgghgjjggjkkkkxbnvvvvccccccccc",
"vcccCnnnnvvccnnNmNNvcnmnmnnnnVncckkVmm    iiiiPPPP    yyuuGGGGGGGGGGGGuuuu    PPPPiiii    kkkkccjggjgjgjjgjjkjNNnnnvnvvccccccccc",
"vccvCmvnvcccvnVVmCNccnCmmNmVVVmvcccNmc    iiiiPPPP    yyuuGGGGGGGGGGGGuuuu    PPP5iiii    bkcbccjjjgjgjjjjkccvvmNnmnnnnvvccccccc",
"cccnmcnVbcccmCVvNNccccNZNCNccccccckkkj    iiiiPPPP    uuyyYGGGGGGGGGGGuuuu    PPPPiiii    Bbzbvccckjjkjkkcccccccnnnvknnvcccccccc",
"ccccccmCccccnnccvcccccccvnnccccccckckv    iiiiPPPP    uuytGGGGGGGGGGGGuuuu    PPPPiiii    jNmkcccccccccccccccccvvvccnmnccccccccc",
"cvcnVmcccccccccccccccccccccccccvcc    iiiiiiiiPPPPUUUUPPPPqqqqqqqqqqqqPPPPUUUUPPPPiiiiiiii    hhhhcccccccccccvcvnvccmnccccccccnC",
"kvnnVvcccccccccccccccccccccccccvcc    iiiiiiiiPPPPUUUUPPP5qqqqqqqqqqqqPPPPUUUUPPPPiiiiiiii    hhhhccknNncccvnncvnvccmmcccccccmZC",
"vnnVzgkccccccccccccccccccccccccccv    iiiiiiiiPPPPUUUUPPPPqqqqqqqqqqqqPPPPUUUUPPPPiiiiiiii    ccccckxCnnnnvcnnvvnnccvnvcccccnVmn",
"nnNzjjcvcccccccccccccccccccccccccc    iiiiiiiiPPPPUUUUPPPPqqqqqqqqqqqqPPPPUUUUPPPPiiiiiiii    nvvvccckbnnnnvnnnkNncvcccccccvnnnc",
"nmzlbVVmvvcccccccccccccccccccc    ~~~~!!!!!!!!    UUUUPPPPiiiiiiiiiiiiPPPPUUUU    !!!!!!!!~~~~    cvkmnnnnnznnnkbVvncccccccvnnvn",
"nnvbnnmVZncccccccccccccccccccc    ~~~~!!!!!!!!    UUUUPPPPiiiiiiiiiiiiPPPPUUUU    !!!!!!!!~~~~    vkBmnnnnnzmnnvkbCncccccccvnnnn",
"nnvvnnbbbkcccccccccccccccccccc    ~~~~!!!!!!!!    UUUUPPPPiiiiiiiiiiiiPPPPUUUU    !!!!!!!!~~~~    vzVnnvnnckbnncccbvcccccccvnnnn",
"nnvvvzjjjjkcccccccccccccccnVzc    ~~~~!!!!!!!!    UUUUPPPPiiiiiiiiiiiiPPPPUUUU    !!!!!!!!~~~~    kNVnvvnvccbmvvcccccccccccvnnnn",
"vvckjjkkkcvcccccccccvvccccnmVj    !!!!!!!!5555    UUUUFFFFUUUUUUUUUUUUFDDDUUUU    5555!!!!!!!!    zbnkbVvccccvccccccccccccccvnnv",
"nnnnnvvkccccccccccccVCbkcvnnVj    !!!!!!!!5555    UUUUFFFFUUUUUUUUUUUUDDDDUUUU    5555!!!!!!!!    ccccvvccccccccckkkjkjkjcccccvn",
"nnnnnnNkccccccccccccnmCxkvnnmk    !!!!!!!!5555    UUUUFFFFUUUUUUUUUUUUFDDDUUUU    5555!!!!!!!!    nvvccccccccccckjjjjjjjjcccvvvn",
"nnnnnnCvcccccccccccvnnmNzvnnnc    !!!!!!!!5555    UUUUFFFFUUUUUUUUUUUUFDDDUUUU    5555!!!!!!!!    nnvvvncccccccccjjjjjjjkcccvnnc",
"vnVCmmVnccccccccccccccnnbcnnnvvvnn            UUUUUUUUUUUUUUUUUUUUUUUUUUUUUUUUUUUU            nbnnvbnnnnnccccccccccckkccccccvnnn",
"nnjkNSSbccccccccccccccvnvcnnnvcccc            UUUUUUUUUUUUUUUUUUUUUUUUUUUUUUUUUUUU            jNnvjVvnmvccccccccccccccccccccvnnn",
"nVkkjjmbcccccccccccccccnnccnnccccc            UUUUUUUUUUUUUUUUUUUUUUUUUUUUUUUUUUUU            zVvkNnjNbccccccccvccccvkzccccccNmn",
"nCccccjjcccccccccccccccnvvcccccccc            UUUUUUUUUUUUUUUUUUUUUUUUUUUUUUUUUUUU            CncjncknccvkjkcczzccnnbjccccccckCV",
"CZzcccckkckkkjjkjkcccccvcccccccccccccccc11    PPPPUUUUUUUUUUUUUUUUUUUUUUUUUUUUPPPP    ppccmcczvccvccccccxMbzcbNzknnmxbmkcccccckb",
"bZkcccjjjjjjjjjjjjjcccccccccccccvvcccvnn11    PPPPUUUUUUUUUUUUUUUUUUUUUUUUUUUUPPPP    ppcnZCcccccccccczbNmzznnmknnnvbNMkccccccvv",
"vjkcckjjjjjjjjjjjjkcccccccccknnnnnccppaaaa    PPPPUUUUUUUUUUUUUUUUUUUUUUUUUUUUPPPP    dppfdfncccnncccvzmnnvnnvvnnnvvnCxzcccccccc",
"vvccckjjjjjjjjjjjjcccccccckbVnnnnvvcppaaaa    PPPPUUUUUUUUUUUUUUUUUUUUUUUUUUUUPPPP    apppdpNccVSCccccnnvvnnncvnncnnnnbmmNnccccc",
"vccccckkjjjjjjjjccccccccckMVnnnnvvnvpaaapa    ttttPPPPPPPPUUUUUUUUUUUUPPPPPPPPtttt    apppddvcVVvVvcccnvvnnncccncnnnnnmmnbjccccc",
"ccccccccckckkcckjkkkjkcckmmnnnnvvnnnpaaaas    ttttPPPPPPPPUUUUUUUUUUUUPPPPPPPPtttt    aappddcvmnvnccccvnvncccccccnnnnnnkkvcccccc",
"vcccccccccccccjjjjjjjjjjbNVCVVnvnnnv2appa3    ttttPPPPPPPPUUUUUUUUUUUUPPPPPPPPtttt    p2ppddcvnnccccccvnvccccccccnzvcccccccccccc",
"ccccccccccccccckjjjjjjjjkcvcvkvVnnnn2pp22p    ttttPPPPPPPPUUUUUUUUUUUUPPPPPPPPtttt    2pppdpcnnncccccccccccccccnNmjccccccccccccc",
"vcccccccccvnccccccccccccccccvjCmnnnvppap<2    tttttttt    PPPPPPPPPPPP    tttttttt    11ppppcnnvcccccccccccvvcnmnbjccccccccccccc",
"ccccccvcccvmncvvcccccccccccckbZnnnnc1paa1<    tttttttt    PPPPPPPPPPPP    tttttttt    11ppppcvncccccccccccvjkknmnvjkccvvvvnkcccc",
"vcccnnnvvccvmVmnvcccccccccccjCnnnnvc1padp<    tttttttt    PPPPPPPPPPPP    tttttttt    2<<322vcccccccvccccvmvjjnnnckkcvnnnmNjkccc",
"cccnnnnnnnvnnmSAbkcccccccccjzVnnvvcc2paaa1    tttttttt    PPPPPPPPPPPP    tttttttt    23a232kcccccccccccccNmnjjnnvccvnnnmCkkcccc",
"cccnnnnnnnnmNNNbkcccccckccckcvcccccc13aaappp12        >><,::,>,,,,<,::::::        pp<3sfa2ffjcccccccccccccNVnnkvnvccnnnnCbkccccc",
"cvvvnnnnnnmmnkjvccckkkjjjjcccccccccc2<asappp11        >>1,::,<:>:,><::::::        2p3ass2pffkkcccccccccccccZNnnvnncvnnnmNknnnvvc",
"cnnnnnnnnnnmVVNmckkjjghggjjcccccccccjjNNpp22p1        :>3,:>:<a21a<<>;;:::        p23aaavbmmnccccccccccvcNmbVVnnnnvvnnnnbnNNmNNk",
"vnnmVvnnnnnnnnSAlkkjjjgjjjjcccccccccvcncpppppp        ::,>::::2f2,>>><;;:>        p2aaasnmnnmccccccccccccnAVNnNnnnnvnnvvnnnnmNkv",
"nnnnVVvnnnnbmCCzkcckjjjjjjjvcccckvvnnnvcpppppppdappppppppppppppd3<<22ss3<2pppfdadfp2aaafnmnnNcccccccccccccmVnnnnnnnvvcnnnnnNbkcc",
"nnnnnZNcvnmCCbjzccccccccckccckjvmNnnnnvcpppppdapappppppppppppppp3fa2<asfs22ppfaaadapdaasmmnnmcccccccccccccvnnnnnnnnvcvnnnnnkcccc",
"nnnnnnZCbkvckkccccccccccccccjmNmnnnnnncnvccvaapadpppppppppppp3ppaffappaaff232ddaddppnnnmVnnnnccccccccccccccccvvnnnccccccccvccccc",
"nnnnznnNCmzkcccccccccccccccjjzbNbbmnnnvnvcvnaaaaddppppppppppp2<ppsffapaaads22adapdppvnnnNnnnnccccccccccccccccccjjjjjkccccccccccc",
"nnbNjkvnnmNbzcccccccccccccjjjjjjgCnbncnnnvnnaaaadpppppppppppppa12aaffaaaaada2aaaddppvnnnnnnmvccvcccccccccccccckjjgjjjkcccccccccc",
"nnCmgkccvvzzkkccccccccccckjjjjjjjCmbvnnzbnnn2fafppppppppppppppap32aadfaadadappadddppcvnnnnnncccccccccccccccccccjgjgjkccccccccccc",
"VNSzjkcczckccccvckkckcccckjjjjjjzClbnnvjNNxljCNxccccccccvccckjjbnzknnnnnnnnnncvnnnccccvnnnncccccccccccccccccccccjkkccccccccccccc",
"mSNjjvcccckkjkjjkjjjjjkkccjjjjjjjlgNnnjjlljjgljccccccccccccccxljvnbvvnnnnnnnncvnnnccccccccccccccccccccccccccccccccccckkkcccccccc",
"vClgkcccckjjjjjjjjjjjjjjkcjjjjjjjjjmvjjjjjjjjjcccccccccccccccmVNbnnnnvnnnnnvvvccvvccccccccccccccccccccccccccvkcccccjjjjjkccccccc",
"vvkjcccccckjjjjjjjjjjjjjjccjjjjjjjjzjjjjjjjjjzkkkkccccccccvccnVnmNNNmvvcvvvvccccccccccccccccccccccccckjkjjkjjkccccjjhggjjkcccccc",
"vcccccccccccckkkjkjkjkjcccccjjjjjjjjjjjjjjjkcckjjjjcccccccmvccNnnnmmmmvcccccccccccccccccccvmjcccccccckjjjjjjjkcccckjjjkkccccnccc",
"vcccccccccccccccccccccccccccckjjjhjjjjjjjjcccccckkccccccccnmccvnnnnnmnnvcccccccccccccccvkkNSjkcvccccckjjjjjjkccccccvvcccccvCZjkc",
"cccccccccccccccccccccccjkkvcccccckjckjccccccccccccccccccccnNcccvnnnnnnnnvccccccccccccccnzkZNNjcmjccccccccccccccccvxjkcvvjnNmCgkv",
"kcccccccccccccccccccckjjjkcccccccccccccccccccccvccccccccccnNcccccnnnnnnnnvccccccccccvvkNxbVnnjnNjcccccccccccccccbCCjvmANjmnmbzCk",
"ccccccccccccccccccccccccccccccccccccNncccccccccccccccccccnnNccccccccvvvvccccccccccccCAxNbbmnvvnnzkvccccccccccccbVnmzCVVbvnnnbVNj",
"vcccccccccccccccvNVmnccccccccvVmcccNSncccccccccccccccccccnnncccccccccccccccccccccccvNNZmNNnnvvnnbkcccccckkcccccCnnmBmnmmnncnnnNj",
"NmvcccccvcccccccvVZVSmccccCNvZZnccmCNcvmnccccccccccccccvvnnkcccccccccvccccccccccccvmmnCVCNnnvnnnblcccvNCZbkcccnmnvmnnvvbnvnbnmbm",
"NCNkcccmVccvvmCCVnVnmCvccVAvCNnccvCnnvmCvccccccccccccccvnncvnmVVCmcccccccccccccccccmNnnCNNnnnnnnNjccnSAZZkkcccnnvnnnvccvncnnnnNn"
};
