/* XPM */
static char *result[] = {
/* columns rows colors chars-per-pixel */
"128 128 78 1 ",
"  c #000000",
". c #0F0605",
"X c #470809",
"o c #620001",
"O c #5C7700",
"+ c #5D7B00",
"@ c #617E00",
"# c #1E1D60",
"$ c #841918",
"% c #BF231B",
"& c #86303A",
"* c #853C3B",
"= c #883E3E",
"- c #FF130D",
"; c #FF1711",
": c #FF1A15",
"> c #FF1F19",
", c #C12017",
"< c #C0271E",
"1 c #FF221D",
"2 c #FF2923",
"3 c #FF3733",
"4 c #FF433F",
"5 c #FF5B56",
"6 c #5E8200",
"7 c #638500",
"8 c #698600",
"9 c #668800",
"0 c #6B8A00",
"q c #728E00",
"w c #749000",
"e c #799200",
"r c #8BAD00",
"t c #8CB400",
"y c #8EBC00",
"u c #91B600",
"i c #92BC00",
"p c #98BF00",
"a c #8FC300",
"s c #92C500",
"d c #9AC400",
"f c #97C900",
"g c #9BCB00",
"h c #A0C700",
"j c #A2CD00",
"k c #A8CE00",
"l c #A5D100",
"z c #ABD400",
"x c #B0D700",
"c c #B3D900",
"v c #B9DD00",
"b c #DFD800",
"n c #DE8E65",
"m c #DB9668",
"M c #E7956B",
"N c #EA976C",
"B c #EC996E",
"V c #FF827F",
"C c #EAA473",
"Z c #F5AF7B",
"A c #F7B17D",
"S c #F8B27E",
"D c #312E8C",
"F c #0063B4",
"G c #FFB5B3",
"H c #FDD1B8",
"J c #D1D1D1",
"K c #FDCFCD",
"L c #F1D1CF",
"P c #F4DFDE",
"I c #FBDEDE",
"U c #F4E7E7",
"Y c #F5EFEE",
"T c #F9ECEC",
"R c #F6F4F4",
"E c #F8F0F0",
"W c #F7F8F8",
"Q c #FDFDFD",
/* pixels */
"yyyaaajgjyyaafgasffffffagjjjfffaslffffglsaaaaaaaaaaaaaaaaffffffffgxyaaaaaaaaaaaaaaaafffffsffafffjaafgfflhyaaaasffffaaaasasfffffg",
"saaaagfgjrtaaafaasffffsajffffffaffffffffaaaaaaaaaaaaaaaaaafasfgffgkstaaaaaaaaaaaaaaasffffsffffffgysffffzyaaayyyffaaaaaaaasffffsy",
"saaaaffgdttaaaaaaasfffffgfsffffaffffffsfaaaaaaaaaaaaaaaaaaasssittttytaaaaaaaaaaaaaaasffffsasffffssfffflhyflxczpysaaaaaaaaaasaaaa",
"aaaaffffiyyaaaaaaaasffssffffffsaffffsaasaaaaaaaaaaaaaaaaffffffglzlfsaaaaaaaaaaaaaaaaasfffsasffffasffgflifjggjxiyyaaaaaaaaaaaaaaa",
"saaaffffffffsaaaaaaaffssffffffaafffaaaaaaaaaaaaaaaaaaaafffffffffgcvjysaaaaaaaaaaaaasaasffsaasfffafffflssfffgldjziyaaaaaaaaaaaaaa",
"aaaafffffsfgglsaaaaaasaffasffsasffaaaaaaaaaafsaaaaaaaaaafffaaaajzfiyyyagaaaaaaaaaaaaaaafffaaaaaaaffffssfffgsglglyaaaaaaaaaaaaaaa",
"saaasfssfssttttsaaaaaaaafafffaasfaaaaaaaaaasjaaaafsaaaaaaaaaaafsyyaaaszzaasglgaaaaaaaaaaaaaaaaaaafffaasfffsfgfggtsaaaaaaaaaaaaaa",
"saaaafffffffsatyaaaaaaaaaaffaaaaaaaaaaaasaasgaafjzfaaaaaaaaaasaaaaaaslldysfgjyyaaaaaaaaaaaaaaaaaasfaaaffffffffgiyaaaaaaaaaaaaaaa",
"aaaafffffffffsssaaaaaaaaaaaaaaaaaaaaaaaassiffasjgsaaaaaaaaaaaaaaaaasgggisffjittaaaaaaaaaaassgaaaaaaaaaffffffffjyaaaaaaaaaaaaaaaa",
"saaasfffffgffgiaaaaaaaaaaaaaaaaaaaaafaafatsfsigfoooooooooooooooooooooooooooottsaaaaaaaaaaaadzaaaaaaaaaafffffffayaaaaaaaaaaaaaaaa",
"aaaaasffffffgjsaaaaaaaaaaaaaaaaaaaaafaaftiffffffooooooooooooooooooooooooooooiggfaaaaaaaaaaallaaaaaaaaaaffffffyyaaaaaaaaaaaaaaaaa",
"iyaaaaaasffiukdaaaaaaaayaayytyyyaaasfassyfffffffooooooooooooooooooooooooooooggjllsaaaaaaaaagfaaaaaaaaaaafffsayaaaaaaaaassaaaaaaf",
"taaaaaaaaaffsttaaaaaaaytttttttttyaaffffssffffffgoooooooooooooooooooooooooooogfglxgaaaaaaaaysfaaaaaaaaaaaaaaayaaaaaaaaaafyyfpyasz",
"aassaaaaasglliysaaaaaaaaattyttytaaffffssoooooooo;;-------;------------------oooottaaaaaaaaysffaaaaaaaaaaaaaaaaaaaaaaasldyfjtaflh",
"sffhdtysaayiptaaaaaaaaaaaaaaaaaaaafffaasoooooooo;---------------------------oooottyaaasfgffyafsaaaaasaaaaaaaaaaaaaaasfgpigdysfzt",
"fgghsytttaaayyaaaaaaaaaaaaaaaayttaaaaaasoooooooo----------------------------ooooaaaaallgggfffsfaaaaaaayayyyyyttaaaasfffsfjtsgggy",
"ffiiyytyyaaaaaaaaaaaaaaaaaaaaaaaaaaaffffoooooooo----------------------------ooooaaaajvzjgffffsaaaaytttttttttttttsaasfffffssfffff",
"ffgjziyaaaaaaaaaaaaaaaaaasasaaaaaaaaoooo----------------------------------------oooosiipisaaaaaaaayttttttttttttyaaaafssasfffgfff",
"sssfdiayyttytttyttttyaffffffssaaaaaaoooo----------------------------------------ooooysdhggfffsaaaayttttttttttttaaaaaaaaasfsffffs",
"aaiyaaytttttttttttttyasffffffffsaaaaoooo----------------------------------------oooojxvlfffffffaaaayytttttttyyyaaaaaasyaaasasaaa",
"aatysyyyttttttttttyyaaaafffffffffaaaoooo----------------------------------------ooooyidhgssssssaaaaaaayyyyyaaaaaaaasjgysasyaaaaa",
"asfjjtsyayyyyyyyaaaaaaaaafjfffffgsaaoooo------------------------------------>>>>ooooayyyisaasaaaaaaaaaaaaaaasgysaaagggtfjjyaaaaa",
"ffglyaaaaaaaaaaaaaaassssssfjljggggaaoooo------------------------------------>>>1ooooaasasaatyaaaaaaaaaaaaaaafjdyaasfssfgghyaaaas",
"fggiaaaaaaaaassaaaassffffsfffgggllaaoooo------------------------------------>>>1ooooaaaaaaattjsaaaaaaaggyaaaffztssffffffldaaaaff",
"sssaaaaaaaaaasffsafffffffffssfsyuspaoooo------------------------------------>>>1ooooaaaaaaytsvlaaaaaaalzdissffjiaffffffljiaasass",
"iiyasfffsaaaaffffasfffffffffaaffoooo%%%%------------------------------------TTWWYYWWooooaattxzlsaaaaaagfzdysffgisfffffgjiyaffsfs",
"zfasffffffaaaffffsigfffffggffytsoooo%%%%------------------------------------TTWWYYWWooooaaricffaaaaaaafsfjysfffiffffffiysaassffg",
"saafffffffsaaffffftifffffslgffttoooo%%%%----------------------------------IIWW33GGGG;;oosyrdjffsaaaaaaaafgssfffsfffffgdsyaaaaaaa",
"sasfffgggffaafffffytfgfgfsslggfyoooo%%%%----------------------------------IIWW33GGGG;;oogfyfffffaaaaaaaaffsafffaaasssflxpyaaaaaa",
"saffffjgfffaagfffgyaugjffsasjlfa    %%%%----------------------------------IIEE--2155;;UUoooofffsaaaaaasasffasffaaaaafjgiyaaaaaaa",
"aagggfgjfffsagfffgiayydjgfttykds    %%%%----------------------------------IUER--1155;;UUoooofffsaaaaaaaasfffasfaaaaaaaaaaaaaaaaa",
"sigffgggfffsyjfffjiaaitsjgitttif    %%%%----------------------------------EERR--12-->:YYoooofffaaaaaaaaaysayyyyyyayaaaaaaaaaaaaa",
"ayggflsggffiiggffjiaaaatugdgayyv    %%%%---------------------------------;EERR--21--::EEoooofffaayyttttttttttttttttttttyaaaaaaaa",
"syslfjagfffyafgfgktaaaaaytpvzlal    %%%%%%%%----------------------------%%YYRR--VV5522ET45--    tttttttttttttttttttttttttyaaaaaa",
"sayjjfigfgpysslgjstaaaaaaayzfgga    %%%%%%%%----------------------------%%EYRR--VV5522TT44--    tttttttttttttttttttttttttyaaaaaa",
"aayslisljdtyaijzgtyaaaaaaaaszfff    %%%%%%%%----------------------------%%LLWW::RRKK;-TT----    ttttttttttttttttttttttyysfaaaaaa",
"syyyftsjityaaifdtyaaaaaaaaaaglff    %%%%%%%%----;-----;;----------------%%LLWW::WWKK-;UT----    aaaaayaasyaayyyiasfsaasfffffffaa",
"saaytytttaaaaattyaaaaaaaaaaaagzf    %%%%%%%%%%%%%%%%%%%%%%%%%%%%%%%%%%%%%%<<WW::WWII11RR----    aaaaaaayyttttijgfffssaffffffffla",
"ssaayayasaaaaayyaaaaaaaaaaaaaaff    %%%%%%%%%%%%%%%%%%%%%%%%%%%%%%%%%%%%%%<<WW::WRII11RR----    aaaaattttttudjffffssfsfffffggjzl",
"ffsaasaaaasasaasayaaayyyyaaagzjf    %%%%%%%%%%%%%%%%%%%%%%%%%%%%%%%%%%%%%%%%%%--IPTTGG------    aaaattttttuhggggfssfffsfffgjldgx",
"ffsaffsasffgggfyttttttttttyagzgf    %%%%%%%%%%%%%%%%%%%%%%%%%%%%%%%%%%%%%%%%%%--PPTTGG------    aaaytttttttpddhdsgffffaffsffjxdi",
"ffasffsaassffgzpttttttttttyaaafg    %%%%%%%%%%%%%%%%%%%%%%%%%%%%%%%%%%%%%%%%%%%%%%%%,,,,%%%%    aaattttttttttttthlfffsasfsiffgxs",
"gfafffssffffghittttttttttttaaaaa    %%%%%%%%%%%%%%%%%%%%%%%%%%%%%%%%%%%%%%%%%%%%%%%%,,,,%%%%    aaaytttttttttttizgfffsyaffstsfjg",
"lasfffssffffghsttttttttttttytyaa    %%%%%%%%%%%%%%%%%%%%%%%%%%%%%%%%%%%%%%%%%%%%%%%%,,,,%%%%    ggatttttttttttrjggffsttasfgttsfj",
"fafgffiyfffffflfttttttttttrudsia    %%%%%%%%%%%%%%%%%%%%%%%%%%%%%%%%%%%%%%%%%%%%%%%%,,,,%%%%    xxsytttttttttrygffsaytttffjaytyg",
"aaslflitsgffffgjdtttttttttulzjisXXXX    %%%%%%%%%%%%%%%%%%%%%%%%%%%%%%%%%%%%%%%%%%%%%%%%    glhfsiasstttttrrtttttttttttysggaayaa",
"saagzjtttdzgffzjztttttttttjgfjsaXXXX    %%%%%%%%%%%%%%%%%%%%%%%%%%%%%%%%%%%%%%%%%%%%%%%%    ffjhgfsyaatrrrrrrrttttttyyyifgsaaaaa",
"asasjittttpzzttpkdirtttttilgfgfaXXXX    %%%%%%%%%%%%%%%%%%%%%%%%%%%%%%%%%%%%%%%%%%%%%%%%    fffgcciisytrrrrrrrtttyyaasyygfaaaaaa",
"sffaaatttttydttrtijdutttysjfffgiXXXX    %%%%%%%%%%%%%%%%%%%%%%%%%%%%%%%%%%%%%%%%%%%%%%%%    gfgzziyaytrrrrrrrryyayysffffsaaaaaas",
"sffaaayyttttthgyrufgjdtyssggffgyXXXX$$$$                                    oooo        ====gjgdtaaayyttrrrrttyyisggffffsssaaaff",
"affsaaaaytrttfjjfiffgggtaiffffgaXXXX$$$$                                    oooo        ====isyasaaaaaayaayayasjggggfffssfsyasff",
"sffiaaaaaayytpggjgsffggfyyfffffaXXXX$$$$                                    oooo        ====gfysaaaaaasiysaaaaaaffihgffsfffsffff",
"gjiaaaaasyafitafgggffffgfyfffffaXXXX$$$$                                    oooo        ====sptyaaaaaayddiaaaaaaastzgfafgsdfffyd",
"dsaaaaaasttiffaafffffffffaaffffaaassXXXX$$$$$$$$$$$$$$$$XXXX$$$$XXXXHHHHHHHHJJJJ####SSSS====ayaaaaaaaaajzhsaaaaaaaikidffftkgfayh",
"isaaaaaaaidiyffsffffsfffffasffsaaaaaXXXX$$$$$$$$$$$$$$$$XXXX$$$$XXXXHHHHHHHHJJJJ####SSSS====aaaaayyaaasjgjjsaaaaaaastgffayisasti",
"aaaaaaaaafjjhdjgfssffffsssaaaaaaaaaaXXXX$$$$$$$$$$$$$$$$XXXX$$$$XXXXHHHHHHHHQQQQDDDDSSSS====aaaaayptyyahgfgksaaaaaayifssaaaaaaai",
"aaaaaaaaaaggfgggggfsaasaaaaaaaaaaayaXXXX$$$$$$$$$$$$&$$$XXXX$$$$XXXXHHHHHHHHQQQQDDDDSSSS====aaaaayczhttdffffgaaaaaaaasaiyyyaaaaa",
"aaaaaaaaaasfffffgffsaaaaaayyytttttttttttXXXX$$$$$$$$XXXX========XXXXHHHHSSSSRWWWDDDDSSSS====ysaaayxllzdffffffsaaaaaaaitpdffssaaa",
"ffsaaaaaaaaasfffgffffaaaaytttttttttttttyXXXX$$$$$$$$XXXX========XXXXHHHHSSSSWWWWDDDDSSSS====zaaaaazgffggsafffaaaaaaaaflgssfssglg",
"ffffaaaaaaaaaasfffffffaaaayttttttttttyaaXXXX$$$$$$$$XXXX========XXXXHHHHSSSSRRWWDDDDSSSS====yaaaaagjffgfffsssaaaaaaayityssaajlgf",
"ffffsaaaaaaaaaaaaaaaaaaaaaaaaayyyyyaaaaaXXXX$$$$$$$$XXXX========XXXXHHHHAAAZRRWWDDDDSSSS====daaaaaaffffffffsaaaaaaayttdjffaassff",
"ffsfaaaaaaaaaaaaaaaaaaaaaaaaaaaaaaaaaaaaXXXX$$$$$$$$**==HHHHHHHH====SSASSAACWWWWDDDDSSSS====laaaaaaiysssssfssaaaaaatudggfaflggff",
"aaasffaaaaaaaaaaaaaaaaaaaaaaaytyaaaaaaaaXXXX$$$$$$$$&===HHHHHHHH====SSSSSSAGWWWWDDDDSSSS====aasytttrtsaafffffsaaaaaaggfsaglggfas",
"fasfffaaaaaasaaaaaaaaaaaaaaaaayxgfsaaaaaXXXX$$$$$$$$*o==HHHHHHHH====SSSSSSAAWWWWDDDDSSSS====aayyttisfaffffffffaaaaasjfsagzlgafff",
"sfsfffaaaaaaaayayyyaaaaaaaaayttsfsaaaaaaXXXX$$$$$$$$****HHHHHHHH====SSSSSSSSWWWWDDDDSSSS====aaaaczgfffffsfffffaaaasyttiagfffffff",
"sfasfaaayytttttttttttaaaaaaaakkiaffffaaaaaaa====BBBB*===CCZZSSSSCBBBSSSS                    aaaafzzllfyfgffsffaaaaaaaifsfffffffy",
"ssasaaaaytttttttttttaaaaaaaaasggfffffffaaaaa====BBBB====CCZZSSSSBBBBSSSS                    aaaaaaasttdgffsfffaaaaaaszlgfffiffst",
"faaaaasaaayytttyyyyaaaaaaaaaaisffffffffsaaaa====BBBB*===mmZZSSSSBBBBSSSSSS. .   .       . ..aaaaaaattdgffyffgsaaaaaaaaafggiagfya",
"aaaaaaaaaaaaaaaassaaaaaaaaaayyssfgfffffaaaaa====BBBB*===mmZZSSSSBBBBSSSSSS       .        ..aaaaaaytplffiijzgaaaaaaaaslzhsafgsaa",
"saaaaaaaaaafaaafffafaaaaaaaaattttsfssffsaaaaaaaa    MMNN*=====*=SSSSSSSSSSAZ              aaaaaaaaaazgfasgxgsaaaaaaaaaaaaaagfaaa",
"aaaaaaaaaafffaffffsfafsaaaaaafgfdffsffffaaaaaaaa    MMNM**===**=SSSSSSSSSSAZ.             saaaaaaaaaayyyyssaaasyassiaaaaaaafaaaa",
"saaaaaaaffffasfffsffafffsaaaaaaafsssffffaaaaaaaa    nnnn*****===SSSSSSSSSSAAASSSSSSS====fffsaaaaaayttrttttyaaysgggfssfsfsaaaaaaa",
"aaaafasfffffaffffsfffffffaaaaaaaattdfffaaaaaaaaa    nnnn****=*=*SSSSSSAASSAAAASSSSSS====ffffsaaaytrtttrtrrttaagxjgffffffsaaaaaaa",
"aaaajfffffgsaffgfgfgafffffaaafaaattjggfaaaaaaaaaasis    ==*=BBBBBBBB================fffafffffaaatttrrttrttrtyyyypdfsssssaaaaaaaa",
"aaaazffffsssaffggjjfafffffffflfaayyljgaaaaaaaaayifgg    ====BBBBBBBB================sfffffffffaatttrtrrtttttaygjgffffssaaaaaaaaa",
"asafzfsfsyaasfllgzjaafzgglglzlgaaaalgaaaaaaaaypjlggg    ====BBBBBBBB================sffgglgfflaattrtrttrtttasasjggfffffssaaaaaaa",
"aaaffaflfsaafzlslgaaaalzjxgaaaaaaaaasaaaaaaasfsfjddg    ====BBBBBBBB================sffljjxgflaaayyytyyytaaaaaaafffsaffssaaasaaa",
"aaaasagzyaaaffaasaaaaaasfffaaaaaaaaaafyaspyafzuystdg    ####FFFFFFFF----####saaatlgsafflfkdczsaaaaaaaaaaaaaaaaasssaafgsaaaaaaaas",
"aaafjgssaaaaaaaasaaaaasaaaaaaaaaaassjdyfhyafjdyaatkh    ####FFFFFFFF----####aaasthfyffghijydzaaaaaaaaaasaaaaasasfsaaffsaaaasaafz",
"ysfflaaaaaaaaaaaaaaaaaaaaaaaaaaaaasggtsjpisfktsfhjkt    ####FFFFFFFF---;####aaaaypftdgjgtgiysaaaaaaaysgfaaaafsasfsaagfaaaaaaafzz",
"sfflittaaaaaaaaaaaaaaaaaaaaaaaaaasfffffgysfgfsfgdpst    ####FFFFFFFF----####aaaaayaatzzstsaaaasyaaaaizgfffsaffssffaasgaaaaaaflff",
"ffjirusaaaaaaaaaaaaaaaaaaaaaaaaaasfffsssffffffffffpu    ####--------########aaaaaaaaysssaaaaaffsssaysisffffsfffyhgaaaaaaaaaafffs",
"fjiufjjdfaaaaaaaaaaaaaaaaaaaaaaaaaaaaasffffffffssghi    ####--------########fffssaaaaaaaaasiyddfffasydfffffifffyplffaaaaaaasffsf",
"fssgfggzxgaaaaaaaaaaaaaaaaaaaaaaaaasaaassaaasaaaaias####FFFF--------####----fffffffaaaaaaaasssssaasyjjfffffigffsyfzfaaaaaaafffff",
"fffsfffdsyaaaaaaaaaaaaaaaasaaaaaaslgyasfaaaaaaaaipfy####FFFF--------####----ffggffffsaaaaaydgffsaaaijffsffayhgfaaafsaaaaaaasffff",
"fsssiyttttyaaaaaaaaaaaaaaasjyaaasffsigjkyaaaaaasfjhy####FFFF--------####----sgjggfffgsaaaygjfssaaaykjfsffsaasgsaaaaaaaaaaaasffff",
"ssayytyyisaaaaaaaaaafsiaaafgltsafffffglpyaaaaffgjfys####FFFF--------####----sfgggghjjfaaayfpaaaaaaygfsslsaaaasaaaaaaasaaaaaasffs",
"ffffsssaaaaaaaaaaaaalzsysfffltaffffffgjyaaaaffaf    ########--------####bbbb####ffppdsaaasyiaaaaaaaaaapsaaaaaaaasyyyttyttaaaaasf",
"ffffffjaaaaaaaaaaaaaggzsysffgyafffffgjiaasfssssp    ########--------####bbbb####isfittyaaadssssffsffsaaaaaaaaaaayttttttttaaasssf",
"fgfgffzsaaaaaaaaaaassfgjisfffaffffffpyaaassffggf    ########--------####bbbb####stifsyaaaihdffffffffsssssaaaaaaaatttttttyaaasffa",
"asjzjflfaaaaaaaaaaaaaaffssfffaffffggjgyaaaaaaasa    ########--------####bbbb####gfytssaaaasiffsfffsfffffsaaaaaaaaaayyaaaaaaaffff",
"fgtijcvdaaaaaaaaaaaaaafffsfffaaaaasgzdysaaaaaaaa    FFFFFFFF----QQQQQQQQ    ####ggsityaaaykzjftjfstlpsffaaaaaaaaaaaaaaaaaaaasfff",
"flyyttdpaaaaaaaaaaaaaasffsasfaaaaafyyaaaaaaaaaaa    FFFFFFFF----QQQQQQQQ    ####jjiaasaaaaaaayplsydftjgssaasaaaaaaaasyiaaaaaajgf",
"flasaaytaaaaaaaaaaaaaaafsaaaaaaaaaaaaaaaaaaaaaaa    FFFFFFFF----QQQQQQQQ    ####O@ssaaaaaaaaayzfstgayfaasityaaayaaffdtaaaaaaayjl",
"xxyaaaaayyyyytyttyyaaaasaaaaaaaaaaaaaaaaaaaaaaaa    FFFFFFFF----QQQQQQQQ    ####7+jzfaaaaagsyisaaaaaaaayihdyifkiyffgppgyaaaaaasd",
"dxyaaatttttttttttttaaaaaaaaaasaaasaaasfffssa    FFFFFFFFFFFF    JJJJJJJJ    ####08ggzgaaafxlaaaaaaaaasifjgiifggifffsflhyaaaaaasi",
"styaaytttttttttttttaaaaaaaasyfffffaaffffffff    FFFFFFFFFFFF    JJJJJJJJ    ####79fffggaalflfaaaggaaaasgffaffffffssffliyaaaaaaaa",
"saaaaytttttttttttyaaaaaaaaydlffffsfaffffff79    FFFFFFFFFFFF    JJJJJJJJ    ####0777fffaafffgaazvlaaaaffssffsaaffafffggjgjfaaaaa",
"saaaaayyttttttttyaaaaaaaaydjffffssfsffffff09    FFFFFFFFFFFF    JJJJJJJJ    ####7099ffffaffffallslaaaafssffsaaafafffffgggpyaaaaa",
"aaaaaaaaaayayaayyyyyyyaaydgffffsafffafffgl89    FFFFFFFFFFFFFFFF        FFFF&&&&    ffffafffsagfsgaaaaffffsaaaaaaffffgfyyaaaaaaa",
"saaaaaaaaaaaaattttttttttsjlzzlfsffffafsfffq0    FFFFFFFFFFFFFFFF        FFFF&&&&    fssaafffafffaaaaaaafsaaaaaaaafissaaaaaaaaaaa",
"aaaaaaaaaaaaaaayytttttttiasaayazffffaf76799w    FFFFFFFFFFFFFFFF        FFFF&&&&    gffaaffaaffsaaaaaaaaaaaaaaafldtaaaaaaaaaaaaa",
"saaaaaaaaassaaaaaaaayaaasaaastzgfffsaa77+779    FFFFFFFFFFFFFFFF        FFFF&&&&    aaaaassaaffaaaaaaaaaaaaaaasgfftyaaaaaaaaaaaa",
"aaaaaasaaasgfaaaaaaaaaaaaaaaydzffffaya77    &&&&########FFFF########&&&&&&&&&&&&    aaaaaaaaasfaaaaaaaaaassttsfgfstyaaasssfyaaaa",
"saaafffasaasgjggayaaaaaaaaaytzffffsata77    &&&&########FFFF########&&&&&&&&&&&&    asttuittaaaaaaaaaaaaasgstysgfayyaffffgjtaaaa",
"aaaffffffffffgvvfyaaaaaaaaatilffssaaty67    &&&&########FFFF########&&&&&&&&&&&&    atudsyiiyaaaaaaaaaaaaajfstuffayyafffgztiaaaa",
"aaaffffffffgjjksyaaaaayaaaayafaaaaaayi78    &&&&########FFFF########&&&&&&&&&&&&    tygzdtggyaasaaaaaaaaaajlffysffafffffzfyyaaaa",
"asssffffffggdyysaaaaytttttsaaaaaaaaayt89    &&&&&&&&&&&&    8077987w            0966ugghsskjyyaaaaaaaaaaaasxjffsffaafffgjyfffssa",
"affffffffffgjljgayytrtrtrtyaaaaaaaaayt89    &&&&&&&&&&&&    6009700w            996+sffhsfgjfaaaaaaaasaafgddzjffffsafffsfggjglhy",
"fffflsfffffffgvxiytttttrtrtaaaaaaaassi96    &&&&&&&&&&&&    669e7+69            907+fffjfgffgaaaaaaaaaasafcljggfffffffsfffgfghys",
"ffffzjsffffggzziyaayyttttttaaaaaysffff76    &&&&&&&&&&&&    66697OOO            786+fffjfgffjaaaaaaaaaaaaaglfgfffffasssfffgjsaaa",
"fffffxjassgzzdtiaaaaaaaaayaaaytaggffff667666            66666666786+O7988O6668797966ffggggffgaaaaaaaaaaaaasffffffffaasfffffisaaa",
"fffffgxzsyasyasaaaaaaaaaaaaatgjgggffff676666            66666+66+0q7667988+7+9777976fffglffffaaaaaaaaaaaaaaaassfffaaaaaaaaaaaaaa",
"ffffyfflzgiyaaaaaaaaaaaaaaattighdsgffssffa67            66666+O668907677799++7977966ffffjfffsaaaaaaaaaaaaaaaaaatttttyaaaaaaaaaaa",
"ffgjtysfgjjdyaaaaaaaaaaaaattttttrzggfsffsf77            6666667OO99907679997O7777766afffffffsaaaaaaaaaaaaaaaaaytrtttttaaaaaaaaaa",
"gfkftyassiiiyyaaaaaaaaaaayttttttrzgfsffiff77O8907666666666666676+O799077777766799966asffffffaaaaaaaaaaaaaaaaaaatttrtyaaaaaaaaaaa",
"jgviryaaaayaaaayaaayayaaayttttttizudffstkg8OOq07666666666666+OO776O77797697966777766aaaffffaaaaaaaaaaaaaaaaaaaaaytyaaaaaaaaaaaaa",
"gvkttaaaaayttytttttttyyyayttttttuurhfsyruuttruO+66666666666667+O77777779996996677766aaaassaaaaaaaaaaaaaaaaaaaaaaaaaayyyaaaaaaaaa",
"szuryaaaayttttttttttttttyaytttttttrgstttuttttt66666666666666690998977777696666666766aaaaaaaaaaaaaaaaaaaasaaaaaaaaaytttttyaaaaaaa",
"ssytaaaaasyyttttttttttttyayttttttttsttttttttuysyyyaaaaaaaasaafzgggjjgsaasffssaasaaaaaaaasaaaaaaaaaaaayyytttttyaaaaytttrrtaaaaaaa",
"saaaaaaaaaasayyyyytytyyyyaayyttttttttttttttyyaytttyaaaaaaagsasgffffgggfaaaaaaaaaaaaaaaaaasagtaaaaaaaattttttttyaaaayytytyaaaafaaa",
"saaaaaaaaaaaaaaaaaaaaaaaaaaaaytttttttttttyaaaaaayyaaaaaaaafgaasffffffffaaaaaaaaaaaaaaaaayagviyaayaaaayttttttysaaaaayaaaaaaslxyya",
"aaaaaaaaaaaaaaaaaaaaayyyyaaaaaaayyyyyyyaaaaaaaaaaaaaaaaaaafjaaasffffffffsaaaaaaaaaaaaaagiyxjhtagyaaaaaaaaaaaaaaaaaptyaastslgztys",
"yaaaaaaaaaaaaaaaaaaaaytttyaaaaaaaaaaaaaaaaaaaaaaaaaaaaaaasfjaaaaaffffffffsaaaaaaaaaassyjpslfgtsltaaaaaaaaaaaaaaaszxtsgxktgfgfuzy",
"saaaaaaaaaaaaaaaasaaaaaaaaaaaaasaaasgfaaaaaaaaaaaaaaaaaaaffjaaaaaaaaffaaaaaaaaaaaaaazvpjhdgfssfgiyaaaaaaaaaaaaafzgdizlldifffdjjt",
"saaaaaaaaaaaaaaaagjgfaaaaaafaazgaaagvfasaaaaaaaaaaaaaaaaafffaaaaaaaaaaaaaaaaaaaaaaasjjzgjkffasffdyaaaaaayyaaaaslgsgzgfggffafffkt",
"ggsaaaaaaaaaaaaaalxlcjaaaazjfzzfaagzlasgfaaaaaaaaaaaaaaasffyaaaaaafaaaaaaaaaaaaaaasgggzlllffsfffdiaaasgxxpyaaaggfsgffsfffssfggpg",
"lxhyaaaglaassgzzlglgfzfaajzfzjfaafzffsglsaaaaaaaaaaaaaaffsssffllzgaaaaaaaaaaaaaaaaaggffzlhfffffghtaagvxxxyyaaagfssffsaasfsfffgjf"
};
