/* XPM */
static char *result[] = {
/* columns rows colors chars-per-pixel */
"128 128 45 1 ",
"  c #000000",
". c #490707",
"X c #7B0C10",
"o c #5C7700",
"O c #5D7B00",
"+ c #617D00",
"@ c #1E1D60",
"# c #841918",
"$ c #BF231B",
"% c #86303A",
"& c #CF0703",
"* c #FF130D",
"= c #5E8200",
"- c #638500",
"; c #688600",
": c #668800",
"> c #6B8A00",
", c #738F00",
"< c #749000",
"1 c #799200",
"2 c #8BAD00",
"3 c #8CB400",
"4 c #8EBC00",
"5 c #91B600",
"6 c #92BC00",
"7 c #98BF00",
"8 c #8FC300",
"9 c #92C500",
"0 c #9AC400",
"q c #97C900",
"w c #9BCB00",
"e c #A0C700",
"r c #A2CE00",
"t c #A8CE00",
"y c #A5D100",
"u c #ABD400",
"i c #B0D700",
"p c #B3D900",
"a c #B9DD00",
"s c #EBA277",
"d c #00719E",
"f c #0069AB",
"g c #0063B4",
"h c gray82",
"j c white",
/* pixels */
"444888rwr4488qw89qqqqqq8wrrrqqq98rqqqqwy98888888888888888qqqqqqqqqp48888888888888988qqqqq9qq9qqqr88qwqqyr388889qqqq888898qqqqqqw",
"98888wqwr23888q889qqqq88rqqqqqq8qqqqqqqq888888888888888888999qqwwwr03888888888888888qqqqq9qqqqqqw49qqqqu6489444qq888888888qqqq94",
"98888qqw03388888889qqqqqwqqqqqq8qqqqqqqq888888888888888888899963333438888888888888888qqqq989qqqq08qqqqyr4qyupy749888888888888888",
"8888qqqq448888888889qqq9qq9qqq88qqqq98888888888888888888qqqqqqwyuyq8888888888888888989qqq989qqqq88qqqqu4qrwwyp584888888888888988",
"9888qqqqqqqq98888888qqq8qqqqqq88qqqq8888888888888888888qqqqqqqqqwaay4888888888888888888qq9888qq98qqqqrq9qqqqr0yu6488888888888888",
"8888qqqq99qwwr9888888989q8qqq989qq8888888888q988888888889qq9988ry053488w888888888888888qq98888888qqqq99qqqqqwywy4888888888888888",
"98889q999q7433398888888898qqq889q88888888889r88889988888888889qq488889uu889wyw8888888888998888888qqq889qqqqqwqww3988888888888888",
"98888qqqqqqq96448888888888q98888888888889889w88qruq888888888888888889yy049qwr448888888888888888889q9889qqqqqqqw64888888888888888",
"8888qqqqqqqqq968888888888888888888888888946qq80ww9888888888898888888wrq69qww7338888888888889w888888888qqqqqqqqy48888888888888888",
"98889qqqqqqqww8888888888888888888888q889849q96wqqwww8888888888888888wqq9qqw7338888888888888wu888888888qqqqqqqw448888888888888888",
"888889qqqqwqwr7888888888888888888888q88q45qqqqqqwwwq4888888888888889qq99qw037wwq98888888884yy8888888888qqqqq94388888888888888888",
"648888899qq65r0988888884884444448889q8994qqqqqqq98q8888888888888888qqqqqqw6qwwwuy9888888888wq888888888889qq98888888888888889488q",
"3888888888qq03388888884332322233488qqqq89qqqqqqw98############################wypq888888884qq888888888888888888888888880489048qu",
"4884898889wry448888888888444344488qqqq99qqqqqwuu98############################q6338888888886qq888888888888888888888889y039y38qrr",
"9qwr034888869398888888888888888488qqq88qq99qywrw88############################233348889qqq949qq8888888888888888888888qr59r049wy3",
"qwwr9433348844888888888888888843388888889qqqquw99q############################4488888yywwwwqq8q88888884444433448888qqqq9qr39qww5",
"q96444348888888888888888888888888888qqqqqq    ####****************************####    uyqqqqq9888844333333333333888qqqqq999qqqqq",
"q0wru6488888888888888888989888888888qqqqqq    ####****************************####    566998888888333333333333348888q9999qqqqqqq",
"q99q049434343333433348qqqqqqq88888889qqqqw    ####****************************####    wrw0qqq8888843333333333338888888889qqqqqqq",
"88649843333333332333488qqqqqqqqq888888qqqr    ####****************************####    pyqqqqqqq888843333333334688888888888898888",
"884394433333333334388888qqqqqqqqq88888    ####************************************####    9qqq9888888844484888888889wr398q488888",
"89qyr38884444444848888888wwqqqqqw98888    ####************************************####    8888888888888888889w48888qwq40ry388888",
"qqwy4888888888888889989998wrrrqwww8888    ####************************************####    843888988888888888qr0488qqq8qwwr488889",
"qww68888888889988888qqqqqq9qwwwwyy9888    ####************************************####    823y98888888ww4888qwu389qqqqqqy788889q",
"9998888888888qqq989qqqqqqqq99q95508888####********************************************####427ay8888888ru0489qqy48qqqqqwyr5889899",
"68489qqq94888qqqq99wqqqqwqqq86qq333888####********************************************####33iyy8888888wwu049qww59qqqqwww588qqq97",
"uq49qqqqqq888qqqq94wqqqqqwwqq339984888####********************************************####35aqqq888888q9qr48qqq9qqqqq964988999qw",
"988qqqqqqq988qqqqq39qqqqq8ywqq43q89888####********************************************####30wqq888888889qw09qqq8qqqwqw0988888888",
"989qqqwwqqq88qqqqq430wwqq99yww9834    &&&&********************************************&&&&    q988888888qq98qqq88899qqyp78888888",
"98qqqqrwqqq98wqqqw485wwwq989yy0883    &&&&********************************************&&&&    qq888888889qq89qq888889yw448888888",
"88wqqqwyqqq98wqqww68830rwq338rw988    &&&&********************************************&&&&    q9888888889qq989q88888848888888888",
"94rqqwwwqqq94rqwqw688430rw43335088    &&&&********************************************&&&&    q988888888499444444848888888888888",
"94wwqr9wwqq68wwqwr5888835w0w844ay8    &&&&********************************************&&&&    q884423333333333333333333488888888",
"949rqr8wwq038qwqww488888436aur8yyy    &&&&********************************************&&&&    9433333333333333333333333338888888",
"984rrw6wqw6499ywy0388888884uqrw8qr    &&&&********************************************&&&&    8333333333333333333333333334888888",
"883qy69rr03986ruw3488888888qyqwqqq    &&&&********************************************&&&&    8443333333333333333333334498998888",
"9844q39r634886q0338888888888wywqqq    &&&&&&&&************************************&&&&&&&&    88888888846844484689q9889qqqqqqq88",
"98843433348888324888888888888wyqqq    &&&&&&&&************************************&&&&&&&&    8888888884434335rwqqq898qqqqqqqqy8",
"998848488888889488888888888888qqqq    &&&&&&&&************************************&&&&&&&&    888888843333350rwqqq9qq9qqqwqwwruy",
"qq98898888998898888848444888wurqqq    &&&&&&&&************************************&&&&&&&&    8888883333333rwwwwq99qqq9qqqwrr0ru",
"qq98qw989qqwwwq4333333333348wywqqq    &&&&&&&&&&&&&&&&********************&&&&&&&&&&&&&&&&    8888843333333000w0qwqqqq8qq9qqrp04",
"qq88qq98899qqwu033333333334898wwww    &&&&&&&&&&&&&&&&********************&&&&&&&&&&&&&&&&    888883333333333332eyqqq989q94qqwp6",
"wq8qqq99qqqww053333333333338888888    &&&&&&&&&&&&&&&&********************&&&&&&&&&&&&&&&&    q88883333333333336uwqqq948qq639qrw",
"y89qqq99qqqqww03333333333334348888    &&&&&&&&&&&&&&&&********************&&&&&&&&&&&&&&&&    wyww8433333332332ywqqq93349qw439qr",
"q8qwqq44qqqqqwyq33333333332500....########&&&&&&&&&&&&&&&&&&&&&&&&&&&&&&&&&&&&&&&&&&&&########....0433333333324qqq984324qqy8434w",
"889yqy630wqqqqqr03333333336ryr....########&&&&&&&&&&&&&&&&&&&&&&&&&&&&&&&&&&&&&&&&&&&&########....88833342223334333333349ww88488",
"988wyy3330ywq0uru323333333rwqy....########&&&&&&&&&&&&&&&&&&&&&&&&&&&&&&&&&&&&&&&&&&&&########....9889322222223233334844qr888888",
"8989y433330uu337t073333335rwww....########&&&&&&&&&&&&&&&&&&&&&&&&&&&&&&&&&&&&&&&&&&&&########....6484322222222434488944w9888888",
"9qq888333334033236ww523349wqqw    ssss    &&&&&&&&&&&&&&&&&&&&&&&&&&&&&&&&&&&&&&&&&&&&    ssss    4843222222224488499qqqq8888889",
"9qq8888333333rw435qwr03680wwqq    ssss    &&&&&&&&&&&&&&&&&&&&&&&&&&&&&&&&&&&&&&&&&&&&    ssss    8883332223334459wwqqqq9898889q",
"8qw98888432330ry04qqwww586qqqq    ssss    &&&&&&&&&&&&&&&&&&&&&&&&&&&&&&&&&&&&&&&&&&&&    ssss    8888884884849rwwwwqqqq9qq889qq",
"9qq48888886435wwrw9qqqww44qqqq    ssss    &&&&&&&&&&&&&&&&&&&&&&&&&&&&&&&&&&&&&&&&&&&&    ssss    88889548888888qq5rwqq8qqq8qqqq",
"0r988888849q638qwwwqqqqqq4qqqq    ssss....        &&&&&&&&&&&&&&&&&&&&&&&&&&&&        ....ssss    88884004888888894rwq8qq90qqq40",
"w94888889334qq48qqwqqqqqq88qqq    ssss....        &&&&&&&&&&&&&&&&&&&&&&&&&&&&        ....ssss    88888rut688888845u70qqq4t0084r",
"69888888867659qqqqqqqqqqqq8qqq    ssss....        &&&&&&&&&&&&&&&&&&&&&&&&&&&&        ....ssss    48889rwrr0888888993wqq84998936",
"888888889qrrrwwwq999qqq9988899    ssss....        &&&&&&&&&&&&&&&&&&&&&&&&&&&&        ....ssss    73449wqwwr988888845q9988888846",
"8888888888wwqwwrwwq888998888888888    ....XXXXXXXX                            ....XXXX....    8884pu0330qqqww8888888898644488888",
"88888888889qqqqqqwqq88888883333333    ....XXXXXXXX                            ....XXXX....    8884iruu0q9qqqq8888888845700qq8888",
"qq98888888888qqqqqqqq8888333333333    ....XXXXXXXX                            ....XXXX....    8889uwqqwwq8qqq88888888qyw9q999wrw",
"qqqq8888888888qqqqqqqq888843333333    ....XXXXXXXX                            ....XXXX....    8888wyqqqqqq999888888845349888ryww",
"qqqq9888888888888888888888888884484888    ....XXXXXXXXXXXXXXXXXXXXXXXXXXXXXXXXXXXX....    0009888889qqqqqqq988888884330rqq8899qq",
"qqq98888888888888888888888888888888888    ....XXXXXXXXXXXXXXXXXXXXXXXXXXXXXXXXXXXX....    rar8888884499q8qq9988888833wwwq8qywwqq",
"88889q88888888888888888888888833488888    ....XXXXXXXXXXXXXXXXXXXXXXXXXXXXXXXXXXXX....    y98894433339889qqqqq888888wwq98wywwq89",
"q8qqqq9888888888888888888888884irq8888    ....XXXXXXXXXXXXXXXXXXXXXXXXXXXXXXXXXXXX....    8888833350q99qqqqqqq888889r098wuyw8qqq",
"8qqqqq88888888884844888888884246q988888888    ....XXXXXXXXXXXXXXXXXXXXXXXXXXXX....    4888888888purqqqqq9qqqqq8888944358wqqqqqqq",
"9q899888833333233333388888888rt78qqq988888    ....XXXXXXXXXXXXXXXXXXXXXXXXXXXX....    0888888988qyyrrq4qwqq9qq88888849q9qqqqqqq4",
"q98988888233333333334888888880wqwqqqqqq888    ....XXXXXXXXXXXXXXXXXXXXXXXXXXXX....    q888888888988q330wqq9qqq8888880yywwqq9qq93",
"988888888844333344888888888888qqqqqqqqqq88    ....XXXXXXXXXXXXXXXXXXXXXXXXXXXX....    888888888888832qrqq4qqw9888888888qqw68wq39",
"88888888888888889q88888888884489qq        ****        ....XXXXXXXXXXXX....            888888888888430yqq95yuw888888889yuw98ww888",
"98888888888qq88qqq8988888888933330        ****        ....XXXXXXXXXXXX....            88888888888889uw986wpq888888888888988wq888",
"9888888889qq98qqqq9q8q98888889wwwq        ****        ....XXXXXXXXXXXX....            89qq888888888884484988888880988888888q8888",
"88889888qqqq88qqq9qq8qqq888888899q        ****        ....XXXXXXXXXXXX....            88qqq88888883333233348840www9999q998888888",
"9888q89qqqqq89wqq9ww9qqqq88888    hhhh$$$$****ggggdddd....................ffff****    88qqqq888843323232333388yirwqqqqqq98888888",
"8888rqqqqqqq8qqwqwww8qqqqq888q    hhhh$$$$****ggggdddd....................ffff****    q8qqqwq888332222233232434470q9q98988888888",
"9888yqqqq9998qqwwwyq8qqqwqwqqy    hhhh$$$$****ggggdddd....................ffff****    qqqqqqq98842332332233384rr0qqq999888888888",
"888quq9q98889wrywuw98wywwrwyyy    hhhh$$$$****ggggdddd....................ffff****    qwwywqwy88433232333348888wwwwqqqq998888888",
"888qw99yw888wyyqyr8888yuyiw888    hhhh$$$$****gggggggg@@@@$$$$$$$$$$$$@@@@gggg****$$$$    pwqy888443434448888888qqq86qq998888888",
"888898wu6888qq88888888899qq888    hhhh$$$$****gggggggg@@@@$$$$$$$$$$$$@@@@gggg****$$$$    0pu9888888888888888889q888qw9888888888",
"888qrw998488888888888888888888    hhhh$$$$****gggggggg@@@@$$$$$$$$$$$$@@@@gggg****$$$$    47u8888888888988888989q988wqq8888888qu",
"4qqqy8888888888888888888888888    hhhh$$$$****gggggggg@@@@$$$$$$$$$$$$@@@@gggg****$$$$    848888888848wq88889q89qq88qq8888888wuu",
"8qqy62488888888888888888888888888q$$$$$$$$$$$$    gggg@@@@************@@@@gggg********    88888888896uwqqq99qq99qq889w888888qyq0",
"qqy5338988888888888888888888888889$$$$$$$$$$$$    gggg@@@@************@@@@gggg********    889qq99988840qqqq9qqq4ww8988888888qqq8",
"qr650rrw98888888888888888888888888$$$$$$$$$$$$    gggg@@@@************@@@@gggg********    84400qqq844wqqqqq9qqq87yqq88888889qq9q",
"q9qqqwwypw888888888889888888888888$$$$$$$$$$$$    gggg@@@@************@@@@gggg********    8989098894rrqqqqq50qq840uq8888888qqqqq",
"qqq99w00q5888888888888888888888889rw489088$$$$    gggggggggggggggggggggggggggg****jjjjjjjj    q98885yqq9qq840wq888q988888889qqqq",
"q98903333348888888888888889y68889qq95wrr38$$$$    gggggggggggggggggggggggggggg****jjjjjjjj    88886rrw99q8880w98888888888889qqqq",
"99883348488888888888998888qqr499qqqqqqy048$$$$    gggggggggggggggggggggggggggg****jjjjjjjj    88884wq80rq88889888888898888889qq9",
"qqqq9898888888888888ru049qqqy389qqqqqry498$$$$    gggggggggggggggggggggggggggg****jjjjjjjj    888889886988888888844433344888889q",
"qqwqqqr8888888888888wwy04qqqw49qqqqqwr688q    @@@@gggggggggggggggggggggggg@@@@    hhhhhhhh    qqqqq9988888888888433333333488999q",
"9wqqqqu98888888888899qwr49qqq8qqqqqq748889    @@@@gggggggggggggggggggggggg@@@@    hhhhhhhh    qqqqqq999q988888888333333388888qq9",
"99rurqyq88888888888888qq08qqq89qqqwwwr4988    @@@@gggggggggggggggggggggggg@@@@    hhhhhhhh    qqqq8wq9qq988888888884484988888qqq",
"qw45rpa088888888888888qq98qqq888889wu04888    @@@@gggggggggggggggggggggggg@@@@    hhhhhhhh    3rq83y90w9888888888888888888889qqq",
"qy4433w0888888888888888qq88qq88888q4488888    @@@@gggggggggggggggggggggggg@@@@            88887y94wq3rw9888988898888948888888rwq",
"qy898833888888888888888qq88888888888888888    @@@@gggggggggggggggggggggggg@@@@            8883uq83w84q888434888488qq0388888886ry",
"up68888884344443344888898888888888888888==    @@@@gggggggggggggggggggggggg@@@@            w88598988888847r0490t54qqw70w48888889e",
"0p48843333333333333888888888898898888qqq=-    @@@@gggggggggggggggggggggggg@@@@            py888888888860yw54wqw4qqq90re488888894",
"83488433333333333348888888884qqqqq88qqqq--    @@@@gggggggggggggggggggggggg    ->:::=:::=8yqrq888ww88889wqq8qq99qq99qqy7988888888",
"9888843333333333338888888840yqqqq998qqqq:-    @@@@gggggggggggggggggggggggg    =->=::=::=8qqqr88yay8888qq99qqq88qq9qqqw0wwrq88888",
"98888844333333338888888884wyqqqq99q9=:=--:    @@@@gggggggggggggggggggggggg    ==:>:::::===-:q8yy9y8888q99qq9888q8qqqqqwwq7588888",
"88888888884848844443438840wqqqq99qqq:::::>    @@@@gggggggggggggggggggggggg    ====::=:::==::88wq9w88889qqq9888888qqqqwq448888888",
"9888888888888833333333330ryuuyq9qqq9=:---:,,O-    @@@@@@@@gggg            =====-<>::=:===::=8qqq8888889q988888888q99948888888888",
"8888888888888884333333334898849yqqqq==-=---,>+    @@@@@@@@gggg            ======::::::===::=8qq9888888888888888qy038888888888888",
"988888888899888889888888888893uwqqq9==--O=--,-    @@@@@@@@gggg            OOOO=O============8qq9888888888888949wqq34888888888888",
"98888898889wq88888888888888840uwqqq8==---o--;-    @@@@@@@@gggg            OOooOO============89q888888888899348qwq9348889q9q48888",
"8888qqq99889wrww8888888888883uqqqq98o=---Oo-:-    @@@@@@@@@@@@--::=====OOOOOOOOoO=====OOoOOO88888888888889w9439wq8448qqqqwr38888",
"888qqqqqqqqqqwaaq488888888836yqqq988OO-::OOO=:    @@@@@@@@@@@@--;>:-=========Oo--O===Oo--OO+48888888888889rq934qq9849qqqwy548888",
"888qqqqqqqqwryw048888888888489888888OO--:-=O==    @@@@@@@@@@@@---->:=========oO>>-==O+;>-O>:48888888888888ry0q49q988qqqqu0488888",
"8999qqqqqqww044988884332338888888888OO-:-=====    @@@@@@@@@@@@--:::,========OO>:>-=OO;::-+,>44888888888888qurqq9qq88qqqwr4qqq988",
"8qqwqqqqqqqwryrw94433223323888888888OO>:======    %%%%%%%%    ,--:><-OO-====+-:-:>=O---;=-;:q488888988888w00yyqq9qq9qqq9qwwrwyr4",
"9qqwy9qqqqwqqwap54433323333888888988=O:=======    %%%%%%%%    -1-O--;;Oo=====::-:>=O--->-:--w888888888888wpyrwwqqqqqqq9qqqwqr049",
"qqqqyr9qqqqqwuu5488433333339888849qqqq98======    %%%%%%%%    --+OoO+;>+OO===>:-::OO--->qwwqw9889888888888ryqwqqqqq9999qqqwr7888",
"qqqqqir899wuu0368888888884888439wwqqqq98-====:    %%%%%%%%    ==->OOO-;>;OO=+>-:-:----->wwqqw88888888888888qqqqqqqq889qqqqq48888",
"qqqqqwiu068848888888888888883wrwwqqqqq8q====--=-:=        ===OO=+>,-==--::O+=-----==::-:ywqqq888888888888888889qqq88888888888888",
"qqqq4qqruw588888888888988883340r00wqq99q:==:--=---        ===OOO=;->-=---:;+O--:::===--:wqqqq88888888888888888833333488888888888",
"qqwr349qqry0488888888888883333332uwqq8qqq9qq-----=        ====-O+--:>-=---:-O=--:===qqqqqqqq988888888888888888432332248888888888",
"qqu024898865448888888888883333332uw09qq6qqq9o;->+=        =====-OO--:>:::---=--:::==88qqqqqq988888888888888888832233488888888888",
"ywa534888848888884848888843333335u60qq93tw753tr78888888888884330063qqqqqqqqqq89qqq88888qqqq8888888888888888888884488888888888888",
"war33888894433333333333484333333552rq943553326388888888888889653qq08qqqqqqqqq89qqq8888888988888888888888888888888888844888888888",
"9u534888843333333333333348433333332w9333333533488888888888888wyr0wwq9qqqq9q998899q8888888888888888888888888889888843233348888888",
"9963888888433333333333334843333333393333333354944448888888q89qywwwryw988q9q98888888888888888888988888443343334888833232338888888",
"9888888888888844434334444884433333333333333488333339888888q988wqqqwwww888888888888888888889w48888888833333333488884443348898q888",
"9888888888888888888884888888843333333333348888884888888888qr889qqqqqwqq9888888888888888848wa3488888884333333488888869888889yp348",
"8888888888888888888884444888888843444448888888888888888889qr8888qqqqqqqq888888888888888w56irr38w38888888888888888473488948rwu249",
"4888888888888888888884423488888888888888888888888888888888qy888889qqqqqqq98888888888994r70rww39r3888888888888888quu39wit3wqw06u4",
"888888888889888888888888888888888889wq8888888888888888888qqw888888889999988888888888ua7r00ww99qw548888888888888quqw5uyy09qqqqry3",
"98888888888888899rrwq888888q88uw888waq8988888888888888888qqq888888888888888888888889rruwrrqq99qq048888884488889yw9wuwqwwqq8qq0r3",
"ww988888888888888yiyar8888urquuq88wuy89wq8888888888888899qq488898988888888988888889wwwuyyrqq9qqqw38889rup74888wwq8wwq9qqq99qqw00",
"rir4889wy9888ryuywyqwuq88wuquyq88quqq9wy988888888888888qq9q9qqyyuw88888888888888888wwqquyrqq9qqwr588wappi44888wq99qq9889q9qqqwrq"
};
